<?xml version="1.0" encoding="UTF-8" standalone="no"?>
<!-- Created with Inkscape (http://www.inkscape.org/) -->

<svg
   width="135.46666mm"
   height="135.46666mm"
   viewBox="0 0 135.46666 135.46666"
   version="1.1"
   id="svg1"
   xml:space="preserve"
   inkscape:version="1.3.2 (091e20ef0f, 2023-11-25)"
   sodipodi:docname="logo-incircle.svg"
   xmlns:inkscape="http://www.inkscape.org/namespaces/inkscape"
   xmlns:sodipodi="http://sodipodi.sourceforge.net/DTD/sodipodi-0.dtd"
   xmlns:xlink="http://www.w3.org/1999/xlink"
   xmlns="http://www.w3.org/2000/svg"
   xmlns:svg="http://www.w3.org/2000/svg"><sodipodi:namedview
     id="namedview1"
     pagecolor="#ffffff"
     bordercolor="#000000"
     borderopacity="0.25"
     inkscape:showpageshadow="2"
     inkscape:pageopacity="0.0"
     inkscape:pagecheckerboard="0"
     inkscape:deskcolor="#d1d1d1"
     inkscape:document-units="mm"
     inkscape:zoom="0.90494415"
     inkscape:cx="353.06046"
     inkscape:cy="259.68454"
     inkscape:window-width="2304"
     inkscape:window-height="1230"
     inkscape:window-x="0"
     inkscape:window-y="0"
     inkscape:window-maximized="1"
     inkscape:current-layer="g24"><inkscape:page
       x="0"
       y="0"
       width="135.46666"
       height="135.46666"
       id="page6"
       margin="0"
       bleed="0" /></sodipodi:namedview><defs
     id="defs1"><linearGradient
       id="linearGradient8"
       inkscape:collect="always"><stop
         style="stop-color:#a5b273;stop-opacity:1;"
         offset="0"
         id="stop7" /><stop
         style="stop-color:#66987d;stop-opacity:1;"
         offset="1"
         id="stop8" /></linearGradient><linearGradient
       id="linearGradient24"
       inkscape:collect="always"><stop
         style="stop-color:#9ba97b;stop-opacity:1;"
         offset="0"
         id="stop23" /><stop
         style="stop-color:#ffd960;stop-opacity:1;"
         offset="1"
         id="stop24" /></linearGradient><linearGradient
       id="linearGradient19"
       inkscape:collect="always"><stop
         style="stop-color:#70a287;stop-opacity:1;"
         offset="0"
         id="stop19" /><stop
         style="stop-color:#5b8c71;stop-opacity:1;"
         offset="1"
         id="stop20" /></linearGradient><linearGradient
       id="linearGradient17"
       inkscape:collect="always"><stop
         style="stop-color:#70a287;stop-opacity:1;"
         offset="0"
         id="stop17" /><stop
         style="stop-color:#ffd54f;stop-opacity:1;"
         offset="1"
         id="stop18" /></linearGradient><linearGradient
       inkscape:collect="always"
       xlink:href="#linearGradient17"
       id="linearGradient18"
       x1="-52.250366"
       y1="63.836418"
       x2="-13.79105"
       y2="134.19437"
       gradientUnits="userSpaceOnUse"
       gradientTransform="translate(4.9433675,2.4249458)" /><linearGradient
       inkscape:collect="always"
       xlink:href="#linearGradient19"
       id="linearGradient20"
       x1="-74.949837"
       y1="53.28014"
       x2="-45.362247"
       y2="95.129494"
       gradientUnits="userSpaceOnUse"
       gradientTransform="translate(4.9433675,2.4249458)" /><linearGradient
       inkscape:collect="always"
       xlink:href="#linearGradient24"
       id="linearGradient23"
       gradientUnits="userSpaceOnUse"
       x1="-63.741917"
       y1="91.349457"
       x2="-54.300369"
       y2="48.689732"
       gradientTransform="matrix(1,0,0,-1,4.9433682,207.77779)" /><linearGradient
       inkscape:collect="always"
       xlink:href="#linearGradient8"
       id="linearGradient7"
       x1="-64.965904"
       y1="112.95662"
       x2="-66.37841"
       y2="90.782272"
       gradientUnits="userSpaceOnUse" /></defs><g
     inkscape:label="Layer 1"
     inkscape:groupmode="layer"
     id="layer1"
     transform="translate(96.172192,-37.368038)"><g
       id="g24"
       transform="matrix(-1.0447995,0,0,-1.0447995,-70.370987,215.14772)"><path
         id="rect5"
         style="fill:url(#linearGradient7);fill-opacity:1;fill-rule:evenodd;stroke-width:4.19344;stroke-linecap:round;stroke-linejoin:round;stroke-dashoffset:1.2"
         d="m -75.958482,69.114415 28.651481,35.986965 -28.651481,35.98571 c 0,-12.4377 11.677563,-24.4897 11.677563,-35.98571 0,-11.496003 -11.677563,-23.578081 -11.677563,-35.986965 z"
         sodipodi:nodetypes="ccczc" /><path
         id="path15-7-6-7"
         style="fill:url(#linearGradient20);fill-opacity:1;fill-rule:evenodd;stroke:#000000;stroke-width:0;stroke-linecap:round;stroke-linejoin:round;stroke-dashoffset:1.2"
         d="m -57.50001,51.114679 c -10.309701,-1.82e-4 -18.458368,7.690035 -18.458472,17.999736 0.01742,5.026225 2.060984,9.833054 5.668388,13.333037 v 0 l 22.983093,22.653918 c 7.442624,-7.143685 13.647399,-15.116968 13.647229,-25.856824 -0.0015,-8.898769 -3.789315,-17.376609 -10.416935,-23.314856 -3.989508,-2.635876 -9.040749,-4.73966 -13.423303,-4.815011 z"
         sodipodi:nodetypes="cccccccc" /><path
         id="path15-7-6-7-8"
         style="fill:url(#linearGradient23);fill-opacity:1;fill-rule:evenodd;stroke:#000000;stroke-width:0;stroke-linecap:round;stroke-linejoin:round;stroke-dashoffset:1.2"
         d="m -57.50001,159.08806 c -10.309701,1.8e-4 -18.458368,-7.69004 -18.458472,-17.99974 0.01742,-5.02622 2.060984,-9.83305 5.668388,-13.33303 v 0 l 22.983093,-22.65391 c 7.442624,7.14368 13.647399,15.11696 13.647229,25.85681 -0.0015,8.89877 -3.789315,17.37661 -10.416935,23.31486 -3.989508,2.63587 -9.040749,4.73966 -13.423303,4.81501 z"
         sodipodi:nodetypes="cccccccc" /><path
         d="m -44.076707,55.92969 c 6.627599,5.938232 10.415435,14.416116 10.416935,23.314856 1.7e-4,10.73983 -6.691755,19.152452 -13.647229,25.856824 6.982619,6.62266 13.647399,15.11699 13.647229,25.85682 -0.0015,8.89875 -3.789329,17.37661 -10.416935,23.31486 l 53.07583,-33.59434 v 0 c 5.24135,-3.44959 8.399,-9.30165 8.404655,-15.57631 -0.0012,-6.280472 -3.16047,-12.139384 -8.4072385,-15.591297 v 0 z"
         style="fill:url(#linearGradient18);fill-rule:evenodd;stroke:#000000;stroke-width:0;stroke-linecap:round;stroke-linejoin:round;stroke-dashoffset:1.2"
         id="path17"
         sodipodi:nodetypes="ccccccccccc" /></g></g></svg>
