<?xml version="1.0" encoding="UTF-8" standalone="no"?>
<svg
   width="234.65253mm"
   height="228.52432mm"
   version="1.1"
   viewBox="0 0 234.65253 228.52433"
   id="svg12"
   sodipodi:docname="bg-gradient.svg"
   inkscape:version="1.3.2 (091e20ef0f, 2023-11-25)"
   xmlns:inkscape="http://www.inkscape.org/namespaces/inkscape"
   xmlns:sodipodi="http://sodipodi.sourceforge.net/DTD/sodipodi-0.dtd"
   xmlns:xlink="http://www.w3.org/1999/xlink"
   xmlns="http://www.w3.org/2000/svg"
   xmlns:svg="http://www.w3.org/2000/svg">
  <defs
     id="defs12">
    <linearGradient
       id="linearGradient394"
       inkscape:collect="always">
      <stop
         style="stop-color:#41d1fb;stop-opacity:1;"
         offset="0"
         id="stop394" />
      <stop
         style="stop-color:#12e1fa;stop-opacity:0;"
         offset="1"
         id="stop395" />
    </linearGradient>
    <linearGradient
       id="linearGradient392"
       inkscape:collect="always">
      <stop
         style="stop-color:#d8c804;stop-opacity:1;"
         offset="0"
         id="stop392" />
      <stop
         style="stop-color:#d8c804;stop-opacity:0;"
         offset="1"
         id="stop393" />
    </linearGradient>
    <linearGradient
       id="linearGradient390"
       inkscape:collect="always">
      <stop
         style="stop-color:#09ddc8;stop-opacity:1;"
         offset="0"
         id="stop390" />
      <stop
         style="stop-color:#09ddc8;stop-opacity:0;"
         offset="1"
         id="stop391" />
    </linearGradient>
    <linearGradient
       id="linearGradient388"
       inkscape:collect="always">
      <stop
         style="stop-color:#89d21e;stop-opacity:1;"
         offset="0"
         id="stop388" />
      <stop
         style="stop-color:#89d21e;stop-opacity:0;"
         offset="1"
         id="stop389" />
    </linearGradient>
    <linearGradient
       inkscape:collect="always"
       xlink:href="#linearGradient388"
       id="linearGradient389"
       x1="161.43944"
       y1="171.38155"
       x2="200.37025"
       y2="205.57594"
       gradientUnits="userSpaceOnUse" />
    <linearGradient
       inkscape:collect="always"
       xlink:href="#linearGradient390"
       id="linearGradient391"
       x1="101.34775"
       y1="181.32161"
       x2="114.49702"
       y2="221.14345"
       gradientUnits="userSpaceOnUse" />
    <linearGradient
       inkscape:collect="always"
       xlink:href="#linearGradient392"
       id="linearGradient393"
       x1="164.44524"
       y1="94.479004"
       x2="217.52173"
       y2="56.97279"
       gradientUnits="userSpaceOnUse" />
    <linearGradient
       inkscape:collect="always"
       xlink:href="#linearGradient394"
       id="linearGradient395"
       x1="85.734413"
       y1="72.11245"
       x2="99.012016"
       y2="-13.602144"
       gradientUnits="userSpaceOnUse" />
  </defs>
  <sodipodi:namedview
     id="namedview12"
     pagecolor="#ffffff"
     bordercolor="#000000"
     borderopacity="0.25"
     inkscape:showpageshadow="2"
     inkscape:pageopacity="0.0"
     inkscape:pagecheckerboard="0"
     inkscape:deskcolor="#d1d1d1"
     inkscape:document-units="mm"
     inkscape:zoom="1.125643"
     inkscape:cx="322.92655"
     inkscape:cy="300.27283"
     inkscape:window-width="2304"
     inkscape:window-height="1230"
     inkscape:window-x="0"
     inkscape:window-y="0"
     inkscape:window-maximized="1"
     inkscape:current-layer="g17" />
  <g
     id="g17"
     transform="translate(-23.924304,-4.118486)"
     style="opacity:0.594583">
    <path
       d="m 112.93189,142.75782 c 5.52551,-10.08681 49.88502,-0.70355 64.43446,-0.95743 16.73566,-0.29189 63.87845,-11.27169 74.10922,-1.47288 8.89515,8.51901 -24.59324,32.57757 -31.71035,42.10327 -8.18594,10.95689 -19.45243,46.80382 -36.03986,48.60744 -14.42074,1.5677 -25.29113,-31.87374 -32.72457,-41.14518 -8.54989,-10.665 -44.42521,-35.53176 -38.07006,-47.134 z"
       fill="#89d21e"
       fill-rule="evenodd"
       opacity=".1"
       style="opacity:0.243476;mix-blend-mode:normal;stroke-width:0.85398;paint-order:normal;fill:url(#linearGradient389)"
       id="path2" />
    <path
       class="fills"
       d="M 108.8448,137.6627 C 93.785046,141.30665 78.648157,97.31126 69.784574,85.582629 59.588622,72.090273 18.979574,42.320856 24.424141,25.983753 29.157654,11.781579 77.035124,19.750847 92.374708,17.867416 110.01931,15.701061 158.61288,-4.1153023 170.488,8.0304838 180.81393,18.588883 148.072,54.614713 141.59609,68.229039 c -7.4487,15.658698 -15.42894,65.243991 -32.75306,69.437401 z"
       fill="#04c68c"
       fill-rule="evenodd"
       style="opacity:0.243476;mix-blend-mode:normal;fill:url(#linearGradient395);fill-opacity:1;stroke-width:0.365583;paint-order:normal"
       id="path4" />
    <path
       class="fills"
       d="m 171.59458,220.07102 c 1.39379,18.38925 -49.55165,1.59466 -63.96942,2.14838 -16.585809,0.63643 -56.318043,20.91372 -73.319222,3.14737 -14.779406,-15.44511 2.267103,-59.43312 2.855486,-76.81076 0.676888,-19.98886 -12.671645,-85.290812 2.725997,-88.673698 13.385717,-2.943662 47.284148,57.840098 61.116029,74.665608 15.90892,19.35244 68.98986,64.37231 70.59493,85.52772 z"
       fill="#0885bb"
       fill-rule="evenodd"
       style="opacity:0.243476;mix-blend-mode:normal;fill:url(#linearGradient391);fill-opacity:1;stroke-width:0.412429;paint-order:normal"
       id="path7" />
    <path
       class="fills"
       d="m 257.91328,132.85519 c -5.36154,14.30318 -52.32885,2.03849 -67.58926,2.70235 -17.55364,0.76228 -66.55853,17.19461 -77.72117,3.6305 -9.70597,-11.79512 24.39986,-46.338109 31.45588,-59.88533 8.11655,-15.583353 18.38721,-66.240857 35.71689,-69.123969 15.06803,-2.5080925 27.93,44.299026 36.13532,57.184696 9.43706,14.820548 48.17214,49.042523 42.00408,65.494273 z"
       fill="#0de344"
       fill-rule="evenodd"
       style="opacity:0.243476;mix-blend-mode:normal;fill:url(#linearGradient393);fill-opacity:1;stroke-width:0.370606;paint-order:normal"
       id="path9" />
  </g>
</svg>
