<svg width="2907.3" height="2912.3" version="1.1" viewBox="0 0 2907.3 2912.3" xmlns="http://www.w3.org/2000/svg" xmlns:xlink="http://www.w3.org/1999/xlink">
 <g transform="translate(-448.76 -342.74)">
  <path d="m3026 963.98c-657.98-801.15-2218.6-703.18-2503.7-177.37-119.86 221.04 72.917 356.84 13.462 1034.4-39.966 455.46-144.16 588.75-46.09 756.06 184.48 314.73 802.69 268.64 1026 251.99 515.72-38.448 1654.1-278.34 1790.1-1004.3 79.335-423.48-223.67-792.42-279.83-860.8z" fill="#f4f7fa"/>
  <path d="m3117.6 1957.6c29.256 14.854 66.011 1.216 82.096-30.463 16.083-31.679 5.405-69.4-23.851-84.254-1.517-0.77-3.063-1.417-4.615-2.035 5.436-17.529 9.534-35.195 12.282-52.867 1.677-0.01 3.36-0.033 5.07-0.186 33.378-2.975 59.869-33.646 59.17-68.509-0.698-34.862-28.324-60.711-61.702-57.736-1.744 0.157-3.458 0.432-5.162 0.734-3.487-17.276-8.264-34.153-14.29-50.486 1.535-0.898 3.063-1.827 4.555-2.873 28.557-20.006 37.688-59.494 20.392-88.198-17.294-28.702-54.465-35.751-83.022-15.746-1.463 1.026-2.84 2.133-4.2 3.257-11.279-12.469-23.65-24.023-37.035-34.569 0.941-1.543 1.862-3.107 2.696-4.748 16.084-31.679 37.101-66.283 7.616-80.677-68.208-33.297-97.478-4.793-113.56 26.886-0.833 1.641-1.551 3.307-2.242 4.977-16.412-4.583-33.041-7.751-49.763-9.5 0.104-1.762 0.185-3.525 0.149-5.313-0.699-34.861 9.645-53.726-23.86-54.378-73.063-1.42-97.713 30.292-97.014 65.152 0.036 1.823 0.188 3.604 0.369 5.374-16.743 4.772-33.187 10.875-49.192 18.254-0.761-1.554-1.55-3.1-2.453-4.601-17.294-28.703-54.464-35.753-83.022-15.745-28.557 20.009-37.687 59.495-20.392 88.198 0.886 1.471 1.856 2.846 2.842 4.203-12.646 12.647-24.49 26.38-35.434 41.113-1.415-0.888-2.85-1.756-4.365-2.525-29.256-14.855-66.011-1.215-82.096 30.463-16.083 31.678-5.405 69.4 23.851 84.254 1.516 0.77 3.063 1.416 4.615 2.036-5.436 17.529-9.534 35.194-12.282 52.867-1.677 0-3.36 0.032-5.069 0.184-33.379 2.976-59.871 33.648-59.172 68.51 0.699 34.861 28.325 60.709 61.704 57.734 1.743-0.154 3.457-0.429 5.161-0.732 3.487 17.277 8.263 34.152 14.29 50.486-1.535 0.898-3.063 1.827-4.555 2.872-28.557 20.006-37.687 59.494-20.392 88.198 17.294 28.703 74.55 42.037 103.11 22.031 1.464-1.025-17.246-8.418-15.886-9.542 11.281 12.468 23.65 24.023 37.035 34.57-0.941 1.543-1.863 3.106-2.695 4.747-16.084 31.678-5.406 69.4 23.851 84.254 29.256 14.854 66.011 1.216 82.095-30.463 0.833-1.641 1.551-3.308 2.241-4.977 16.412 4.582 33.041 7.75 49.763 9.499-0.104 1.761-0.185 3.525-0.149 5.313 0.699 34.861 28.324 60.71 61.702 57.734s59.871-33.649 59.171-68.509c-0.036-1.822-0.188-3.603-0.369-5.373 16.744-4.772 33.188-10.875 49.193-18.255 0.76 1.555 1.55 3.1 2.455 4.599 17.294 28.704 54.463 35.755 83.021 15.746 28.557-20.008 37.687-59.495 20.393-88.199-0.887-1.469-1.858-2.844-2.843-4.201 12.646-12.648 24.49-26.38 35.434-41.113 1.413 0.891 2.849 1.758 4.365 2.528zm-364.71 4.627c-106.22-53.932-144.99-190.89-86.596-305.91 58.397-115.02 191.85-164.54 298.07-110.61 106.22 53.932 144.99 190.89 86.596 305.91-58.397 115.02-191.85 164.54-298.07 110.6z" fill="#c9ced6"/>
  <path d="m3188.6 1787.8c33.378-2.976 59.869-33.649 59.17-68.51-0.698-34.861-28.324-60.712-61.702-57.736-1.744 0.156-3.458 0.432-5.162 0.734-3.486-17.277-8.264-34.152-14.29-50.485 1.535-0.897 3.063-1.827 4.555-2.873 28.557-20.006 63.887-68.348 43.739-95.125-38.238-50.822-77.812-28.823-106.37-8.818-1.463 1.026-2.84 2.132-4.2 3.256-11.279-12.469-23.65-24.022-37.035-34.57 0.941-1.543 1.862-3.106 2.696-4.746 8.754-17.24 9.527-36.249 3.745-52.409-27.583 48.547-54.794 97.297-81.518 146.31 84.742 62.096 111.72 184.47 58.752 288.8-44.887 88.407-134.11 138.05-221.23 131.83-3.886 10.079-7.702 20.212-11.863 30.194-11.294 27.087-24.123 53.617-36.969 80.112 8.078 1.524 16.193 2.723 24.331 3.574-0.105 1.762-0.186 3.526-0.15 5.313 0.699 34.862 21.864 64.481 82.358 61.273 33.464-1.775 39.215-37.186 38.515-72.047-0.036-1.821-0.188-3.603-0.368-5.372 16.743-4.772 33.187-10.876 49.192-18.255 0.76 1.555 1.55 3.1 2.455 4.599 17.294 28.705 77.291 40.9 105.85 20.892 28.558-20.008 14.86-64.64-2.433-93.344-0.887-1.47-1.858-2.845-2.843-4.202 12.646-12.646 24.49-26.38 35.434-41.112 1.415 0.889 2.851 1.756 4.366 2.524 29.256 14.856 66.011 1.216 82.096-30.463 16.083-31.677 5.405-69.4-23.851-84.254-1.517-0.77-3.063-1.416-4.615-2.034 5.436-17.529 9.534-35.196 12.282-52.867 1.674-0.01 3.358-0.036 5.068-0.187z" fill="#d8dee8"/>
  <path d="m3149.1 1961.2c29.256 14.854 66.011 1.215 82.095-30.463 16.083-31.679 5.405-69.401-23.851-84.254-1.516-0.77-3.063-1.417-4.615-2.035 5.436-17.529 9.535-35.195 12.282-52.867 1.677-0.01 3.36-0.033 5.07-0.186 33.378-2.975 59.87-33.647 59.172-68.508-0.699-34.862-28.324-60.712-61.703-57.736-1.745 0.157-3.458 0.431-5.162 0.734-3.487-17.276-8.264-34.153-14.291-50.486 1.536-0.898 3.064-1.827 4.556-2.873 28.556-20.007 37.687-59.494 20.393-88.198-17.295-28.703-54.466-35.752-83.021-15.746-1.464 1.026-2.841 2.133-4.201 3.257-11.28-12.469-23.651-24.024-37.034-34.57 0.941-1.543 1.863-3.106 2.695-4.747 16.083-31.678 5.406-69.4-23.851-84.255-29.257-14.854-66.012-1.214-82.096 30.464-0.833 1.641-1.551 3.307-2.242 4.977-16.412-4.583-33.041-7.751-49.763-9.5 0.104-1.762 0.186-3.526 0.15-5.313-0.7-34.861-28.325-60.71-61.704-57.734-33.378 2.975-59.87 33.648-59.171 68.509 0.037 1.823 0.189 3.604 0.37 5.373-16.743 4.773-33.186 10.875-49.191 18.254-0.761-1.554-1.551-3.099-2.454-4.601-17.295-28.704-54.465-35.753-83.022-15.745-28.558 20.009-37.687 59.494-20.392 88.198 0.885 1.471 1.855 2.846 2.842 4.203-12.646 12.648-24.49 26.381-35.434 41.112-1.416-0.887-2.85-1.755-4.367-2.524-29.256-14.855-66.011-1.215-82.095 30.463s-5.405 69.401 23.851 84.254c1.516 0.769 3.063 1.416 4.615 2.035-5.436 17.529-9.535 35.194-12.282 52.868-1.677 0-3.36 0.032-5.07 0.183-33.378 2.977-59.87 33.649-59.172 68.51 0.699 34.862 28.325 60.71 61.704 57.734 1.745-0.154 3.458-0.429 5.161-0.732 3.487 17.276 8.263 34.153 14.291 50.486-1.536 0.898-3.064 1.826-4.556 2.872-28.556 20.006-37.687 59.494-20.393 88.197 17.295 28.704 54.466 35.753 83.022 15.746 1.464-1.026 2.841-2.132 4.201-3.256 11.279 12.468 23.65 24.024 37.034 34.57-0.941 1.543-1.863 3.106-2.696 4.747-16.083 31.678-5.405 69.401 23.85 84.254 29.257 14.854 66.012 1.215 82.096-30.463 0.833-1.641 1.551-3.308 2.242-4.977 16.412 4.582 33.041 7.751 49.763 9.499-0.105 1.76-0.186 3.525-0.151 5.313 0.7 34.861 28.325 60.709 61.704 57.734 33.378-2.975 59.871-33.648 59.171-68.509-0.037-1.822-0.189-3.603-0.369-5.373 16.743-4.772 33.186-10.875 49.191-18.255 0.76 1.554 1.55 3.1 2.454 4.599 17.295 28.704 54.464 35.754 83.021 15.746 28.558-20.008 37.687-59.495 20.393-88.199-0.886-1.469-1.856-2.844-2.843-4.201 12.647-12.647 24.49-26.381 35.434-41.113 1.419 0.892 2.853 1.758 4.369 2.528zm-364.71 4.627c-106.22-53.931-144.99-190.89-86.597-305.91 58.397-115.02 191.85-164.54 298.07-110.6 106.22 53.931 144.99 190.89 86.597 305.91s-191.85 164.54-298.07 110.6z" fill="#b7c0ce"/>
  <defs>
   <path id="c" d="m2107.2 2196.3 237.76-171.96s-43.454-154.33-163.97-198.27c-245.89-89.637-150.22-298.74-123.26-392.32 40.67-141.12 14.964-283.22-156.05-229.49s-186.99-259.97-88.463-478.41c96.416-213.76-227.93-508.5-479.09-65.001-149.99 264.86 57.088 477.21 136.17 609.31s-98.323 276.07 74.744 382.14c147.83 90.604 318.89 110.91 305.02 256.74s50.328 251.66 257.14 287.26z"/>
  </defs>
  <clipPath id="b">
   <use xlink:href="#c"/>
  </clipPath>
  <linearGradient id="o" x1="3531.7" x2="2947.5" y1="-792.39" y2="867.82" gradientTransform="matrix(.8103 -.586 .586 .8103 -870.24 3219.8)" gradientUnits="userSpaceOnUse">
   <stop stop-color="#E38DDD" offset=".0036"/>
   <stop stop-color="#9571F6" offset="1"/>
  </linearGradient>
  <path d="m2107.2 2196.3 237.76-171.96s-43.454-154.33-163.97-198.27c-245.89-89.637-150.22-298.74-123.26-392.32 40.67-141.12 13.43-265.75-143.72-245.71-177.81 22.671-199.31-243.74-100.78-462.19 96.416-213.76-227.93-508.5-479.09-65.001-149.99 264.86 57.088 477.21 136.17 609.31s-98.323 276.07 74.744 382.14c147.83 90.604 318.89 110.91 305.02 256.74s50.327 251.66 257.14 287.26z" clip-path="url(#b)" fill="url(#o)"/>
  <g clip-path="url(#b)" fill="#beb8f2" opacity=".5">
   <path d="m2226 2144 4.283-4.476c-2.772-2.652-279.35-269.21-473.86-616.14-179.2-319.61-323.37-774.82 7.413-1128.4l-4.523-4.232c-147.25 157.39-214.25 347.66-199.14 565.5 12.07 174.02 76.299 365.88 190.9 570.27 194.97 347.71 472.14 614.82 474.92 617.48z"/>
   <path d="m1570.4 1047 4.532-4.225c-140.54-150.85-247.7-432.02-248.76-434.84l-5.796 2.186c1.072 2.836 108.66 285.14 250.03 436.88z"/>
   <path d="m1564.4 901.55c92.827-227.47 287.22-291.14 289.17-291.75l-1.862-5.906c-1.983 0.622-199.08 65.055-293.05 295.32z"/>
   <path d="m1896 1743.2c-115.03-277.23 164.85-568.05 167.81-570.66l-3.773-4.905c-3.151 2.281-285.81 298.24-169.76 577.94z"/>
   <path d="m1821.9 1644.1 4.176-4.579c-141.5-129.09-381.93-114.43-384.34-114.27l0.417 6.179c2.389-0.161 240.23-14.621 379.75 112.67z"/>
   <path d="m2187.7 2096.6c-59.378-97.342 19.376-265.38 20.177-267.07l-5.591-2.661c-3.337 7.004-81.005 172.74-19.873 272.96z"/>
   <path d="m2121.4 2034.3 4.336-4.424c-64.375-63.117-231.24-64.612-286.07-65.102-7.749-0.07-14.438-0.13-15.628-0.375l-1.337 6.048c1.673 0.37 6.12 0.423 16.909 0.521 54.216 0.486 219.2 1.964 281.79 63.332z"/>
  </g>
  <linearGradient id="ae" x1="-1526.6" x2="-686.58" y1="-643.67" y2="1563.6" gradientTransform="matrix(-.6023 .7982 .7982 .6023 64.776 2353.9)" gradientUnits="userSpaceOnUse">
   <stop stop-color="#FFC444" offset="0"/>
   <stop stop-color="#F36F56" offset=".9964"/>
  </linearGradient>
  <path d="m1608.9 2019.9c90.068 10.013 136.49 84.636 161.62 143.9-4.835 7.242-5.771 12.641-9.017 21-29.304 75.45-57.883 101.4-98.509 171.2-8.745 15.026-47.824 51.323-64.744 65.129l-31.955 25.235s-202.92-48.264-188.35-166.07-172.34-188.09-266.76-237.53c-57.985-30.36-74.779-62.818-94.294-77.394-206.58-154.29-312.95-131.45-349.3-222.89-40.135-100.94 77.996-157.67 40.138-269.78-42.751-126.6-222.08-139.27-235.77-268.11-2.346-22.09-4.156-44.851 4.534-73.18 21.45-69.926 86.978-95.034 66.327-168.62-41.511-147.92 16.186-308.36 173.56-325.74 155.32-17.152 288.74 208.7 283.92 556 24.729 247.38 63.198 275.48 169.67 325 74.573 34.689 299.74 79.335 304.69 222.85 4.952 143.52 31.285 267.56 134.25 279z" fill="url(#ae)"/>
  <defs>
   <path id="j" d="m1797.1 2241.7-221.18 203.03s-212.53-46.707-197.96-164.51-172.33-188.09-266.76-237.53c-256.21-134.14-47.239-396.63-360.68-596.54-83.365-53.17-262.26-125.16-278.55-241.64-18.554-132.71 97.419-147.16 70.86-241.8-41.511-147.92 16.188-308.36 173.56-325.74 155.32-17.152 288.74 208.7 283.92 556 24.728 247.38 63.198 275.48 169.66 325 74.574 34.688 299.74 79.336 304.69 222.85s31.284 267.56 134.25 279c156.67 17.416 188.19 221.88 188.19 221.88z"/>
  </defs>
  <clipPath id="ap">
   <use xlink:href="#j"/>
  </clipPath>
  <g clip-path="url(#ap)" fill="#fcfdfe" opacity=".5">
   <path d="m1689.1 2322.8-3.878 4.515c-25.127-21.178-50.183-42.869-74.471-64.469-179.82-159.94-336.91-332.13-466.92-511.79-110.16-152.23-202.45-311.94-274.32-474.7-57.796-130.89-102.76-264.44-133.63-396.96-21.701-93.158-36.273-184.84-43.302-272.51-1.228-15.277-1.624-31.035-2.006-46.276-0.509-20.305-1.036-41.301-3.539-61.32l5.686-1.139c2.538 20.294 3.069 41.432 3.582 61.874 0.38 15.165 0.774 30.845 1.989 45.967 7.007 87.392 21.534 178.8 43.175 271.7 30.795 132.19 75.65 265.43 133.31 396.01 71.719 162.42 163.83 321.81 273.77 473.75 129.78 179.36 286.63 351.27 466.17 510.97 24.255 21.572 49.275 43.232 74.37 64.383z"/>
   <path d="m970.69 1467.4-4.992 3.197c-120.6-205.06-508.72-339.38-512.62-340.71l2.208-5.458c3.925 1.338 393.84 136.27 515.41 342.97z"/>
   <path d="m1360.6 2007.4-4.631 3.729c-99.002-128.46-25.821-448.93-25.071-452.15l5.577 0.895c-0.745 3.196-73.331 321.08 24.125 447.53z"/>
   <path d="m1423.5 2074.9-3.965 4.441c-79.313-69.894-228.07-119.71-418.86-140.26-9.594-1.034-9.594-1.034-10.39-1.714l3.913-4.487-1.957 2.244 1.026-2.742c0.625 0.143 4.247 0.534 8.447 0.984 191.88 20.67 341.68 70.932 421.79 141.53z"/>
   <path d="m1643.9 2283.4-4.98 3.213c-59.756-100.61 6.09-272.61 6.761-274.34l5.318 1.724c-0.662 1.701-65.486 171.09-7.099 269.4z"/>
   <path d="m1684.4 2330.4c-89.989-30.746-193.73-35.823-317.16-15.522l-0.5-5.673c124.38-20.454 229.01-15.305 319.87 15.74z"/>
   <path d="m760.97 955.29-5.141 2.922c-60.413-118.26-152.37-226.3-182.58-261.81-7.314-8.595-9.878-11.629-10.576-12.856l5.031-3.126c0.546 0.929 4.727 5.841 10.022 12.061 30.313 35.617 122.56 144.01 183.25 262.81z"/>
   <path d="m829.65 1164.4-5.658 1.335c-20.205-125.28 131.24-344.35 137.7-353.62l4.612 3.045c-1.565 2.249-156.48 226.3-136.65 349.24z"/>
  </g>
  <linearGradient id="bu" x1="4378.5" x2="5206.9" y1="-1235.5" y2="128.24" gradientTransform="matrix(-.5322 .8466 .8466 .5322 4308.3 -2451.8)" gradientUnits="userSpaceOnUse">
   <stop stop-color="#FF9085" offset="0"/>
   <stop stop-color="#FB6FBB" offset="1"/>
  </linearGradient>
  <path d="m1918.7 1870.3c-9.553 11.665-65.59-44.277-172.43-59.905-26.692-3.905-170.8-35.298-233 56.504-12.074 17.82-24.15 35.64-36.224 53.46-50.775-9.988-96.779-28.808-77.787-93.942 29.494-101.15-113.79-191.1-179.78-198.55-81.664-9.22-271.16-34.67-227.96-191.63 35.966-130.67 85.178-209.06-45.564-299.18-130.74-90.12-166.65-219.13-77.69-343.17 93.617-130.54-8.83-346.47 118.53-422.64 221.92-132.7 410.64 224.35 349.4 512.52-61.229 288.18 104.51 202.23 219.46 263.3 10.35 6.273 25.911 16.798 41.921 32.706 98.562 97.943 43.186 230.22 83.452 374.91 54.914 197.32 253.75 295.96 237.66 315.61z" fill="url(#bu)"/>
  <defs>
   <path id="z" d="m1703.6 1635.8-187.71 294.32c-50.643-7.436-137.86-30.891-116.65-103.65 29.494-101.15-113.79-191.1-179.78-198.55-81.664-9.219-271.16-34.67-227.96-191.63 35.966-130.67 85.179-209.05-45.564-299.17-130.74-90.12-166.65-219.13-77.689-343.17 93.617-130.54-8.832-346.47 118.53-422.64 221.92-132.71 410.63 224.34 349.4 512.52-61.23 288.18 104.5 202.23 219.46 263.3 156.93 83.37-10.163 278.46 13.763 371.34 18.757 72.815 88.314 103.68 134.19 117.32z"/>
  </defs>
  <clipPath id="bi">
   <use xlink:href="#z"/>
  </clipPath>
  <g clip-path="url(#bi)" fill="#fcfdfe" opacity=".5">
   <path d="m1571.1 1747-5.164 5.532c-378.59-359.98-572.05-914.45-504.9-1447l7.254 0.526c-66.872 530.33 125.79 1082.5 502.81 1441z"/>
   <path d="m1382.3 1531.9-4.04 6.396c-175.16-107.31-411.08-33.669-413.45-32.912l-1.84-7.05c2.393-0.769 241.41-75.43 419.33 33.566z"/>
   <path d="m1503.4 1678.8-6.451 3.854c-100.4-184.18 91.345-536.16 93.295-539.7l6.339 3.325c-1.928 3.495-191.67 351.84-93.183 532.52z"/>
   <path d="m1146.4 1072.4-6.133 4.384c-92.08-137.98-346.86-171.33-349.42-171.65l1.296-7.349c2.594 0.323 260.48 34.092 354.26 174.62z"/>
   <path d="m1069.6 742.38-7.312 0.168c6.591-194.93 193.42-388.64 195.31-390.58l5.059 5.05c-1.869 1.909-186.57 193.47-193.06 385.36z"/>
  </g>
  <path d="m2983.6 2113.6v-1235.4c0-25.333-21.015-28.241-46.599-29.27l-2122.3-103.97c-32.297-1.298-58.802 21.019-58.802 49.599v1365.3z" fill="#97a6b7"/>
  <path d="m755.93 2159.8v272.66c0 28.581 26.505 50.843 58.802 49.477l2112.8-107.93c25.584-1.081 56.072-4.487 56.072-29.819v-238.57z" fill="#97a6b7"/>
  <path d="m2232.7 2665.7c-38.247-12.686-66.833-45.146-74.894-85.042l-55.668-275.52-476.19 16.91-58.605 287.02c-8.208 40.198 24.648 80.525 62.488 95.331l199.23 77.951c37.056 14.499 76.887 20.273 116.48 16.886l421.04-36.02c12.308-1.053 22.181-10.728 23.613-23.14 1.433-12.412 10.056-26.349-1.681-30.242z" fill="#97a6b7"/>
  <path d="m2237.4 2648.9c-38.208-12.527-66.766-44.579-74.819-83.974l-55.612-272.05-464.59 16.715-58.547 283.42c-8.199 39.692 13.495 79.495 51.297 94.115l199.03 76.971c37.018 14.316 76.81 20.018 116.36 16.674l420.62-35.567c12.295-1.04 22.159-10.594 23.59-22.85s-5.966-23.825-17.691-27.669z" fill="#d8dee8"/>
  <path d="m2999.1 878.16v1235.4l-2230.1 46.253v-1365.3c0-28.552 27.06-50.889 59.37-49.589l179.3 7.199 1944.2 78.142c25.602 1.019 47.258 22.583 47.258 47.905z" fill="#d8dee8"/>
  <linearGradient id="br" x1="835.78" x2="2948.4" y1="1541.2" y2="1541.2" gradientUnits="userSpaceOnUse">
   <stop stop-color="#FF9085" offset="0"/>
   <stop stop-color="#FB6FBB" offset="1"/>
  </linearGradient>
  <path d="m835.78 984.52v1066.5c0 26.62 24.607 47.701 54.598 46.847l2014.3-57.286c24.041-0.684 43.661-20.667 43.661-44.41v-951.19z" fill="url(#br)"/>
  <linearGradient id="cb" x1="3123.4" x2="1581.8" y1="-121.32" y2="1212.3" gradientUnits="userSpaceOnUse">
   <stop stop-color="#311944" offset="0"/>
   <stop stop-color="#893976" offset="1"/>
  </linearGradient>
  <path d="m2948.4 1045v-109.16c0-23.256-19.218-43-42.765-43.879l-2016.3-75.222c-29.38-1.096-53.483 19.339-53.483 45.414v122.39z" fill="url(#cb)"/>
  <g fill="#fff">
   <path d="m983.18 901.49c0 9.164-8.353 16.329-18.67 16.003-10.332-0.327-18.72-8.041-18.72-17.231 0-9.189 8.388-16.354 18.72-16.002 10.317 0.352 18.67 8.066 18.67 17.23z"/>
   <path d="m1063.6 904.13c0 9.111-8.255 16.236-18.451 15.913-10.212-0.323-18.502-7.991-18.502-17.127 0-9.135 8.29-16.259 18.502-15.911 10.196 0.347 18.451 8.014 18.451 17.125z"/>
   <path d="m1143.2 906.74c0 9.058-8.159 16.143-18.237 15.824-10.093-0.319-18.286-7.941-18.286-17.023s8.193-16.166 18.286-15.823c10.078 0.343 18.237 7.964 18.237 17.022z"/>
  </g>
  <linearGradient id="bb" x1="768.99" x2="2999.1" y1="2293.8" y2="2293.8" gradientUnits="userSpaceOnUse">
   <stop stop-color="#fff" offset="0"/>
   <stop stop-color="#EBEFF2" offset=".9964"/>
  </linearGradient>
  <path d="m2999.1 2105.6v238.57c0 25.322-21.511 46.921-47.114 48.009l-77.272 3.266-2046.2 86.465c-32.309 1.37-59.532-20.896-59.532-49.484v-283.17l913.33-8.148z" fill="url(#bb)"/>
  <path d="m2874.4 2395.5-2046 86.465c-32.309 1.37-59.37-20.896-59.37-49.484v-1638c0-28.552 27.06-50.889 59.37-49.589l179.3 7.199c27.499 18.438 52.122 41.196 71.789 68.238 0.878 1.194 1.794 2.388 2.602 3.582 15.276 21.704 26.165 44.356 33.786 67.676 3.371 10.185 6.094 20.474 8.306 30.905 4.953 23.074 7.385 46.639 8.403 70.521 2.178 50.468-1.787 102.27-1.577 153.3 0.422 103.43 6.887 206.79 75.51 290.06 50.819 61.671 133.6 85.096 202.29 120.95 80.179 41.863 150.53 97.388 191.26 179.85 50.012 101.22 3.056 211.14 35.016 315.69 2.457 8.078 5.373 15.945 8.71 23.565 9.658 22.231 22.792 42.601 38.492 61.179 0.878 1.089 1.79 2.142 2.739 3.196 61.145 70.275 159.02 114.18 243.87 135.42 174.12 43.549 354.71-31.924 527.57-37.859 124.54-4.25 296.76 23.846 388.36 117.51 11.062 11.311 21.001 24.762 29.607 39.583z" fill="#fff" opacity=".54"/>
  <linearGradient id="g" x1="2679.6" x2="2815.9" y1="3189.4" y2="-595.72" gradientUnits="userSpaceOnUse">
   <stop stop-color="#444B8C" offset="0"/>
   <stop stop-color="#26264F" offset=".8469"/>
  </linearGradient>
  <path d="m3124.7 712.35v371.1c0 40.095-24.643 77.208-67.073 107.53-10.168 7.257-21.196 14.155-33.303 20.586-66.033 35.208-158.98 57.124-261.98 57.124s-196.03-21.915-262.06-57.124c-62.478-33.269-100.82-78.393-100.82-128.12v-371.1z" fill="url(#g)"/>
  <linearGradient id="al" x1="2720.5" x2="2733.7" y1="1267.6" y2="902.9" gradientUnits="userSpaceOnUse">
   <stop stop-color="#AA80F9" offset="0"/>
   <stop stop-color="#6165D7" offset=".9964"/>
  </linearGradient>
  <path d="m3057.9 1191c-10.168 7.257-21.341 14.155-33.448 20.586-66.034 35.208-159.05 57.124-262.05 57.124s-196.07-21.915-262.1-57.124c-62.478-33.269-100.86-78.393-100.86-128.12v-192.57c51.803 22.49 123.14 66.537 136.5 137.71 20.909 111.37 173.98 149.1 326.17 123.95 67.041-11.102 137.23 6.323 195.79 38.442z" fill="url(#al)" opacity=".3"/>
  <linearGradient id="bg" x1="2826" x2="2750.9" y1="351.39" y2="911.99" gradientUnits="userSpaceOnUse">
   <stop stop-color="#444B8C" offset="0"/>
   <stop stop-color="#26264F" offset=".9964"/>
  </linearGradient>
  <polygon points="2226.6 746.88 2206.1 746.88 2206.1 755.63 2206.1 755.63 2772.4 1035.2 3338.8 755.63 3338.8 755.63 3338.8 746.88 3315.2 746.88 2770.9 478.06" fill="url(#bg)"/>
  <linearGradient id="p" x1="2767.7" x2="2789.5" y1="948.72" y2="-459.7" gradientUnits="userSpaceOnUse">
   <stop stop-color="#444B8C" offset="0"/>
   <stop stop-color="#26264F" offset=".9964"/>
  </linearGradient>
  <polygon points="2770.9 1024.4 3337 744.85 2770.9 465.26 2204.7 744.85" fill="url(#p)"/>
  <linearGradient id="y" x1="3378.8" x2="2718.6" y1="363.98" y2="1512.2" gradientUnits="userSpaceOnUse">
   <stop stop-color="#FFC444" offset="0"/>
   <stop stop-color="#F36F56" offset=".9964"/>
  </linearGradient>
  <path d="m3333.6 1133c-4.152 0-8.634-3.366-8.634-7.518v-366.5c0-8.291-4.546-15.587-12.837-15.587h-541.29c-4.152 0-7.518-2.755-7.518-6.907s3.366-6.907 7.518-6.907h541.29c16.582 0 30.104 12.82 30.104 29.401v366.5c1e-3 4.152-4.481 7.518-8.633 7.518z" fill="url(#y)"/>
  <linearGradient id="r" x1="3306.5" x2="3349.7" y1="1395.8" y2="991.85" gradientUnits="userSpaceOnUse">
   <stop stop-color="#FFC444" offset="0"/>
   <stop stop-color="#F36F56" offset=".9964"/>
  </linearGradient>
  <path d="m3353.1 1066.4-6.622-11.381c-2.446-4.317-7.141-6.953-12.102-6.872-4.961 0.08-9.525 2.864-11.83 7.258l-5.937 11.845c-1.501 2.863-2.01 6.047-2.01 9.279v99.703c0 2.141 9.303 3.876 20.721 3.876s20.721-1.735 20.721-3.876v-99.985c1e-3 -3.451-1.239-6.843-2.941-9.847z" fill="url(#r)"/>
  <defs>
   <polygon id="bx" points="2954.8 1253.3 2505.2 542.56 966.07 757.77 942.57 2034.4 1357.8 2085.6 2252.4 2058.6"/>
  </defs>
  <clipPath id="a">
   <use xlink:href="#bx"/>
  </clipPath>
  <g clip-path="url(#a)">
   <linearGradient id="au" x1="1398.8" x2="1341.1" y1="311.42" y2="540.57" gradientTransform="matrix(-.3992 -.9169 -.9169 .3992 3664.4 2400.7)" gradientUnits="userSpaceOnUse">
    <stop stop-color="#FFC444" offset="0"/>
    <stop stop-color="#F36F56" offset=".9964"/>
   </linearGradient>
   <path d="m2721.1 1306.4s17.334-21.471 49.832-22.819c32.468-1.347 76.664-21.593 95.626-23.526 4.573-0.467 6.841-1.841 7.229-3.562 0.8-3.544-20.247-8.491-38.926-8.943-33.146-0.804-52.493 12.474-56.968 5.793-5.004-7.47 16.412-28.203 12.49-32.761-3.04-3.533-17.602 8.046-33.196 15.175-11.072 5.062-54.412 58.725-54.412 58.725z" fill="url(#au)"/>
   <linearGradient id="bw" x1="2654.6" x2="2253.6" y1="1027.6" y2="1431.5" gradientUnits="userSpaceOnUse">
    <stop stop-color="#AA80F9" offset="0"/>
    <stop stop-color="#6165D7" offset=".9964"/>
   </linearGradient>
   <path d="m2744.8 1297.9c-2.652 128.85-65.12 245.89-165.15 303.52-4.138 2.385-8.363 4.686-12.644 6.871-182.77 93.308-365.91-64.586-387.94-84.228-5.706-5.063-32.982-30.028-61.429-71.458-32.062-46.597-65.591-114.08-71.374-197.34-2.36-34.074-9.555-137.97 44.313-169.47 55.448-32.424 143.69 30.46 179.53 55.991 151.59 108.01 155.24 240.61 238.61 254.08 37.357 6.031 96.719-10.92 185.89-131.7 16.75 11.253 33.465 22.5 50.199 33.742z" fill="url(#bw)"/>
   <linearGradient id="by" x1="2314" x2="2391.4" y1="1584.6" y2="1405.9" gradientUnits="userSpaceOnUse">
    <stop stop-color="#AA80F9" offset="0"/>
    <stop stop-color="#6165D7" offset=".9964"/>
   </linearGradient>
   <path d="m2579.6 1601.4c-4.138 2.385-8.363 4.686-12.644 6.871-182.77 93.308-365.91-64.586-387.94-84.228-5.706-5.063-32.982-30.028-61.429-71.458 8.844-40.046 20.871-93.127 20.871-93.127s78.435-9.745 115.64 83.214c13.443 33.587 29.68 66.306 57.167 89.872 27.721 23.806 49.176 20.178 84.126 14.731 32.154-4.996 65.757 19.525 93.618 31.339 28.83 12.225 58.746 24.832 90.592 22.786z" fill="url(#by)" opacity=".3"/>
  </g>
  <linearGradient id="m" x1="904.73" x2="1027.4" y1="3210.3" y2="3210.3" gradientTransform="matrix(-.996 .0897 .0897 .996 2456.5 -160.45)" gradientUnits="userSpaceOnUse">
   <stop stop-color="#444B8C" offset="0"/>
   <stop stop-color="#26264F" offset=".9964"/>
  </linearGradient>
  <path d="m1728.6 3097.8c-6.373 5.933-6.777 20.109-7.039 29.375-0.12 4.139-0.178 6.21 0.352 7.649 3.865 10.495 23.792 10.799 55.146 12.829 49.575 3.209 64.478 6.633 67.891-1.13 3.196-7.277-6.24-18.592-7.299-19.838-5.704-6.699-12.352-8.949-25.169-12.723-23.71-6.979-39.666-10.677-44.496-11.798-30.158-6.995-35.201-8.259-39.386-4.364z" clip-path="url(#a)" fill="url(#m)"/>
  <linearGradient id="n" x1="486.66" x2="542.56" y1="3156.8" y2="3041.1" gradientTransform="matrix(-.9976 .0694 .0694 .9976 2040.6 -60.669)" gradientUnits="userSpaceOnUse">
   <stop stop-color="#FFC444" offset="0"/>
   <stop stop-color="#F36F56" offset=".9964"/>
  </linearGradient>
  <path d="m1763.3 3047.4 1.932 58.479c-1.544 2.698-18.662 9.822-31.539 1.58l-9.716-58.073z" clip-path="url(#a)" fill="url(#n)"/>
  <linearGradient id="bv" x1="413.81" x2="544.53" y1="3304.3" y2="3304.3" gradientTransform="matrix(-.977 .2133 .2133 .977 1968.1 -210.66)" gradientUnits="userSpaceOnUse">
   <stop stop-color="#444B8C" offset="0"/>
   <stop stop-color="#26264F" offset=".9964"/>
  </linearGradient>
  <path d="m2147 3098.9c-8.563 8.596-11.285 25.427-4.685 34.333 6.486 8.758 17.201 3.395 46.643 6.583 31.549 3.419 39.405 11.76 61.207 7.308 8.81-1.803 24.456-6.622 24.497-13.041 0.028-4.513-7.659-7.438-33.265-18.46-36.33-15.638-36.132-16.323-43.915-18.271-19.548-4.89-39.17-9.801-50.482 1.548z" clip-path="url(#a)" fill="url(#bv)"/>
  <linearGradient id="k" x1="258.59" x2="315.78" y1="3246.5" y2="3128.1" gradientTransform="matrix(-.9894 .1453 .1453 .9894 1974.6 -128.67)" gradientUnits="userSpaceOnUse">
   <stop stop-color="#FFC444" offset="0"/>
   <stop stop-color="#F36F56" offset=".9964"/>
  </linearGradient>
  <path d="m2170 3047.3 13.03 55.611c-1.348 2.824-17.958 11.314-31.46 4.084l-20.788-54.591z" clip-path="url(#a)" fill="url(#k)"/>
  <linearGradient id="ah" x1="2632.4" x2="2270.5" y1="2763" y2="1947.1" gradientTransform="matrix(.9986 .0533 -.0533 .9986 -237.58 -19.3)" gradientUnits="userSpaceOnUse">
   <stop stop-color="#311944" offset="0"/>
   <stop stop-color="#893976" offset="1"/>
  </linearGradient>
  <path d="m2090.9 1846c-7.18 182.92-5.73 389.24 11.698 614.55 17.227 222.74 47.06 425.13 81.798 603.81-20.505 4.06-41.003 8.118-61.496 12.174-48.68-53.26-109.25-135.81-134.72-247.83-15.806-69.507-7.559-104-15.491-188.62-12.626-134.72-48.531-207.42-83.8-317.81-31.679-99.152-67.685-243.86-81.135-434.77 94.262-13.819 188.64-27.656 283.15-41.51z" clip-path="url(#a)" fill="url(#ah)"/>
  <linearGradient id="ao" x1="2578.2" x2="2216.4" y1="2786.7" y2="1971" gradientTransform="matrix(.9986 .0533 -.0533 .9986 -237.58 -19.3)" gradientUnits="userSpaceOnUse">
   <stop stop-color="#311944" offset="0"/>
   <stop stop-color="#893976" offset="1"/>
  </linearGradient>
  <path d="m2062.6 2700.8c-22.54-92.733-65.945-117.94-67.49-205.06-1.093-61.625 20.311-66.291 18.891-125.29-2.155-89.491-52.8-137.21-78.23-193.85-26.848-59.804-37.132-155.34 35.237-313.01-54.465 7.985-108.89 15.965-163.28 23.936 13.45 190.92 49.456 335.62 81.135 434.77 35.27 110.39 71.174 183.09 83.8 317.81 7.932 84.621-0.315 119.11 15.491 188.62 25.476 112.02 86.043 194.57 134.72 247.84 5.212-1.032 10.424-2.063 15.636-3.095-52.634-66.071-71.197-124.44-75.919-171.58-7.679-76.688 22.733-107.54 0-201.07z" clip-path="url(#a)" fill="url(#ao)" opacity=".3"/>
  <linearGradient id="bz" x1="2007.9" x2="1647.2" y1="2972.6" y2="2159.4" gradientTransform="matrix(.9976 -.0694 .0694 .9976 -160.89 92.986)" gradientUnits="userSpaceOnUse">
   <stop stop-color="#311944" offset="0"/>
   <stop stop-color="#893976" offset="1"/>
  </linearGradient>
  <path d="m1886.4 1831.8c-24.303 231.24-46.633 466.89-66.719 706.82-15.071 180-28.49 357.8-40.368 533.33-20.669 1.039-41.334 2.081-61.992 3.119-17.854-39.742-41.167-100.18-55.335-176.43-17.206-92.582-9.353-146.2-14.095-241.15-5.323-106.49-19.78-130.67-40.614-266.01-42.268-274.55-63.394-411.76 3.631-491.55 21.77-25.919 89.179-90.096 275.49-68.139z" clip-path="url(#a)" fill="url(#bz)"/>
  <linearGradient id="bp" x1="1569.1" x2="2120.2" y1="1976.5" y2="703.08" gradientUnits="userSpaceOnUse">
   <stop stop-color="#AA80F9" offset="0"/>
   <stop stop-color="#6165D7" offset=".9964"/>
  </linearGradient>
  <path d="m1352.2 1107.1c111.1-38.21 280.96-80.255 489.22-69.729 120.92 6.111 237.24 20.26 319.82 44.855 11.172 64.671 10.18 137.54 21.359 202.24 2.57 64.796 3.399 152.55-3.645 256.14-7.043 103.57-13.937 105.05-30.067 251.15-26.29 238.14-15.296 300.6-61.659 328.55-30.14 18.165-41.038-4.483-194.62-22.561-102.81-12.102-155.22-17.791-207.19-0.345-70.71 23.734-94.356 65.008-123.5 51.011-27.933-13.421-31.489-63.51-34.862-150.79-5.202-134.64-4.882-226.09-5.362-258.84-2.202-150.23-38.841-265.32-85.74-412.63-29.317-92.087-60.184-166.65-83.758-219.05z" clip-path="url(#a)" fill="url(#bp)"/>
  <g clip-path="url(#a)">
   <linearGradient id="l" x1="2023.4" x2="2037.4" y1="509.26" y2="134.79" gradientTransform="matrix(.8944 .4471 -.4471 .8944 171.03 -183)" gradientUnits="userSpaceOnUse">
    <stop stop-color="#FFC444" offset="0"/>
    <stop stop-color="#FFC244" offset=".463"/>
    <stop stop-color="#FEBB46" offset=".6297"/>
    <stop stop-color="#FCB048" offset=".7486"/>
    <stop stop-color="#FA9F4C" offset=".8447"/>
    <stop stop-color="#F78951" offset=".9261"/>
    <stop stop-color="#F36F56" offset=".9964"/>
   </linearGradient>
   <path d="m1827.6 888.17c-1.644 37.833-7.265 67.566-12.18 87.861-5.629 23.251-9.123 29.129-13.437 33.805-6.492 7.04-16.074 12.683-69.058 22.812-28.816 5.507-32.464 5.077-33.244 7.959-3.796 14.069 71.264 67.613 152.09 60.994 49.512-4.053 95.749-30.238 93.79-45.654-1.973-15.516-51.511-10.389-64.713-39.055-9.181-19.938 3.641-46.619 18.301-68.465-11.758-26.146-59.801-34.127-71.548-60.257z" fill="url(#l)"/>
   <linearGradient id="bo" x1="-211.35" x2="-307.09" y1="1067.5" y2="824.35" gradientTransform="matrix(-.9515 -.3078 -.3078 .9515 1860.3 -28.937)" gradientUnits="userSpaceOnUse">
    <stop stop-color="#444B8C" offset="0"/>
    <stop stop-color="#26264F" offset=".9964"/>
   </linearGradient>
   <path d="m1920 927.74c15.962-11.468 25.276-37.75 18.037-58.788-6.229-18.101-22.746-25.946-32.632-30.645-28.641-13.609-70.431-13.36-92.766 10.694-13.231 14.253-7.893 54.943-7.322 62.128 0.651 8.126 5.239 12.388 8.468 19.456 4.472 9.802 11.415 25.332 22.593 51.164 3.281-5.4 7.73-11.952 13.604-18.701 2.261-2.599 11.236-12.695 22.183-19.885 21.936-14.419 32.706-4.557 47.835-15.423z" fill="url(#bo)"/>
   <linearGradient id="az" x1="1747.9" x2="1743.4" y1="950.34" y2="1307.5" gradientTransform="matrix(.9685 .249 -.249 .9685 410.64 -444.92)" gradientUnits="userSpaceOnUse">
    <stop stop-color="#FFC444" offset="0"/>
    <stop stop-color="#F36F56" offset=".9964"/>
   </linearGradient>
   <path d="m1816.7 956.53s8.718 39.973 48.574 50.526c35.703 9.452 67.305-70.146 50.603-94.933-5.573-8.27-19.704-15.69-32.972-16.252-7.836-0.331-11.266 1.938-24.054 1.135-11.796-0.736-14.451-3.017-18.654-1.264-5.257 2.198-11.112 9.953-12.013 36.02-4.381-9.247-11.497-14.633-18.063-13.771-1.048 0.141-3.994 1.024-6.178 3.134-7.9 7.634-3.596 22.246 12.757 35.405z" fill="url(#az)"/>
   <linearGradient id="e" x1="-240.07" x2="-337.23" y1="1080.8" y2="834.07" gradientTransform="matrix(-.9515 -.3078 -.3078 .9515 1860.3 -28.937)" gradientUnits="userSpaceOnUse">
    <stop stop-color="#444B8C" offset="0"/>
    <stop stop-color="#26264F" offset=".9964"/>
   </linearGradient>
   <path d="m1840.2 890.35c1.259 1.871-6.009 6.655-9.398 15.756-6.58 17.661 3.882 45.065 21.107 52.908 10.187 4.636 15.231-0.978 33.276 2.996 11.177 2.462 19.695 6.921 24.93 10.112-0.924 21.51-12.461 39.368-28.083 44.181-16.815 5.18-32.286-6.643-38.752-11.587-4.324-3.306-18.196-13.865-21.509-31.465-3.451-18.338 7.915-24.848 1.583-38.6-3.194-6.935-8.9-11.399-11.855-23.735-0.801-3.35-1.14-6.191-1.299-8.076 12.23-6.868 28.177-15.2 30-12.49z" fill="url(#e)"/>
   <linearGradient id="bc" x1="-333.49" x2="-328.56" y1="933.14" y2="977.12" gradientTransform="matrix(-.9515 -.3078 -.3078 .9515 1860.3 -28.937)" gradientUnits="userSpaceOnUse">
    <stop stop-color="#FFC444" offset="0"/>
    <stop stop-color="#F36F56" offset="1"/>
   </linearGradient>
   <path d="m1895 975.13s-8.877 1.544-21.667-3.623c-0.621-0.252-1.383-0.295-1.575 0.019-0.717 1.182 5.771 9.764 14.209 10.12 5.993 0.249 12.002-3.688 11.711-5.305-0.124-0.681-1.386-1.023-2.678-1.211z" fill="url(#bc)"/>
  </g>
  <linearGradient id="bf" x1="1510.1" x2="1535.7" y1="1713.1" y2="1791.1" gradientUnits="userSpaceOnUse">
   <stop stop-color="#FFC444" offset="0"/>
   <stop stop-color="#F36F56" offset=".9964"/>
  </linearGradient>
  <path d="m1454.7 1738.1 36.813-1.667s40.356-34.543 58.731-32.127c18.379 2.416 45.883 15.995 49.237 18.815 3.355 2.819-10.065 18.201-23.48 16.519-13.413-1.683-43.336 5.445-48.686 17.632-5.349 12.186-28.562 19.288-32.505 12.05l-49.485 9.557z" clip-path="url(#a)" fill="url(#bf)"/>
  <linearGradient id="i" x1="1163" x2="1709.5" y1="1790.4" y2="527.61" gradientUnits="userSpaceOnUse">
   <stop stop-color="#AA80F9" offset="0"/>
   <stop stop-color="#6165D7" offset=".9964"/>
  </linearGradient>
  <path d="m1465.9 1724.9c2.577 31.386-4.001 52.594-14.976 67.051-48.625 64.059-213.64 35.408-311.54-52.394-72.38-64.916-110.68-164.73-109.26-253.73 2.76-173.67 157.51-342.53 388.32-399.5 34.227 106.54 68.471 213.13 102.73 319.78-142.58 0.773-229.07 111.36-216.25 191.09 9.553 59.412 76.127 113.58 160.98 127.7z" clip-path="url(#a)" fill="url(#i)"/>
  <linearGradient id="ay" x1="1668.7" x2="2220.2" y1="2019.5" y2="745.35" gradientUnits="userSpaceOnUse">
   <stop stop-color="#AA80F9" offset="0"/>
   <stop stop-color="#6165D7" offset=".9964"/>
  </linearGradient>
  <path d="m2027.5 2041.2c-75.562-34.458-75.124-103.46-145.63-133.23-100.49-42.438-211.35 51.355-228.65 24.689-17.993-27.74 114.37-110.28 96.751-193.71-14.002-66.289-106.38-55.709-155.81-146.73-46.861-86.283-1.43-165.07-42.925-195.3-14.875-10.84-41.107-15.325-90.818 6.872 34.659 112.75 59.522 212.15 61.323 335.05 0.479 32.744 0.159 124.2 5.362 258.84 3.373 87.282 6.929 137.37 34.862 150.79 29.14 13.998 52.787-27.277 123.5-51.011 51.969-17.446 104.38-11.757 207.19 0.345 153.59 18.078 164.48 40.726 194.62 22.561 19.635-11.834 28.972-29.936 35.221-64.889-30.848 2.981-63.559 0.066-94.994-14.267z" clip-path="url(#a)" fill="url(#ay)" opacity=".3"/>
  <linearGradient id="be" x1="1784.9" x2="1908.7" y1="1188.3" y2="2508.6" gradientUnits="userSpaceOnUse">
   <stop stop-color="#311944" offset="0"/>
   <stop stop-color="#893976" offset="1"/>
  </linearGradient>
  <path d="m2766.5 1992.3-1812.1 35.111c-3.078 0.06-5.645-2.41-5.704-5.487l-0.561-28.963c-0.06-3.078 2.41-5.645 5.487-5.704l1812.1-35.111c3.078-0.06 5.645 2.41 5.704 5.487l0.561 28.963c0.06 3.078-2.409 5.645-5.487 5.704z" fill="url(#be)"/>
  <linearGradient id="t" x1="2195.2" x2="2578.6" y1="1919.4" y2="2300" gradientUnits="userSpaceOnUse">
   <stop stop-color="#FFC444" offset="0"/>
   <stop stop-color="#F36F56" offset=".9964"/>
  </linearGradient>
  <circle cx="2258.8" cy="1982.5" r="43.843" fill="url(#t)"/>
  <path d="m2421.9 2953.6c5.135 0 9.298-4.163 9.298-9.298v-729.96c0-2.337-8.213-4.233-18.338-4.233-10.133 0-18.346 1.896-18.346 4.233v729.96c0 5.135 4.163 9.298 9.298 9.298z" fill="#b7c0ce"/>
  <polygon points="1138.3 2287.2 1793.5 2360.8 2989.9 2297.4 2989.9 2265.5 2439 2205.1 1138.3 2264.2" fill="#d8dee8" opacity=".8"/>
  <polygon points="1138.3 2322.7 1793.5 2396.4 2989.9 2332.9 2989.9 2297.4 1793.5 2360.8 1138.3 2287.2" fill="#b7c0ce"/>
  <path d="m1830.7 3127.5c5.135 0 9.298-4.163 9.298-9.298v-729.96c0-2.337-8.213-4.233-18.338-4.233-10.133 0-18.346 1.896-18.346 4.233v729.96c0 5.135 4.163 9.298 9.298 9.298z" fill="#b7c0ce"/>
  <linearGradient id="bj" x1="1659.7" x2="1703.4" y1="3033.5" y2="3072.3" gradientTransform="matrix(-.9902 -.14 -.14 .9902 3687.3 206.94)" gradientUnits="userSpaceOnUse">
   <stop stop-color="#444B8C" offset="0"/>
   <stop stop-color="#26264F" offset=".9964"/>
  </linearGradient>
  <path d="m1606.9 2998.1c-1.242-6.844-23.344-13.039-34.287-3.872-5.434 4.551-9.176 13.778-6.032 17.945 1.144 1.516-3.541 4.182 0.947 4.234 14.889 0.174 40.608-11.506 39.372-18.307z" fill="url(#bj)"/>
  <linearGradient id="ac" x1="1412.2" x2="1412.2" y1="3473.2" y2="3397.1" gradientTransform="matrix(-.9988 .0498 .0498 .9988 2810.9 -528.79)" gradientUnits="userSpaceOnUse">
   <stop stop-color="#FFC444" offset="0"/>
   <stop stop-color="#F36F56" offset=".9964"/>
  </linearGradient>
  <path d="m1582.8 2998.1-22.928 1.143c7.943-14.441-1.607-53.72-1.607-53.72l24.758 0.727s-0.609 11.403-2.119 28.343c-0.517 5.798 0.436 14.533 1.896 23.507z" fill="url(#ac)"/>
  <linearGradient id="bq" x1="1664.1" x2="1707.7" y1="3028.5" y2="3067.4" gradientTransform="matrix(-.9902 -.14 -.14 .9902 3687.3 206.94)" gradientUnits="userSpaceOnUse">
   <stop stop-color="#444B8C" offset="0"/>
   <stop stop-color="#26264F" offset=".9964"/>
  </linearGradient>
  <path d="m1585.8 2997.8s-27.365-6.305-30.325-0.877c-2.961 5.429-5.259 19.963 12.103 19.494 17.363-0.469 19.765-14.014 18.222-18.617z" fill="url(#bq)"/>
  <linearGradient id="bl" x1="1828.6" x2="1872.2" y1="3004.7" y2="3043.5" gradientTransform="matrix(-1 0 0 1 3584.5 0)" gradientUnits="userSpaceOnUse">
   <stop stop-color="#444B8C" offset="0"/>
   <stop stop-color="#26264F" offset=".9964"/>
  </linearGradient>
  <path d="m1746.5 3026c-2.189-6.602-24.94-9.643-34.493 0.965-4.742 5.267-7.157 14.926-3.46 18.611 1.345 1.342-2.92 4.638 1.531 4.061 14.766-1.91 38.596-17.077 36.422-23.637z" fill="url(#bl)"/>
  <linearGradient id="aq" x1="1652.7" x2="1652.7" y1="3372.7" y2="3296.7" gradientTransform="matrix(-.9813 .1926 .1926 .9813 2684.3 -582.01)" gradientUnits="userSpaceOnUse">
   <stop stop-color="#FFC444" offset="0"/>
   <stop stop-color="#F36F56" offset=".9964"/>
  </linearGradient>
  <path d="m1719.6 3032.3-22.526 4.421c5.789-15.431-9.298-52.934-9.298-52.934l24.606-2.833s1.033 11.373 1.969 28.354c0.321 5.813 2.517 14.322 5.249 22.992z" fill="url(#aq)"/>
  <linearGradient id="ab" x1="1833" x2="1876.6" y1="2999.7" y2="3038.6" gradientTransform="matrix(-1 0 0 1 3584.5 0)" gradientUnits="userSpaceOnUse">
   <stop stop-color="#444B8C" offset="0"/>
   <stop stop-color="#26264F" offset=".9964"/>
  </linearGradient>
  <path d="m1725.5 3028.6s-27.979-2.412-30.15 3.377c-2.171 5.788-2.413 20.501 14.713 17.607 17.126-2.893 17.608-16.642 15.437-20.984z" fill="url(#ab)"/>
  <path d="m1600.9 2415 96.674-226.46c4.83-11.314-1.656-24.257-13.61-27.16l-177.08-43.006c-9.571-2.324-19.402 2.699-23.127 11.816l-88.918 217.65c-4.428 10.838 1.409 23.139 12.604 26.565l169.33 51.809c9.729 2.976 20.137-1.863 24.132-11.221z" fill="#26264f"/>
  <linearGradient id="ak" x1="-562.62" x2="-648.48" y1="2278.5" y2="2109.1" gradientTransform="matrix(-1 0 0 1 975.4 0)" gradientUnits="userSpaceOnUse">
   <stop stop-color="#FF9085" offset="0"/>
   <stop stop-color="#FB6FBB" offset="1"/>
  </linearGradient>
  <path d="m1596.5 2404.1 90.3-211.52c4.511-10.568-1.547-22.658-12.714-25.37l-165.41-40.171c-8.939-2.171-18.122 2.521-21.601 11.037l-83.056 203.3c-4.136 10.124 1.315 21.613 11.773 24.813l158.17 48.394c9.088 2.781 18.81-1.739 22.542-10.48z" fill="url(#ak)"/>
  <linearGradient id="as" x1="1645.7" x2="1706.8" y1="2233" y2="2569.7" gradientUnits="userSpaceOnUse">
   <stop stop-color="#FFC444" offset="0"/>
   <stop stop-color="#F36F56" offset=".9964"/>
  </linearGradient>
  <path d="m1652.2 2342 2.9-26.684 15.375-29.31c2.094-3.991 3.188-8.431 3.188-12.939v-29.104l-18.563 42.927s-12.182-11.022-16.823-13.343c-4.641-2.32-4.06 6.961-0.58 10.442 3.48 3.48-1.74 31.905 1.74 34.805l-1.16 17.403z" fill="url(#as)"/>
  <linearGradient id="an" x1="1299.9" x2="1158.8" y1="2190.9" y2="2600.3" gradientUnits="userSpaceOnUse">
   <stop stop-color="#AA80F9" offset="0"/>
   <stop stop-color="#6165D7" offset=".9964"/>
  </linearGradient>
  <path d="m1388.7 2052c-54.084-52.649-145.66-62.346-214.58-36.917-111.91 41.293-141.81 166.99-150.58 203.84-19.097 80.277 14.264 73.923 7.175 223.32-4.779 100.71-23.409 167.33 19.724 208.83 9.855 9.483 20.878 14.444 42.926 24.365 87.44 39.344 165.84 32.561 213.48 27.844 52.421-5.189 78.915-8.163 92.816-26.685 22.204-29.584-0.653-67.186-4.64-132.26-3.951-64.492 14.545-92.365 29.005-157.78 14.651-66.29 54.593-247.02-35.33-334.55z" fill="url(#an)"/>
  <linearGradient id="q" x1="1457.8" x2="1133.5" y1="2065.4" y2="2172.1" gradientUnits="userSpaceOnUse">
   <stop stop-color="#FFC444" offset="0"/>
   <stop stop-color="#F36F56" offset=".9964"/>
  </linearGradient>
  <path d="m1467.1 2078.9c18.133-7.442 26.206-25.5 27.916-29.427 7.165-16.442 7.515-19.493 7.156-24.387l-0.734-6.619s-0.098-0.339-0.214-0.688c0 0-2.838-8.739-10.522-15.315-6.225-5.33-40.693 6.743-81.476 35.919-5.287 2.871-10.574 5.74-15.861 8.61-3.191-0.422-7.965-1.133-13.695-2.31-38.197-7.842-53.589-22.95-58.584-18.536-6.928 6.12 13.151 43.588 38.066 74.092 25.572 31.308 63.782 64.516 71.241 58.584 0.194-0.154 0.503-0.317 0.827-1.08 1.67-3.946-9.073-40.774-7.787-56.597 1.178-14.489 9.727-20.06 14.921-25.234 3.32 1.518 15.389 8.474 28.746 2.988z" fill="url(#q)"/>
  <path d="m1500.1 2041.2c-2.946-0.686-3.972-4.87-9.574-6.069-2.869-0.614-7.655-0.599-7.655-0.599-0.551 0.041-1.14 0.16-1.837 0.398-9.039 3.083-8.576 20.923-13.463 21.228-3.545 0.219-6.458-9.874-9.168-9.229-2.548 0.604-1.447 10.025-4.459 10.804-2.272 0.588-3.79-4.555-8.326-5.002-2.26-0.223-3.003 0.941-7.983 2.723 0 0-4.157 1.49-8.063 2.149-9.312 1.569-23.528-8.212-23.447-17.215 0.039-4.534 3.675-5.302 6.796-11.328 5.654-10.913-0.235-20.038 0.228-29.909 0.787-16.759 19.782-33.402 37.385-37.84 34.154-8.61 71.776 26.525 70.24 52.114-0.865 14.428-14.388 29.239-20.674 27.775z" fill="#fff"/>
  <linearGradient id="bs" x1="457.5" x2="501.23" y1="1585.7" y2="1887.6" gradientTransform="matrix(.6156 .7881 -.7881 .6156 2498.5 642.01)" gradientUnits="userSpaceOnUse">
   <stop stop-color="#FFC444" offset="0"/>
   <stop stop-color="#F36F56" offset=".9964"/>
  </linearGradient>
  <path d="m1467 2050c1.639-5.734-5.726-7.804-10.664-3.992-4.938 3.811-6.328 12.567-1.748 16.429 4.581 3.864 10.205-4.721 12.412-12.437z" fill="url(#bs)"/>
  <path d="m1473.5 2041.4-3.334 12.934s-4.822 14.902 3.933 14.565c7.153-0.277 6.964 0.031 6.93 0.382-0.01 0.067 0.25 0.298 0.26 0.305 0.06 0.046 2.261-2.059 3.87-4.1-1.118 3.623-3.165 9.328-7.402 14.933-4.115 5.445-8.52 11.275-16.157 12.518-0.44 0.072-8.653 1.286-14.741-3.67 0 0-2.394-1.949-8.461-13.346 0 0 16.505 4.745 18.524 3.437 5.489-3.557 2.701-12.845 9.097-26.355 2.467-5.21 5.363-9.091 7.481-11.603z" fill="#fff"/>
  <linearGradient id="h" x1="-551.91" x2="-243.3" y1="2297.2" y2="2591.9" gradientTransform="matrix(-1 0 0 1 975.4 0)" gradientUnits="userSpaceOnUse">
   <stop stop-color="#AA80F9" offset="0"/>
   <stop stop-color="#6165D7" offset=".9964"/>
  </linearGradient>
  <path d="m1261.6 2641.8c15.422-30.708-22.368-71.527 2.321-118.34 20.968-39.76 59.059-30.852 76.572-67.291 21.154-44.012-24.851-76.907-23.203-143.86 1.969-80.045 70.845-160.17 111.38-153.15 26.226 4.546 29.594 43.671 48.047 86.504-16.328 35.804-35.404 80.658-52.687 140.89-21.246 74.043-31.868 111.06-29.005 157.79 3.988 65.076 26.844 102.68 4.641 132.26-13.9 18.521-40.394 21.494-92.816 26.685-47.639 4.717-126.04 11.499-213.48-27.844-11.068-4.98-19.354-8.71-26.112-12.39 136.61 20.515 182.11 3.101 194.34-21.256z" fill="url(#h)" opacity=".3"/>
  <linearGradient id="aa" x1="1508" x2="1361.8" y1="2316.3" y2="2740.4" gradientUnits="userSpaceOnUse">
   <stop stop-color="#AA80F9" offset="0"/>
   <stop stop-color="#6165D7" offset=".9964"/>
  </linearGradient>
  <path d="m1657.5 2336.7-25.524-11.022c-14.38 14.706-32.72 29.007-48.148 24.364-22.997-6.921-17.247-49.228-45.247-123.56-31.726-84.223-67.722-105.87-85.854-113.7-10.128-4.373-17.12-7.276-25.524-5.221-38.672 9.453-51.458 110.23-40.607 185.63 6.113 42.484 18.101 125.79 86.435 165.33 9.707 5.617 63.139 36.536 116.02 12.182 45.174-20.805 73.089-74.185 68.45-134z" fill="url(#aa)"/>
  <linearGradient id="w" x1="-225.65" x2="-478.63" y1="2525.7" y2="2706.4" gradientTransform="matrix(-1 0 0 1 975.4 0)" gradientUnits="userSpaceOnUse">
   <stop stop-color="#444B8C" offset="0"/>
   <stop stop-color="#26264F" offset=".9964"/>
  </linearGradient>
  <path d="m1597.8 2948.7c-14.141 1.57-28.283 3.144-42.425 4.714-19.1-21.171-47.614-58.086-62.852-109.99-29.192-99.429 16.512-164.69-14.142-190.13-35.342-29.328-105.15 49.91-259.26 72.283-49.602 7.199-159.72 23.187-204.27-36.142-18.062-24.052-28.436-64.591-14.142-98.991 25.627-61.672 110.04-54.265 388.11-108.42 107.12-20.863 124.04-27.694 149.49-15.546 125.86 60.084 73.376 399.82 59.492 482.22z" fill="url(#w)"/>
  <linearGradient id="ar" x1="-771.26" x2="-144.78" y1="2746.9" y2="2746.9" gradientTransform="matrix(-1 0 0 1 975.4 0)" gradientUnits="userSpaceOnUse">
   <stop stop-color="#444B8C" offset="0"/>
   <stop stop-color="#26264F" offset=".9964"/>
  </linearGradient>
  <path d="m1724 2988.7c-14.142 1.569-28.284 3.144-42.425 4.714-19.099-21.171-47.614-58.086-62.852-109.99-29.193-99.429 16.512-164.69-14.142-190.13-35.342-29.328-105.15 49.91-259.26 72.283-49.601 7.2-159.72 23.187-204.27-36.141-18.062-24.053-28.437-64.591-14.142-98.992 25.627-61.671 110.04-54.265 388.11-108.42 107.12-20.863 124.04-27.694 149.49-15.546 125.86 60.082 73.375 399.82 59.491 482.22z" fill="url(#ar)"/>
  <linearGradient id="bh" x1="1221" x2="1247.5" y1="3036.4" y2="3202.3" gradientUnits="userSpaceOnUse">
   <stop stop-color="#AA80F9" offset="0"/>
   <stop stop-color="#6165D7" offset=".9964"/>
  </linearGradient>
  <path d="m1005.4 3159.3c0 52.864 105 95.718 234.53 95.718 129.53 0 234.53-42.854 234.53-95.718 0-0.844 0.053-10.386 0-11.225-3.278-51.698-107.07-84.493-234.53-84.493-127.12 0-230.72 33.978-234.52 85.485-0.072 0.974-0.014 9.253-0.014 10.233z" fill="url(#bh)"/>
  <linearGradient id="ax" x1="1232" x2="1263.7" y1="3229.6" y2="2900.6" gradientUnits="userSpaceOnUse">
   <stop stop-color="#AA80F9" offset="0"/>
   <stop stop-color="#6165D7" offset=".9964"/>
  </linearGradient>
  <path d="m1005.4 3148.1c0 49.902 105 90.355 234.53 90.355 129.53 0 234.53-40.454 234.53-90.355s-105-131.55-234.53-131.55c-129.53 1e-3 -234.53 81.652-234.53 131.55z" fill="url(#ax)"/>
  <linearGradient id="aj" x1="-887.92" x2="-493.78" y1="3104.5" y2="3104.5" gradientTransform="matrix(-1 0 0 1 511.58 0)" gradientUnits="userSpaceOnUse">
   <stop stop-color="#AA80F9" offset="0"/>
   <stop stop-color="#6165D7" offset=".9964"/>
  </linearGradient>
  <path d="m1005.4 3148.1c0-49.901 105-131.55 234.53-131.55 59.807 0 114.35 17.425 155.78 41.077 2.899 6.075 4.251 12.115 3.701 17.85-2.69 28.076-48.481 45.337-74.766 51.029-66.191 14.337-98.514-25.244-153.09-23.735-33.741 0.932-80.499 17.883-135.96 89.669-19.196-13.099-30.201-28.219-30.201-44.338z" fill="url(#aj)" opacity=".3"/>
  <linearGradient id="ca" x1="1191.8" x2="1449.3" y1="2828.6" y2="3292.8" gradientUnits="userSpaceOnUse">
   <stop stop-color="#AA80F9" offset="0"/>
   <stop stop-color="#6165D7" offset=".9964"/>
  </linearGradient>
  <path d="m1227 3061.8c9.371 2.332 18.114 2.24 26.339 0.15 7.46-1.894 12.583-8.797 12.583-16.496l-1e-3 -264.45h-52.151v264.14c1e-3 7.935 5.53 14.742 13.23 16.658z" fill="url(#ca)"/>
  <linearGradient id="bn" x1="-469.42" x2="-565.04" y1="2866.8" y2="2742.3" gradientTransform="matrix(-1 0 0 1 511.58 0)" gradientUnits="userSpaceOnUse">
   <stop stop-color="#311944" offset="0"/>
   <stop stop-color="#893976" offset="1"/>
  </linearGradient>
  <path d="m1515.4 2669.7-79.669-50.364c-3.314-18.814-40.868-215.63-193.33-277.44-62-25.133-128.72-22.151-165.34-20.514-73.096 3.265-125.24 5.593-150.31 40.461-32.202 44.772 21.807 85.374 10.624 213.44-4.56 52.226-16.158 75.421-1.713 110.02 17.305 41.445 57.434 64.417 88.635 77.349 37.298 21.659 102.24 52.522 188.01 60.039 144.48 12.662 252.34-49.314 289.43-73.027 16.494-5.2 28.887-18.916 32.394-35.85 3.555-17.172-3.906-34.75-18.728-44.12z" fill="url(#bn)"/>
  <path d="m1478.8 2705.6c-2.945-17.709-52.302-3.029-98.992-37.711-69.792-51.844-33.569-139.66-94.278-223.91-55.715-77.314-167.88-116.66-202.7-87.207-46.348 39.212 67.086 185.85 0 280.48-32.588 45.965-82.237 43.751-82.493 70.708-0.406 42.6 123.16 91.714 240.41 89.564 126.05-2.311 242.72-63.812 238.05-91.921z" fill="#fff" opacity=".26"/>
  <path d="m2625.6 2297.3-514.85-3.831v11.336c0 3.077 2.246 5.693 5.287 6.159l145.58 22.323c1.728 0.265 3.48 0.335 5.223 0.209l353.16-25.451c3.153-0.227 5.595-2.851 5.595-6.012z" fill="#26264f"/>
  <path d="m2438.8 2278.5-322.69 20.738c-5.774 0.371-10.469-3.572-10.469-8.808v-209.78c0-5.236 4.695-9.48 10.469-9.48h322.69c4.757 0 8.604 3.837 8.604 8.57v189.63c0 4.733-3.847 8.817-8.604 9.123z" fill="#26264f"/>
  <path d="m2443.9 2278.5-322.69 20.738c-5.775 0.371-10.469-3.572-10.469-8.808v-209.78c0-5.236 4.695-9.48 10.469-9.48h322.69c4.757 0 8.604 3.837 8.604 8.57v189.63c0 4.733-3.847 8.817-8.604 9.123z" fill="#26264f"/>
  <linearGradient id="ad" x1="2124.8" x2="2441" y1="2183.3" y2="2183.3" gradientUnits="userSpaceOnUse">
   <stop stop-color="#FF9085" offset="0"/>
   <stop stop-color="#FB6FBB" offset="1"/>
  </linearGradient>
  <path d="m2433.9 2265.2-300.55 18.013c-4.699 0.281-8.518-2.955-8.518-7.229v-183.66c0-4.274 3.819-7.754 8.518-7.772l300.55-1.131c3.924-0.015 7.098 3.129 7.098 7.023v167.28c0 3.893-3.174 7.24-7.098 7.476z" fill="url(#ad)"/>
  <path d="m2294 2077c0 1.949-1.661 3.534-3.712 3.54-2.053 0.01-3.72-1.573-3.72-3.527 0-1.953 1.666-3.538 3.72-3.54 2.051 0 3.712 1.577 3.712 3.527z" fill="#fff"/>
  <path d="m2367.5 2221.1c-25.004-12.18-44.664 3.254-63.638-11.974-11.503-9.232-5.856-16.116-20.01-29.912-15.676-15.28-25.883-10.144-41.638-23.896-19.922-17.388-9.958-30.917-27.118-43.402-20.817-15.146-43.267-1.127-63.084-15.652-8.547-6.265-13.237-15.373-15.685-25.059h-19.389c-3.398 0-6.157 2.493-6.157 5.568v217.6c0 3.076 2.759 5.392 6.157 5.173l330.56-21.243c1.623-0.104 3.061-0.961 3.984-2.205-24.198-0.799-39.063-8.143-48.566-15.735-18.59-14.852-15.366-29.499-35.412-39.264z" fill="#fff" opacity=".48"/>
  <linearGradient id="at" x1="2110.8" x2="2625.6" y1="2300.6" y2="2300.6" gradientUnits="userSpaceOnUse">
   <stop stop-color="#444B8C" offset="0"/>
   <stop stop-color="#26264F" offset=".9964"/>
  </linearGradient>
  <path d="m2456.8 2278-346.02 21.828 150.87 23.133c1.728 0.265 3.48 0.335 5.223 0.209l358.76-25.854-163.33-19.168c-1.826-0.214-3.668-0.264-5.504-0.148z" fill="url(#at)"/>
  <polygon points="2538.5 2291.9 2252.9 2311.6 2161.3 2300 2449.3 2281.5" fill="#26264f" opacity=".3"/>
  <linearGradient id="ba" x1="3112.8" x2="3129.8" y1="2852.8" y2="3068.1" gradientTransform="translate(-626.26)" gradientUnits="userSpaceOnUse">
   <stop stop-color="#26264F" offset=".0036"/>
   <stop stop-color="#444B8C" offset="1"/>
  </linearGradient>
  <path d="m2522.3 2960s-75.683 5.26-76.796 10.201c-1.113 4.942 51.371 24.044 69.708 24.757 18.338 0.713 33.424-4.707 31.763-12.474-1.66-7.768-8.079-27.304-8.079-27.304z" fill="url(#ba)"/>
  <linearGradient id="av" x1="2194.8" x2="2191.3" y1="2671.9" y2="2414.3" gradientTransform="matrix(.9853 .171 -.171 .9853 820.66 -36.205)" gradientUnits="userSpaceOnUse">
   <stop stop-color="#FFC444" offset="0"/>
   <stop stop-color="#F36F56" offset=".9964"/>
  </linearGradient>
  <path d="m2518.8 2926.3-1.343 35.718s11.512 6.499 20.652 2.765l10.162-37.666z" fill="url(#av)"/>
  <linearGradient id="s" x1="2901.2" x2="2918.1" y1="2838.4" y2="3053.7" gradientTransform="translate(-626.26)" gradientUnits="userSpaceOnUse">
   <stop stop-color="#26264F" offset=".0036"/>
   <stop stop-color="#444B8C" offset="1"/>
  </linearGradient>
  <path d="m2310.7 2945.6s-75.683 5.26-76.796 10.201c-1.113 4.942 51.371 24.044 69.708 24.757 18.339 0.713 33.424-4.707 31.764-12.474-1.661-7.769-8.079-27.304-8.079-27.304z" fill="url(#s)"/>
  <linearGradient id="u" x1="1983.8" x2="1980.3" y1="2693.9" y2="2436.3" gradientTransform="matrix(.9853 .171 -.171 .9853 820.66 -36.205)" gradientUnits="userSpaceOnUse">
   <stop stop-color="#FFC444" offset="0"/>
   <stop stop-color="#F36F56" offset=".9964"/>
  </linearGradient>
  <path d="m2307.1 2911.9-1.344 35.718s11.513 6.499 20.652 2.766l10.162-37.666z" fill="url(#u)"/>
  <linearGradient id="aw" x1="2907.8" x2="2811.1" y1="2395.4" y2="2539.2" gradientUnits="userSpaceOnUse">
   <stop stop-color="#444B8C" offset="0"/>
   <stop stop-color="#26264F" offset=".9964"/>
  </linearGradient>
  <path d="m2510.7 2931.4c14.142 1.57 28.283 3.145 42.425 4.714 19.1-21.171 47.614-58.086 62.852-109.99 29.379-100.07-13.169-172.18 14.142-190.13 38.656-25.402 122.44 120.84 256.91 117.09 55.176-1.542 127.19-28.564 154.88-87.414 4.18-8.885 24.703-55.393 4.714-98.992-20.637-45.017-123.02-64.604-326.94-101.95-87.532-16.029-131.73-24.025-149.49-15.546-125.86 60.084-73.375 399.82-59.491 482.22z" fill="url(#aw)"/>
  <linearGradient id="ag" x1="2294.8" x2="2988.3" y1="2712" y2="2712" gradientUnits="userSpaceOnUse">
   <stop stop-color="#444B8C" offset="0"/>
   <stop stop-color="#26264F" offset=".9964"/>
  </linearGradient>
  <path d="m2294.8 2932c14.628 2.545 29.255 5.091 43.883 7.637 17.767-26.17 44.657-67.173 74.727-119.2 62.682-108.46 61.537-130.48 90.505-144.45 61.311-29.544 107.63 50.274 259.26 72.283 49.601 7.2 159.71 23.188 204.27-36.142 18.062-24.052 28.437-64.59 14.142-98.991-25.627-61.672-110.04-54.265-388.11-108.42-108.44-21.12-123.23-24.886-149.49-15.545-146.7 52.165-149.56 371.58-149.19 442.82z" fill="url(#ag)"/>
  <linearGradient id="f" x1="2665.6" x2="2974.3" y1="2191.5" y2="2486.3" gradientUnits="userSpaceOnUse">
   <stop stop-color="#FF9085" offset="0"/>
   <stop stop-color="#FB6FBB" offset="1"/>
  </linearGradient>
  <path d="m2598.6 2082.7c14.436-35.304 45.422-55.605 61.49-66.133 8.042-5.271 15.471-9.22 23.014-12.301 58.189-23.758 116.29-22.124 126.65-21.346 25.131 1.883 87.201 6.528 133.19 46.375 22.259 19.288 40.052 46.214 65.995 197.98 36.181 211.66 6.815 189.97 35.354 275.76 15.101 45.399 38.628 97.486 13.744 130.75-8.037 10.745-19.52 13.829-42.927 24.362-87.439 39.345-165.84 32.565-213.48 27.846-52.422-5.193-78.916-8.162-92.816-26.686-22.203-29.587 0.653-67.187 4.641-132.26 2.863-46.72-7.759-83.746-29.005-157.79-49.392-172.14-113.51-218.94-85.855-286.57z" fill="url(#f)"/>
  <linearGradient id="v" x1="2296.5" x2="2289.5" y1="2284.2" y2="2316.3" gradientUnits="userSpaceOnUse">
   <stop stop-color="#FFC444" offset="0"/>
   <stop stop-color="#F36F56" offset=".9964"/>
  </linearGradient>
  <path d="m2352.2 2293.5-55.872-10.745c-4.014-0.772-8.134-0.813-12.163-0.12l-48.329 8.311s31.425 12.641 58.138 8.677c26.712-3.964 55.893 11.065 55.893 11.065z" fill="url(#v)"/>
  <linearGradient id="bt" x1="2581.1" x2="2889.8" y1="2279.9" y2="2574.6" gradientUnits="userSpaceOnUse">
   <stop stop-color="#FF9085" offset="0"/>
   <stop stop-color="#FB6FBB" offset="1"/>
  </linearGradient>
  <path d="m2846.9 2624.5c-15.422-30.708 22.368-71.526-2.321-118.34-20.968-39.76-59.059-30.852-76.572-67.291-21.154-44.012 24.851-76.907 23.203-143.86-1.969-80.045-70.844-160.17-111.38-153.15-26.226 4.546-29.595 43.671-48.047 86.504 16.328 35.803 35.404 80.658 52.687 140.89 21.246 74.044 31.868 111.07 29.005 157.79-3.988 65.076-26.844 102.68-4.641 132.26 13.9 18.521 40.394 21.495 92.816 26.685 47.639 4.717 126.04 11.499 213.48-27.844 11.068-4.98 19.354-8.71 26.112-12.39-136.61 20.515-182.11 3.101-194.34-21.256z" fill="url(#bt)" opacity=".3"/>
  <linearGradient id="bd" x1="2595" x2="2945.1" y1="2245.4" y2="2579.7" gradientUnits="userSpaceOnUse">
   <stop stop-color="#FF9085" offset="0"/>
   <stop stop-color="#FB6FBB" offset="1"/>
  </linearGradient>
  <path d="m2338 2309.8c1.584-7.131 3.168-14.257 4.753-21.387 107.34 19.242 154.28-2.357 176.96-27.597 20.813-23.165 11.938-35.133 45.247-123.56 31.726-84.224 67.722-105.87 85.854-113.7 10.128-4.374 17.12-7.273 25.524-5.221 38.672 9.451 51.458 110.23 40.607 185.63-6.113 42.48-18.101 125.78-86.435 165.33-1.256 0.727-3.245 1.878-5.871 3.282-8.604 4.603-42.799 21.047-110.15 8.898-79.408-14.326-156.88-59.835-176.49-71.675z" fill="url(#bd)"/>
  <linearGradient id="af" x1="6353.9" x2="6546.4" y1="2133.7" y2="2375.9" gradientTransform="matrix(.9729 -.2313 .2313 .9729 -4110.1 1335.2)" gradientUnits="userSpaceOnUse">
   <stop stop-color="#FFC444" offset="0"/>
   <stop stop-color="#F36F56" offset=".9964"/>
  </linearGradient>
  <path d="m2623.8 2015.4c-15.004-8.045-15.569-38.76-15.792-50.911-0.01-0.419-0.024-0.966-0.021-2.064 0.049-17.934 0.955-20.869 3.251-25.206l3.332-5.768s0.229-0.269 0.474-0.542c2.589-2.863 13.326-9.073 15.792-9.79 7.876-2.297 30.893 22.431 50.655 64.272 1.129 1.395 2.254 2.807 3.375 4.237 4.572 5.825 8.847 11.648 12.846 17.437 3.825 5.537 12.104 0.906 17.816-2.655 23.18-14.458 36.028-18.741 38.974-15.717 5.522 5.669-11.157 42.905-43.665 66.762-46.996 25.76-88.085 41.403-87.961 31.752 0.055-4.286 31.471-33.525 36.655-48.53 4.746-13.739-0.84-22.275-3.516-29.1-4.727 2.88-20.774 11.96-32.215 5.823z" fill="url(#af)"/>
  <path d="m2593.7 1927.8c0.729 10.646 19.391 22.759 24.208 23.38 0.542 0.07 3.675 0.619 7.25 2.528 0.487 0.261 0.981 0.607 1.521 1.104 7.039 6.456-0.558 22.605 3.793 24.846 3.159 1.629 9.886-6.441 12.105-4.766 2.092 1.581-2.704 9.764-0.261 11.685 1.845 1.452 5.301-2.646 9.636-1.231 3.347 1.094 5.311 4.141 6.215 5.704 6.961 12.033-4.82 72.029 7.35 86.955 22.084 27.086 174.36-31.443 170.2-81.392-2.468-29.67-58.785-40.119-122.53-81.978-5.58-3.663-21.94-12.489-44.877-18.592-4.743-1.262-10.202-1.946-16.902-1.681-29.261 1.164-58.662 19.484-57.708 33.438z" fill="#fff"/>
  <linearGradient id="bm" x1="6363.1" x2="6578" y1="2121.5" y2="2392" gradientTransform="matrix(.9729 -.2313 .2313 .9729 -4110.1 1335.2)" gradientUnits="userSpaceOnUse">
   <stop stop-color="#FFC444" offset="0"/>
   <stop stop-color="#F36F56" offset=".9964"/>
  </linearGradient>
  <path d="m2633.4 1974.2c0.804-5.909 8.38-4.843 11.369 0.632 2.99 5.474 0.742 14.051-5.004 15.746-5.748 1.696-7.446-8.426-6.365-16.378z" fill="url(#bm)"/>
  <linearGradient id="d" x1="2793.8" x2="2835.6" y1="3009.8" y2="3105.9" gradientUnits="userSpaceOnUse">
   <stop stop-color="#AA80F9" offset="0"/>
   <stop stop-color="#6165D7" offset=".9964"/>
  </linearGradient>
  <path d="m3069.5 3108.2c0 52.864-105 95.718-234.53 95.718-129.53 0-234.88-42.854-234.88-95.718 0-3.304 0.047-9.476 0.034-12.694-0.205-49.738 113.42-83.024 234.85-83.024 123.2 0 224.95 32.187 234.53 81.462 0.492 2.532 0 11.673 0 14.256z" fill="url(#d)"/>
  <linearGradient id="ai" x1="2825.9" x2="2865.3" y1="3181.4" y2="2814.5" gradientUnits="userSpaceOnUse">
   <stop stop-color="#AA80F9" offset="0"/>
   <stop stop-color="#6165D7" offset=".9964"/>
  </linearGradient>
  <path d="m3069.5 3097c0 49.902-105 90.355-234.53 90.355-129.53 0-234.53-40.454-234.53-90.355 0-49.9 105-131.55 234.53-131.55 129.53 0 234.53 81.651 234.53 131.55z" fill="url(#ai)"/>
  <linearGradient id="x" x1="2749.7" x2="3143.9" y1="3053.4" y2="3053.4" gradientTransform="translate(-74.329)" gradientUnits="userSpaceOnUse">
   <stop stop-color="#AA80F9" offset="0"/>
   <stop stop-color="#6165D7" offset=".9964"/>
  </linearGradient>
  <path d="m3069.5 3097c0-49.901-105-131.55-234.53-131.55-59.807 0-114.35 17.425-155.78 41.077-2.9 6.075-4.251 12.115-3.701 17.85 2.69 28.076 48.48 45.337 74.765 51.029 66.191 14.337 98.514-25.244 153.09-23.735 33.742 0.932 80.499 17.883 135.96 89.669 19.196-13.1 30.201-28.22 30.201-44.338z" fill="url(#x)" opacity=".3"/>
  <linearGradient id="bk" x1="2851.1" x2="3083.7" y1="2784.9" y2="3104.9" gradientTransform="translate(-74.329)" gradientUnits="userSpaceOnUse">
   <stop stop-color="#AA80F9" offset="0"/>
   <stop stop-color="#6165D7" offset=".9964"/>
  </linearGradient>
  <path d="m2847.9 3010.7c-9.371 2.332-18.114 2.24-26.339 0.15-7.461-1.894-12.583-8.797-12.583-16.496l1e-3 -264.45h52.151v264.14c0 7.935-5.53 14.742-13.23 16.658z" fill="url(#bk)"/>
  <linearGradient id="am" x1="3168.2" x2="3072.6" y1="2815.7" y2="2691.2" gradientTransform="translate(-74.329)" gradientUnits="userSpaceOnUse">
   <stop stop-color="#311944" offset="0"/>
   <stop stop-color="#893976" offset="1"/>
  </linearGradient>
  <path d="m2559.4 2618.6 79.669-50.364c3.315-18.814 40.868-215.63 193.33-277.44 62-25.133 128.72-22.151 165.34-20.514 73.096 3.264 125.24 5.593 150.31 40.461 32.201 44.772-21.807 85.374-10.624 213.44 4.56 52.226 16.158 75.421 1.713 110.02-17.305 41.445-57.434 64.418-88.635 77.349-37.298 21.659-102.24 52.522-188.01 60.039-144.48 12.662-252.34-49.314-289.43-73.027-16.494-5.2-28.887-18.916-32.394-35.85-3.555-17.172 3.906-34.751 18.728-44.121z" fill="url(#am)"/>
  <path d="m2596.1 2654.5c2.945-17.709 52.303-3.029 98.992-37.711 69.792-51.843 33.569-139.66 94.278-223.91 55.715-77.314 167.88-116.66 202.7-87.207 46.348 39.212-67.086 185.85 0 280.48 32.587 45.965 82.237 43.751 82.493 70.708 0.406 42.6-123.16 91.714-240.41 89.564-126.05-2.31-242.73-63.812-238.05-91.921z" fill="#fff" opacity=".26"/>
 </g>
</svg>
