<svg width="2813.7" height="2889.6" version="1.1" viewBox="0 0 2813.7 2889.6" xmlns="http://www.w3.org/2000/svg" xmlns:xlink="http://www.w3.org/1999/xlink">
 <g transform="translate(-468.55 -440.2)">
  <path d="m1919 483.12c-304.62 121.12-333.8 430.74-608.08 457.32-238.99 23.153-329.83-200.97-497.52-160.81-255.44 61.174-416.04 670.18-313.45 1170.9 105.93 517.06 551.02 1204.4 1288.4 1251.3 827.85 52.665 1454.2-738.21 1492.5-1432.2 4.135-75.057 28.562-703.94-452.23-1075.4-24.024-18.562-497.8-374.81-909.6-211.07z" fill="#f4f7fa"/>
  <defs>
   <rect id="b" x="1694.5" y="417.58" width="1558.7" height="1713.2"/>
  </defs>
  <clipPath id="bn">
   <use xlink:href="#b"/>
  </clipPath>
  <g clip-path="url(#bn)">
   <linearGradient id="am" x1="-3616.5" x2="-3088.6" y1="-3759.5" y2="-384.94" gradientTransform="matrix(-.583 -.8125 -.8125 .583 -1862.4 659.31)" gradientUnits="userSpaceOnUse">
    <stop stop-color="#FF9085" offset="0"/>
    <stop stop-color="#FB6FBB" offset="1"/>
   </linearGradient>
   <path d="m1872.4 2387.5c-17.468-8.255-48.194-41.614-52.618-53.612-29.442-79.846-94.277-225.76-61.597-309.58 5.581-14.315 75.183-6.761 88.656-17.198 45.545-5.955 61.714-5.196 102.23-32.127 119.62-79.508-9.211-343.16 239.18-340.81 181.94 1.717 303.06 103.77 368.26-158.44s419.78-663.74 632.7-397.23c122.2 152.95-106.14 320-78.214 506.73 26.531 177.45-78.987 282.33-271.06 321.52s-128.14 137.79-127.95 298.32c0.233 192.84-278.2 136.91-404.54 100.12-101.74-29.624-380.79-36.417-435.05 82.294z" fill="url(#am)"/>
   <defs>
    <path id="an" d="m1724.1 1988.9c0.146 132.81-5.176 267.96-5.751 401.71 69.983 29.078 153.01 61.579 197.5-21.636 61.857-115.7 290.45-94.037 391.95-63.897 125.62 37.304 404.65 92.703 404.27-99.992-0.313-160.42-64.113-259.14 127.94-298.3 192.05-39.166 297.54-144.07 271.05-321.53-27.883-186.75 200.37-353.69 78.212-506.72-212.86-266.65-567.65 135.27-632.63 397.14s-187.1 161.18-368.14 158.28c-247.16-3.971-122.84 265.62-237.96 338.94-90.243 57.485-136.73 26.615-226.44 16.005z"/>
   </defs>
   <clipPath id="br">
    <use xlink:href="#an"/>
   </clipPath>
   <g clip-path="url(#br)" fill="#fcfdfe">
    <path d="m1788.9 2186.9-0.502-3.557c160.83-22.754 315.78-69.908 460.52-140.15 139.09-67.502 268.99-156.38 386.09-264.16 227.37-209.28 402.83-486.52 507.42-801.75l3.409 1.131c-104.78 315.8-280.58 593.57-508.4 803.26-117.35 108.02-247.54 197.1-386.95 264.75-145.08 70.407-300.38 117.67-461.59 140.48z"/>
    <path d="m2721.5 2285c-139.9-101.99-401.24-188.1-582.57-191.94l0.077-3.592c181.95 3.854 444.2 90.267 584.6 192.63z"/>
    <path d="m1911.6 2168.1-1.47-3.276c86.077-38.581 149.34-119.18 188.03-239.56 28.361-88.241 43.102-195.41 43.817-318.54l3.592 0.021c-0.717 123.49-15.517 231.02-43.989 319.61-39.013 121.4-102.93 202.73-189.98 241.74z"/>
    <path d="m2668.7 1750.6-1.634-3.199c158.31-80.962 343.68-56.345 471.31-21.437l-0.947 3.465c-127.02-34.741-311.44-59.27-468.73 21.171z"/>
    <path d="m2927.8 1436.7-3.328-1.35c32.343-79.75 72.819-249.89-19.492-493.36l3.358-1.273c31.173 82.217 50.349 167.75 55.454 247.35 5.875 91.606-6.236 175.26-35.992 248.63z"/>
   </g>
   <defs>
    <path id="f" d="m2303.1 2606.7c-97.181-14.291-194.26-30.816-291.17-49.567-1.577 1.425-33.431-209.81 66.908-320.59 198.42-214.61 64.769-407.22 26.645-521.35-61.013-160.94-29.741-356.54 147.52-319.9 172.69 31.553 198.89-323.97 169.08-597.86-25.438-133.3 100.34-295.04 225.85-332.01 128.13-40.952 256 42.872 295.18 308.58 59.323 307.65-165.2 493.18-248.34 647.42-81.804 151.42 108.5 273.93-44.675 408.09-128.84 119.21-291.22 204.9-231.82 354.65 61.027 148.04 46.416 269.08-115.19 422.54z"/>
   </defs>
   <clipPath id="a">
    <use xlink:href="#f"/>
   </clipPath>
   <linearGradient id="bz" x1="472.86" x2="-224.91" y1="-1575" y2="408.19" gradientTransform="matrix(-.8674 -.4976 -.4976 .8674 2274.7 2110)" gradientUnits="userSpaceOnUse">
    <stop stop-color="#FFC444" offset="0"/>
    <stop stop-color="#F36F56" offset=".9964"/>
   </linearGradient>
   <path d="m2303.1 2606.7c-97.181-14.291-194.26-30.816-291.17-49.567-1.577 1.425-33.431-209.81 66.908-320.59 198.42-214.61 64.769-407.22 26.645-521.35-60.401-160.82-28.632-334.96 135.05-337.54 181.54-6.41 214.45-306.89 181.55-580.22-25.438-133.3 100.34-295.04 225.85-332.01 128.13-40.952 256 42.872 295.18 308.58 59.323 307.65-165.2 493.18-248.34 647.42-81.804 151.42 108.5 273.93-44.675 408.09-128.84 119.21-291.22 204.9-231.82 354.65 61.027 148.05 46.416 269.08-115.19 422.54z" clip-path="url(#a)" fill="url(#bz)"/>
   <g clip-path="url(#a)" fill="#fcfdfe">
    <path d="m2172.9 2619.2-3.588-0.051c-0.028-1.876 92.834-446.23 252.96-878.73 22.114-70.042 46.141-140.68 69.375-208.98 62.217-182.92 126.55-372.06 157.1-560.39 34.153-210.52 21.98-400.14-37.213-579.67l3.411-1.126c59.377 180.1 71.594 370.27 37.346 581.38-30.6 188.63-94.984 377.92-157.25 560.97-23.229 68.291-47.247 138.91-69.38 208.99-153.52 414.67-251.57 863.92-252.77 877.61z"/>
    <path d="m2607.6 1177.8-2.669-2.402c108.34-120.37 239.06-291.44 309.28-383.34 54.336-71.104 56.733-73.789 58.993-73.438l-0.554 3.549 0.277-1.775 0.705 1.612c-2.809 1.882-26.533 32.927-56.566 72.234-70.257 91.94-201.03 263.08-309.47 383.56z"/>
    <path d="m2640.6 1012.8c-22.437-138.1-79.331-228.92-123.11-280.78-48.566-57.54-92.783-82.174-97.265-82.649 0.01 2e-3 0.389 0.033 0.815-0.253l-1.999-2.985c0.923-0.617 2.043-0.461 4.612 0.656 11.983 5.208 56.773 33.225 103.78 91.643 59.211 73.591 99.57 168.27 116.71 273.79z"/>
    <path d="m2330.6 2023.3-3.567-0.424c15.285-128.39-14.631-266.48-88.918-410.45-38.74-75.078-88.145-148.63-146.84-218.61-4.067-4.847-5.735-6.848-6.206-7.662l3.107-1.799c0.335 0.577 2.769 3.479 5.85 7.153 58.867 70.185 108.42 143.96 147.28 219.28 74.623 144.62 104.66 283.41 89.294 412.52z"/>
    <path d="m2374.4 1888.1-3.055-1.89c116.49-188.2 361.93-201.18 364.09-200.6l1.338 1.683-1.231 1.764-0.566-1.678-0.163 1.752h-0.037c-4.081 0-245.32 13.091-360.37 198.97z"/>
    <path d="m2189.1 2546.7-3.588-0.133c2.053-55.907-17.928-151.2-124.79-287.7-5.754-7.35-5.754-7.35-5.606-8.381l3.556 0.512-1.778-0.256 1.652-0.656c0.296 0.554 2.478 3.341 5.005 6.568 107.53 137.36 127.62 233.54 125.55 290.05z"/>
    <path d="m2213.8 2441.4-3.451-1c12.309-42.472 60.763-125.69 246.98-205.87 2.583-1.112 4.247-1.825 4.84-2.131l1.641 3.195c-0.619 0.317-2.357 1.07-5.063 2.234-184.86 79.594-232.82 161.71-244.95 203.57z"/>
   </g>
  </g>
  <g fill="#99a0aa">
   <path d="m1642.7 1223.2-0.63-0.072c-10.187-1.162-19.515 5.546-20.819 14.983l-235.48 1701.9c-1.359 9.812 6.144 17.514 16.74 17.202l0.655-0.019c10.574-0.311 20.231-8.495 21.578-18.275l234-1696.6c1.297-9.409-5.879-17.973-16.048-19.133z"/>
   <path d="m2394.8 2794.8-205.98-1559.9c-1.185-8.982-9.675-15.302-18.97-14.112l-0.576 0.074c-9.314 1.192-15.908 9.464-14.714 18.473l207.2 1564.4c1.149 8.685 9.367 13.748 18.343 11.311l0.555-0.151c8.962-2.432 15.286-11.42 14.143-20.081z"/>
   <path d="m1737.2 2663.2 70.427-1571.8c0.405-9.05 8.316-16.081 17.68-15.698l0.58 0.024c9.382 0.383 16.666 8.054 16.255 17.133l-71.254 1576.4c-0.395 8.752-8.144 14.506-17.297 12.854l-0.566-0.103c-9.137-1.649-16.215-10.057-15.825-18.784z"/>
  </g>
  <polygon points="2041.2 2237.3 1217.2 2312.5 1217.2 665.94 1362.1 671.76 2526.3 718.84 2526.3 2193.1" fill="#fff"/>
  <g fill="#b7c0ce">
   <path d="m2544.1 701.54v28.909c0 7.708-6.536 13.714-14.242 13.389l-5.077-0.18-1135.3-43.565-171.18-6.549-1.055-0.037c-9.624-0.36-17.843-7.634-17.843-16.245v-32.42c0-8.613 7.914-15.233 17.539-14.836l89.15 3.871 1223.7 53.153c7.705 0.326 14.329 6.839 14.329 14.51z"/>
   <path d="m2544.1 2173.4v28.91c0 7.707-6.536 14.51-14.242 15.233l-431.13 40.416-881.36 82.679c-9.624 0.905-17.996-5.355-17.996-13.966v-32.42c0-8.611 7.914-16.282 17.539-17.115l1.081-0.073 762.32-67.663 544.02-48.268 5.508-0.397c7.707-0.688 14.265 4.992 14.265 12.664z"/>
  </g>
  <g fill="#b7c0ce">
   <polygon points="1492.2 1461.9 1630.9 1456.9 1630.9 1667.1 1492.2 1674.3"/>
   <polygon points="1721.7 1385 1855.6 1380.9 1855.6 1655.3 1721.7 1662.3"/>
   <polygon points="1943.3 1288.5 2072.5 1285.5 2072.5 1644 1943.3 1650.7"/>
   <polygon points="2157.3 1166.3 2282.2 1164.5 2282.2 1633.1 2157.3 1639.6"/>
   <path d="m2231.3 880.65c-10.167-5.862-23.484-3.003-29.671 6.477-6.657 10.131-13.533 20.046-20.66 29.742-133.05 180.84-351.7 287.98-659.22 316.93-10.023 0.94-17.947 1.664-23.809 2.424-3.836 0.505-9.298 1.23-14.618 3.364-5.355 2.136-10.493 5.754-13.496 12.086-5.21 11 0.615 23.41 12.954 27.752 3.074 1.085 6.295 1.557 9.406 1.484 3.548-0.072 7.056-0.869 10.205-2.208 4.487-0.687 14.148-1.627 23.484-2.532 56.3-5.5 186.2-18.129 325.5-69.98 156.13-58.11 278.07-147.45 364.87-265.73 7.707-10.456 15.123-21.166 22.252-32.095 6.185-9.444 2.965-21.853-7.201-27.715z"/>
   <path d="m2240.8 1004.1c-11.26 0.01-20.75-8.174-21.492-18.841l-6.146-88.282-90.618 55.867c-10.078 6.201-23.741 3.661-30.51-5.706-6.776-9.383-4.061-22.027 6.056-28.224l153.23-93.861 10.939 157.64c0.767 11.072-8.196 20.638-20.042 21.367-0.475 0.03-0.949 0.044-1.417 0.044z"/>
  </g>
  <g fill="#b7c0ce">
   <polygon points="1374.1 1832.1 2405 1776.9 2405 1820 1374.1 1879.1"/>
   <polygon points="1374.1 1953.5 2405 1888.2 2405 1934.9 1374.1 2004.5"/>
   <polygon points="1374.1 2075 2405 1999.6 2405 2049.8 1374.1 2129.9"/>
  </g>
  <path d="m2098.3 2258-881.16 82.679c-9.624 0.905-17.792-5.355-17.792-13.966v-32.42c0-8.611 7.433-16.282 17.058-17.115l0.776-0.073v-1583.6l-0.524-0.037c-9.623-0.36-17.311-7.634-17.311-16.245v-32.42c0-8.613 7.914-15.233 17.539-14.836l89.15 3.871c19.106 10.06 38.045 22.47 55.522 37.885 9.661 8.503 18.968 17.91 27.616 28.332 34.3 41.393 58.89 98.562 61.569 177.51 8.359 246.48-29.55 296.88 32.504 361.98 8.431 8.83 18.712 17.911 31.196 27.789 3.618 2.859 7.384 5.79 11.365 8.793 54.49 41.141 133.19 76.02 195.86 138.22 53.948 53.552 96.031 127.29 100.62 242.68 1.774 44.07-1.917 94.256-12.519 151.68-2.929 15.813-5.173 31.046-6.802 45.736-2.822 25.616-3.726 49.607-2.966 72.04 0.615 17.187 2.171 33.434 4.668 48.884 3.871 24.242 9.986 46.423 17.91 66.757 7.201 18.454 15.885 35.351 25.835 50.874 33.542 52.393 81.087 89.191 131.96 116.4 19.791 10.64 40.126 19.793 60.317 27.897 19.501 7.779 38.897 14.581 57.603 20.658z" fill="#b7c0ce" opacity=".2"/>
  <linearGradient id="by" x1="1523.8" x2="1619.5" y1="1670.2" y2="1670.2" gradientUnits="userSpaceOnUse">
   <stop stop-color="#FFC444" offset="0"/>
   <stop stop-color="#F36F56" offset=".9964"/>
  </linearGradient>
  <path d="m1552.8 1704.7s0-25.758-6.911-35.182-20.104-13.727-21.989-21.313 21.989 9.377 30.784 13.146c8.796 3.77 56.52-21.8 60.941-24.502 11.308-6.911-4.398 20.732-20.732 28.899s-25.126 8.796-25.126 8.796l4.394 30.156h-17.591z" fill="url(#by)"/>
  <linearGradient id="bm" x1="1354.9" x2="1361.3" y1="734.32" y2="2715.5" gradientUnits="userSpaceOnUse">
   <stop stop-color="#FF9085" offset="0"/>
   <stop stop-color="#FB6FBB" offset="1"/>
  </linearGradient>
  <path d="m1139.5 1635.9c22.333-22.01 64.934-18.645 90.578-10.293 48.232 15.709 52.068 54.132 124 111.59 34.471 27.535 52.197 41.3 76.168 41.172 58.69-0.314 98.595-83.086 104.99-96.754 19.196 2.859 38.393 5.718 57.59 8.577 9.105 100.53-46.646 194.85-135.82 232.28-137.25 57.612-254.82-61.032-259.86-66.297-63.447-66.239-98.031-180.46-57.641-220.27z" fill="url(#bm)"/>
  <linearGradient id="bv" x1="1705.3" x2="1788.9" y1="2979.6" y2="2979.6" gradientTransform="matrix(-.996 .0899 .0899 .996 2457.3 -161.28)" gradientUnits="userSpaceOnUse">
   <stop stop-color="#444B8C" offset="0"/>
   <stop stop-color="#26264F" offset=".9964"/>
  </linearGradient>
  <path d="m948.47 2947.4c-4.339 3.99-4.612 13.31-4.789 19.401-0.081 2.721-0.121 4.082 0.241 5.02 2.632 6.838 16.199 6.743 37.536 7.614 33.719 1.375 43.851 3.403 46.17-1.743 2.171-4.824-4.244-12.112-4.965-12.915-3.878-4.314-8.399-5.694-17.114-7.984-16.128-4.237-26.984-6.432-30.27-7.098-20.527-4.158-23.959-4.914-26.809-2.295z" fill="url(#bv)"/>
  <linearGradient id="bi" x1="1270.4" x2="1307.1" y1="2943.2" y2="2867.3" gradientTransform="matrix(-.9976 .0696 .0696 .9976 2041.4 -61.45)" gradientUnits="userSpaceOnUse">
   <stop stop-color="#FFC444" offset="0"/>
   <stop stop-color="#F36F56" offset=".9964"/>
  </linearGradient>
  <path d="m972.11 2913.7 1.322 38.38c-1.05 1.795-12.7 6.724-21.466 1.498l-6.622-38.011z" fill="url(#bi)"/>
  <linearGradient id="n" x1="1312.4" x2="1401.3" y1="2944.2" y2="2944.2" gradientTransform="matrix(-.977 .2135 .2135 .977 1968.7 -211.23)" gradientUnits="userSpaceOnUse">
   <stop stop-color="#444B8C" offset="0"/>
   <stop stop-color="#26264F" offset=".9964"/>
  </linearGradient>
  <path d="m1232.5 2942c-5.796 5.755-7.637 16.821-3.168 22.559 4.392 5.642 11.644 1.972 31.568 3.629 21.341 1.777 26.654 7.122 41.394 3.888 5.955-1.31 16.529-4.693 16.555-8.895 0.018-2.954-5.177-4.756-22.487-11.599-24.57-9.711-24.436-10.163-29.701-11.326-13.225-2.92-26.505-5.854-34.161 1.744z" fill="url(#n)"/>
  <linearGradient id="bk" x1="1155.3" x2="1192.8" y1="2948.8" y2="2871.2" gradientTransform="matrix(-.9894 .1455 .1455 .9894 1975.3 -129.34)" gradientUnits="userSpaceOnUse">
   <stop stop-color="#FFC444" offset="0"/>
   <stop stop-color="#F36F56" offset=".9964"/>
  </linearGradient>
  <path d="m1248 2907.9 8.824 36.234c-0.912 1.869-12.151 7.671-21.29 3.131l-14.08-35.463z" fill="url(#bk)"/>
  <linearGradient id="v" x1="1677.9" x2="1440.8" y1="2734.2" y2="2199.8" gradientTransform="matrix(.9986 .0531 -.0531 .9986 -236.78 -20.026)" gradientUnits="userSpaceOnUse">
   <stop stop-color="#40447E" offset="0"/>
   <stop stop-color="#3C3B6B" offset=".9964"/>
  </linearGradient>
  <path d="m1194.4 2121.7c-4.843 119.94-3.835 255.14 7.998 402.6 11.694 145.74 31.917 277.94 55.449 394.49-13.876 2.953-27.749 5.905-41.625 8.856-32.982-34.206-74.051-87.476-91.344-160.59-10.733-45.376-5.142-68.103-10.533-123.5-8.585-88.204-32.968-135.47-56.935-207.51-21.537-64.73-46.032-159.35-55.201-284.57 64.064-9.925 128.13-19.851 192.19-29.776z" fill="url(#v)"/>
  <linearGradient id="q" x1="1641.1" x2="1404.1" y1="2750.5" y2="2216.1" gradientTransform="matrix(.9986 .0531 -.0531 .9986 -236.78 -20.026)" gradientUnits="userSpaceOnUse">
   <stop stop-color="#40447E" offset="0"/>
   <stop stop-color="#3C3B6B" offset=".9964"/>
  </linearGradient>
  <path d="m1175.3 2682.3c-15.289-60.504-44.727-76.498-45.786-133.61-0.748-40.399 13.769-43.705 12.798-82.372-1.472-58.652-35.837-89.4-53.106-126.29-18.238-38.961-25.234-101.55 23.879-205.66-36.971 5.728-73.944 11.457-110.92 17.184 9.169 125.22 33.664 219.84 55.201 284.57 23.968 72.035 48.349 119.3 56.935 207.51 5.392 55.397-0.199 78.124 10.533 123.5 17.294 73.111 58.363 126.38 91.344 160.59 3.529-0.751 7.058-1.501 10.587-2.252-35.655-42.543-48.241-80.541-51.447-111.38-5.213-50.165 15.393-70.788-0.022-131.79z" fill="url(#q)" opacity=".3"/>
  <linearGradient id="z" x1="1126.4" x2="889.35" y1="2821.8" y2="2287.5" gradientTransform="matrix(.9976 -.0696 .0696 .9976 -159.93 92.388)" gradientUnits="userSpaceOnUse">
   <stop stop-color="#40447E" offset="0"/>
   <stop stop-color="#3C3B6B" offset=".9964"/>
  </linearGradient>
  <path d="m1055.7 2114.3c-16.485 151.99-31.635 306.9-45.262 464.65-10.227 118.37-19.333 235.3-27.393 350.73-14.064 0.981-28.13 1.963-42.194 2.943-12.164-25.855-28.052-65.242-37.715-115.16-11.737-60.621-6.392-95.964-9.634-158.32-3.641-69.935-13.499-85.653-27.722-174.38-28.867-180.08-43.301-270.12 2.417-323.22 14.839-17.238 60.765-60.018 187.5-47.241z" fill="url(#z)"/>
  <linearGradient id="ca" x1="971.31" x2="977.7" y1="735.56" y2="2716.8" gradientUnits="userSpaceOnUse">
   <stop stop-color="#FF9085" offset="0"/>
   <stop stop-color="#FB6FBB" offset="1"/>
  </linearGradient>
  <path d="m691.32 1641.7c75.972-25.773 191.89-54.339 333.67-48.522 82.133 3.369 152.75 17.449 208.7 33.111 7.573 42.305 15.145 84.612 22.717 126.92 1.747 42.419 2.318 99.881-2.436 167.78-4.753 67.889-9.419 68.912-20.319 164.75-17.771 156.25-10.32 197.07-41.717 215.84-20.422 12.212-27.812-2.524-132.04-12.834-69.887-6.914-105.55-10.127-140.94 1.856-48.19 16.316-64.312 43.698-84.194 34.794-19.066-8.541-21.5-41.455-23.813-98.84-3.568-88.523-3.361-148.69-3.691-170.23-1.521-98.818-26.558-174.26-58.624-270.89-20.056-60.437-41.178-109.35-57.314-143.72z" fill="url(#ca)"/>
  <linearGradient id="cb" x1="928.47" x2="1095.8" y1="1565.5" y2="1565.5" gradientUnits="userSpaceOnUse">
   <stop stop-color="#FFC444" offset="0"/>
   <stop stop-color="#F36F56" offset=".9964"/>
  </linearGradient>
  <path d="m1015.6 1495.3c-1.114 24.846-4.932 44.393-8.271 57.742-3.825 15.295-6.201 19.172-9.134 22.264-4.415 4.656-10.932 8.411-46.989 15.343-19.621 3.771-22.106 3.507-22.636 5.405-2.584 9.264 48.523 44.026 103.49 39.229 33.641-2.936 65.033-20.369 63.701-30.47-1.341-10.168-34.98-6.541-43.952-25.283-6.24-13.038 2.468-30.613 12.424-45.021-7.992-17.1-40.641-22.11-48.631-39.209z" fill="url(#cb)"/>
  <linearGradient id="j" x1="743.98" x2="680.72" y1="1406.7" y2="1246.1" gradientTransform="matrix(-.9988 -.0494 -.0494 .9988 1790.6 251.6)" gradientUnits="userSpaceOnUse">
   <stop stop-color="#311944" offset="0"/>
   <stop stop-color="#6B3976" offset="1"/>
  </linearGradient>
  <path d="m1077 1508.4c8.437-10.048 9.896-28.296 1.431-40.331-7.285-10.356-19.504-12.428-26.82-13.671-21.2-3.597-48.589 3.875-58.996 23.008-6.165 11.339 4.548 36.152 6.195 40.599 1.867 5.027 5.634 6.919 9.006 10.824 4.672 5.417 11.978 14.021 23.888 28.397 1.197-3.992 2.957-8.917 5.618-14.217 1.024-2.041 5.126-10.001 11.036-16.469 11.835-12.965 20.643-8.618 28.642-18.14z" fill="url(#j)"/>
  <linearGradient id="bh" x1="1022.4" x2="1073.3" y1="1450.5" y2="1674.4" gradientUnits="userSpaceOnUse">
   <stop stop-color="#FFC444" offset="0"/>
   <stop stop-color="#F36F56" offset=".9964"/>
  </linearGradient>
  <path d="m1014.3 1544.7s12.799 23.752 40.816 23.422c25.084-0.297 31.729-56.162 16.395-68.907-5.117-4.253-15.697-6.469-24.5-4.5-5.2 1.164-7.048 3.2-15.582 4.934-7.872 1.602-10.018 0.625-12.467 2.471-3.062 2.312-5.532 8.245-1.509 24.894-4.513-5.081-10.139-7.24-14.297-5.542-0.663 0.273-2.442 1.349-3.502 3.067-3.834 6.218 1.58 14.707 14.646 20.161z" fill="url(#bh)"/>
  <linearGradient id="aq" x1="724.65" x2="661.33" y1="1414.4" y2="1253.6" gradientTransform="matrix(-.9988 -.0494 -.0494 .9988 1790.6 251.6)" gradientUnits="userSpaceOnUse">
   <stop stop-color="#311944" offset="0"/>
   <stop stop-color="#6B3976" offset="1"/>
  </linearGradient>
  <path d="m1018 1498.7c1.157 0.963-2.767 5.264-3.38 11.616-1.193 12.328 10.526 27.827 23.218 29.763 7.504 1.144 9.82-3.292 22.359-3.946 7.766-0.404 14.14 0.92 18.136 2.019 3.198 13.761-1.208 27.076-10.601 32.863-10.112 6.23-22.352 1.473-27.469-0.517-3.423-1.331-14.394-5.571-19.685-16.121-5.512-10.994 0.797-17.108-5.794-24.696-3.325-3.827-7.862-5.65-11.986-12.936-1.119-1.98-1.845-3.717-2.283-4.882 6.815-6.49 15.808-14.558 17.485-13.163z" fill="url(#aq)"/>
  <path d="m1069 1542.7s-5.549 2.535-14.851 1.513c-0.452-0.05-0.96 0.056-1.03 0.288-0.261 0.874 5.513 5.161 11.11 3.905 3.974-0.895 7.218-4.439 6.741-5.41-0.201-0.409-1.09-0.404-1.97-0.296z" fill="#fff"/>
  <linearGradient id="d" x1="4073.4" x2="4082.2" y1="1393.2" y2="1522.8" gradientTransform="matrix(.9912 -.1322 .1322 .9912 -3204.4 779.45)" gradientUnits="userSpaceOnUse">
   <stop stop-color="#311944" offset="0"/>
   <stop stop-color="#893976" offset="1"/>
  </linearGradient>
  <path d="m1004 1634.5c4.585 17.329 9.95 21.882 14.147 22.658l11.568-0.206c2.038-7.411 4.076-14.824 6.114-22.233-4.696 0.6-10.099 1.005-16.083 0.956-5.852-0.049-11.14-0.522-15.746-1.175z" fill="url(#d)"/>
  <linearGradient id="bc" x1="4044.5" x2="4044.5" y1="1585.9" y2="1294.9" gradientTransform="matrix(.9912 -.1322 .1322 .9912 -3204.4 779.45)" gradientUnits="userSpaceOnUse">
   <stop stop-color="#311944" offset="0"/>
   <stop stop-color="#893976" offset="1"/>
  </linearGradient>
  <path d="m1014.8 1655.7s7.274 166.15-40.482 199.28c2.016 5.082 6.399 47.976 6.399 47.976s45.867-20.762 48.717-20.174c2.851 0.587 45.808-98.18 0.301-225.83z" fill="url(#bc)"/>
  <linearGradient id="bo" x1="765.33" x2="1215.8" y1="2076.3" y2="2076.3" gradientUnits="userSpaceOnUse">
   <stop stop-color="#FF9085" offset="0"/>
   <stop stop-color="#FB6FBB" offset="1"/>
  </linearGradient>
  <path d="m1151.4 2250.3c-51.266-21.864-50.977-67.131-98.858-86.013-68.325-26.945-143.8 35.696-155.58 18.332-12.268-18.067 77.874-73.495 65.872-128.14-9.539-43.428-72.467-35.72-106.18-95.163-31.983-56.388-0.995-108.53-29.31-128.12-10.155-7.028-28.065-9.798-62.02 5.152 23.692 73.946 40.682 139.16 41.927 219.99 0.331 21.537 0.123 81.707 3.691 170.23 2.313 57.385 4.747 90.299 23.813 98.84 19.882 8.904 36.005-18.478 84.194-34.794 35.388-11.983 71.055-8.77 140.94-1.856 104.22 10.311 111.62 25.046 132.04 12.834 13.3-7.952 19.621-19.907 23.849-42.87-20.893 2.257-43.059 0.669-64.371-8.419z" fill="url(#bo)" opacity=".3"/>
  <linearGradient id="ak" x1="1039.9" x2="893.44" y1="2078.2" y2="1967.1" gradientUnits="userSpaceOnUse">
   <stop stop-color="#26264F" offset=".0036"/>
   <stop stop-color="#444B8C" offset="1"/>
  </linearGradient>
  <path d="m1062.8 1835.9-209.95 17.615c-2.213 0.186-3.969 1.775-4.441 4.018l-59.564 282.99c-0.852 4.049 4.622 14.306 8.53 13.911l202.08-26.899c2.145-0.219 3.81-1.694 4.31-3.818l69.576-275.76c0.967-4.104-6.3-12.416-10.535-12.061z" fill="url(#ak)"/>
  <linearGradient id="au" x1="-250.8" x2="-577.84" y1="2009.2" y2="2183.2" gradientTransform="matrix(-.9948 .1018 .1018 .9948 349.68 -26.87)" gradientUnits="userSpaceOnUse">
   <stop stop-color="#26264F" offset=".0036"/>
   <stop stop-color="#444B8C" offset="1"/>
  </linearGradient>
  <path d="m1067.2 1842.9-210.34 17.357c-2.217 0.183-3.976 1.772-4.448 4.018l-59.636 283.26c-0.853 4.053 2.702 8.313 6.613 7.918l204.38-20.631c2.149-0.216 3.817-1.691 4.318-3.817l66.043-280.17c0.968-4.106-2.687-8.288-6.93-7.937z" fill="url(#au)"/>
  <path d="m1009.1 1856.2 5.158-23.352c0.466-2.108-1.337-4.245-3.498-4.146l-77.257 3.531c-1.312 0.06-2.356 0.995-2.58 2.311l-4.334 25.366c-0.356 2.083 1.432 4.11 3.498 3.962l76.482-5.482c1.256-0.09 2.258-0.956 2.531-2.19z" fill="#fff"/>
  <path d="m908.95 2087.3c7.547-46.529-18.582-76.479-0.585-112.64 25.603-51.436 99.058-31.641 115.7-73.817 4.497-11.4 5.09-28.183-6.603-53.807l49.745-4.101c4.243-0.35 7.898 3.828 6.931 7.937l-66.043 280.17c-0.501 2.128-2.169 3.598-4.318 3.816l-126.11 12.734c19.682-20.472 28.219-41.378 31.285-60.29z" fill="#fff" opacity=".3"/>
  <linearGradient id="k" x1="760.32" x2="866.45" y1="2064.3" y2="2064.3" gradientUnits="userSpaceOnUse">
   <stop stop-color="#FFC444" offset="0"/>
   <stop stop-color="#F36F56" offset=".9964"/>
  </linearGradient>
  <path d="m765.33 2059.5s22.295-1.398 23.411-3.994 25.482-25.365 24.683-18.175-5.065 19.673-3.595 20.971 44.538-9.786 51.728-15.578 6.99 25.165-4.194 36.349-33.753 12.583-48.732 13.581c-14.979 0.999-44.511-4.427-48.319-2.713 6.236-12.839 5.018-30.441 5.018-30.441z" fill="url(#k)"/>
  <linearGradient id="bs" x1="634.99" x2="641.38" y1="736.65" y2="2717.9" gradientUnits="userSpaceOnUse">
   <stop stop-color="#FF9085" offset="0"/>
   <stop stop-color="#FB6FBB" offset="1"/>
  </linearGradient>
  <path d="m769.11 2047.6c1.765 20.634-2.728 34.649-10.226 44.259-33.235 42.602-146.21 25.205-213.37-31.837-49.711-42.223-76.04-107.8-75.078-166.56 1.876-114.66 108.11-227.02 266.16-265.87 23.41 69.936 46.819 127.94 70.229 197.88-97.445 1.504-156.63 86.905-147.84 139.34 6.547 39.065 52.117 74.197 110.13 82.781z" fill="url(#bs)"/>
  <path d="m2230.9 3039.8c-1.932 0-3.565-1.473-3.745-3.418l-68.242-737.49c-0.191-2.07 1.331-3.904 3.401-4.096 2.063-0.172 3.905 1.332 4.096 3.403l60.729 656.29v-672.26c0-2.079 1.686-3.765 3.765-3.765s3.765 1.686 3.765 3.765v753.81c0 2.012-1.581 3.668-3.592 3.761h-0.177z" fill="#b7c0ce"/>
  <polygon points="804.89 2346.3 1558.2 2436.5 2991.8 2362.9 2243.2 2280.9" fill="#f4f7fa" opacity=".81"/>
  <polygon points="2991.8 2398.4 1558.2 2472 804.89 2381.8 804.89 2346.3 1558.2 2436.5 2991.8 2362.9" fill="#b7c0ce"/>
  <path d="m1563.3 3297h-0.149c-2.02-0.079-3.618-1.74-3.618-3.762v-829.92c0-2.079 1.686-3.765 3.765-3.765s3.765 1.686 3.765 3.765v733.48l57.377-733.77c0.164-2.073 1.958-3.619 4.048-3.461 2.072 0.163 3.621 1.974 3.46 4.047l-64.896 829.92c-0.155 1.966-1.797 3.472-3.752 3.472z" fill="#b7c0ce"/>
  <path d="m813.12 3149.6c-0.05 0-0.099-1e-3 -0.149 0-2.02-0.079-3.618-1.74-3.618-3.762v-766.01c0-2.079 1.686-3.765 3.765-3.765s3.765 1.686 3.765 3.765v669.96l52.627-670.26c0.164-2.073 2.009-3.625 4.048-3.458 2.074 0.163 3.621 1.974 3.46 4.048l-60.146 766.01c-0.154 1.965-1.796 3.47-3.752 3.47z" fill="#b7c0ce"/>
  <path d="m2984.7 3149.6c-1.949 0-3.587-1.494-3.75-3.453l-63.865-766.01c-0.173-2.072 1.368-3.892 3.439-4.064 2.08-0.168 3.892 1.368 4.065 3.439l56.348 675.85v-656.93c0-2.079 1.686-3.765 3.765-3.765s3.765 1.686 3.765 3.765v747.4c0 2.019-1.592 3.678-3.609 3.761h-0.158z" fill="#b7c0ce"/>
  <linearGradient id="r" x1="1842.3" x2="1885.9" y1="3135.1" y2="3173.9" gradientTransform="matrix(-.9902 -.14 -.14 .9902 3687.3 206.94)" gradientUnits="userSpaceOnUse">
   <stop stop-color="#444B8C" offset="0"/>
   <stop stop-color="#26264F" offset=".9964"/>
  </linearGradient>
  <path d="m1411.9 3073.2c-1.241-6.838-23.323-13.027-34.256-3.868-5.43 4.547-9.168 13.765-6.027 17.929 1.143 1.514-3.538 4.178 0.947 4.231 14.875 0.172 40.571-11.498 39.336-18.292z" fill="url(#r)"/>
  <linearGradient id="ag" x1="1610.7" x2="1610.7" y1="3538.4" y2="3462.4" gradientTransform="matrix(-.9988 .0498 .0498 .9988 2810.9 -528.79)" gradientUnits="userSpaceOnUse">
   <stop stop-color="#FFC444" offset="0"/>
   <stop stop-color="#F36F56" offset=".9964"/>
  </linearGradient>
  <path d="m1387.7 3073.2-22.907 1.142c7.936-14.428-1.606-53.672-1.606-53.672l24.736 0.726s-0.609 11.393-2.117 28.317c-0.517 5.794 0.436 14.521 1.894 23.487z" fill="url(#ag)"/>
  <linearGradient id="s" x1="1846.7" x2="1890.3" y1="3130.2" y2="3169" gradientTransform="matrix(-.9902 -.14 -.14 .9902 3687.3 206.94)" gradientUnits="userSpaceOnUse">
   <stop stop-color="#444B8C" offset="0"/>
   <stop stop-color="#26264F" offset=".9964"/>
  </linearGradient>
  <path d="m1390.8 3072.8s-27.341-6.3-30.298-0.877c-2.958 5.425-5.254 19.946 12.092 19.477 17.347-0.468 19.747-14.002 18.206-18.6z" fill="url(#s)"/>
  <linearGradient id="az" x1="2023.7" x2="2067.4" y1="3079.7" y2="3118.5" gradientTransform="matrix(-1 0 0 1 3584.5 0)" gradientUnits="userSpaceOnUse">
   <stop stop-color="#444B8C" offset="0"/>
   <stop stop-color="#26264F" offset=".9964"/>
  </linearGradient>
  <path d="m1551.4 3101c-2.187-6.596-24.918-9.634-34.462 0.965-4.738 5.262-7.151 14.913-3.457 18.595 1.344 1.341-2.917 4.634 1.53 4.057 14.752-1.91 38.561-17.063 36.389-23.617z" fill="url(#az)"/>
  <linearGradient id="ad" x1="1858.6" x2="1858.6" y1="3408.8" y2="3332.8" gradientTransform="matrix(-.9813 .1926 .1926 .9813 2684.3 -582.01)" gradientUnits="userSpaceOnUse">
   <stop stop-color="#FFC444" offset="0"/>
   <stop stop-color="#F36F56" offset=".9964"/>
  </linearGradient>
  <path d="m1524.5 3107.4-22.505 4.417c5.784-15.417-9.29-52.886-9.29-52.886l24.584-2.83s1.032 11.363 1.967 28.328c0.321 5.807 2.514 14.309 5.244 22.971z" fill="url(#ad)"/>
  <linearGradient id="av" x1="2028.1" x2="2071.7" y1="3074.8" y2="3113.6" gradientTransform="matrix(-1 0 0 1 3584.5 0)" gradientUnits="userSpaceOnUse">
   <stop stop-color="#444B8C" offset="0"/>
   <stop stop-color="#26264F" offset=".9964"/>
  </linearGradient>
  <path d="m1530.4 3103.7s-27.954-2.41-30.123 3.374c-2.169 5.783-2.411 20.483 14.7 17.591 17.11-2.891 17.592-16.628 15.423-20.965z" fill="url(#av)"/>
  <path d="m1410.8 2418.7 96.587-226.25c4.826-11.304-1.654-24.235-13.598-27.136l-176.93-42.968c-9.562-2.322-19.385 2.697-23.106 11.806l-88.839 217.46c-4.424 10.829 1.407 23.118 12.593 26.541l169.18 51.763c9.721 2.974 20.119-1.861 24.111-11.211z" fill="#26264f"/>
  <linearGradient id="bl" x1="1477.7" x2="1152" y1="2032.4" y2="2659.7" gradientUnits="userSpaceOnUse">
   <stop stop-color="#E38DDD" offset=".0036"/>
   <stop stop-color="#9571F6" offset="1"/>
  </linearGradient>
  <path d="m1406.4 2407.8 90.22-211.34c4.507-10.559-1.546-22.638-12.702-25.347l-165.26-40.135c-8.931-2.168-18.106 2.519-21.582 11.028l-82.982 203.12c-4.132 10.115 1.314 21.594 11.762 24.791l158.02 48.351c9.078 2.776 18.792-1.74 22.521-10.473z" fill="url(#bl)"/>
  <linearGradient id="h" x1="1424.4" x2="1680.3" y1="2329.8" y2="2154.7" gradientUnits="userSpaceOnUse">
   <stop stop-color="#FFC444" offset="0"/>
   <stop stop-color="#F36F56" offset=".9964"/>
  </linearGradient>
  <path d="m1462.1 2345.7 2.898-26.66 15.361-29.283c2.092-3.988 3.185-8.424 3.185-12.927v-29.078l-18.546 42.889s-12.171-11.012-16.808-13.331c-4.637-2.318-4.057 6.955-0.58 10.433 3.477 3.477-1.739 31.876 1.739 34.774l-1.159 17.388z" fill="url(#h)"/>
  <linearGradient id="al" x1="1093.9" x2="947.82" y1="2242.7" y2="2666.5" gradientUnits="userSpaceOnUse">
   <stop stop-color="#6165D7" offset=".0036"/>
   <stop stop-color="#AA80F9" offset="1"/>
  </linearGradient>
  <path d="m1314.9 2175.8c-14.423-35.269-45.382-55.553-61.435-66.072-37.985-24.888-62.302-20.344-149.53-33.616-116.25-17.688-130.17-34.447-169.24-20.865-51.323 17.842-78.13 64.429-90.415 85.778-61.932 107.63 10.476 162.33-8.114 376.73-7.592 87.559-27.058 163.65 19.706 208.65 9.847 9.475 20.861 14.431 42.889 24.343 87.362 39.308 165.69 32.532 213.28 27.82 52.375-5.185 78.845-8.156 92.733-26.661 22.183-29.559-0.652-67.127-4.637-132.14-2.861-46.679 7.753-83.668 28.979-157.64 49.348-171.98 113.41-218.74 85.778-286.31z" fill="url(#al)"/>
  <linearGradient id="o" x1="974.77" x2="1370.7" y1="2081.3" y2="1911.6" gradientUnits="userSpaceOnUse">
   <stop stop-color="#FFC444" offset="0"/>
   <stop stop-color="#F36F56" offset=".9964"/>
  </linearGradient>
  <path d="m1120.3 2012.7c5.292-18.855-3.961-36.317-6-40.079-8.539-15.752-10.726-17.904-14.8-20.632l-5.663-3.494s-0.328-0.131-0.674-0.255c-3.634-1.293-16.02-1.669-18.53-1.134-8.016 1.711-16.551 34.368-14.116 80.537-0.332 1.759-0.653 3.533-0.963 5.323-1.262 7.291-2.265 14.438-3.041 21.425-0.742 6.684-10.219 6.53-16.93 6.102-27.24-1.738-40.571 0.58-41.73 4.636-2.172 7.603 30.138 32.457 70.035 38.048 53.544 0.398 97.099-5.303 92.418-13.735-2.079-3.743-43.565-14.583-55.232-25.328-10.683-9.839-9.813-19.996-10.691-27.267 3.24-1.68 22.021-10.256 25.917-24.147z" fill="url(#o)"/>
  <linearGradient id="y" x1="1063.9" x2="1062.1" y1="1956.9" y2="2366.3" gradientUnits="userSpaceOnUse">
   <stop stop-color="#311944" offset="0"/>
   <stop stop-color="#6B3976" offset="1"/>
  </linearGradient>
  <path d="m1110.5 1935.4c-0.048 14.303-6.787 29.579-10.221 32.033-0.443 0.317-2.938 2.288-5.18 5.659-0.306 0.458-0.575 0.995-0.815 1.69-3.134 9.013 11.198 19.62 8.432 23.657-2.007 2.927-11.747-0.988-12.905 1.541-1.091 2.379 7.004 7.306 5.764 10.155-0.935 2.152-5.917 0.183-9.059 3.479-1.566 1.642-1.106 2.943-2.765 7.961-0.938 2.838-2.25 5.943-3.268 7.67-4.944 8.398-18.944 11.466-21.638 8.105-0.749-0.937-0.105-1.724-0.872-4.867 0 0-0.71-2.913-2.737-6.281-2.896-4.812-9.887-8.254-16.941-13.333-13.063-9.407-16.614-17.425-17.679-20.134-0.379-0.965-0.615-1.693-0.785-2.218-3.397-10.543-3.412-26.029 1.328-35.552 7.94-15.953 25.851-8.379 40.512-24.186 16.915-18.237 6.841-43.165 16.02-45.918 10.117-3.035 32.896 24.091 32.809 50.539z" fill="url(#y)"/>
  <linearGradient id="aw" x1="965.26" x2="1361.2" y1="2059" y2="1889.3" gradientUnits="userSpaceOnUse">
   <stop stop-color="#FFC444" offset="0"/>
   <stop stop-color="#F36F56" offset=".9964"/>
  </linearGradient>
  <path d="m1097.6 1995.1c-3.506-4.817-9.666-0.291-9.702 5.941-0.037 6.232 6.002 12.712 11.861 11.481 5.859-1.23 2.559-10.938-2.159-17.422z" fill="url(#aw)"/>
  <linearGradient id="bf" x1="-356.94" x2="-48.605" y1="2372.9" y2="2667.4" gradientTransform="matrix(-1 0 0 1 975.4 0)" gradientUnits="userSpaceOnUse">
   <stop stop-color="#AA80F9" offset="0"/>
   <stop stop-color="#6165D7" offset=".9964"/>
  </linearGradient>
  <path d="m1066.9 2717.2c15.408-30.68-22.349-71.463 2.319-118.23 20.949-39.724 59.006-30.824 76.504-67.231 21.135-43.973-24.829-76.838-23.183-143.74 1.968-79.974 70.781-160.03 111.28-153.01 26.202 4.542 29.568 43.632 48.004 86.427-16.313 35.771-35.373 80.586-52.64 140.77-21.227 73.977-31.84 110.97-28.979 157.64 3.984 65.018 26.82 102.59 4.637 132.14-13.887 18.505-40.358 21.475-92.733 26.661-47.597 4.713-125.92 11.489-213.28-27.82-11.058-4.976-19.336-8.703-26.089-12.379 136.48 20.496 181.94 3.097 194.17-21.238z" fill="url(#bf)" opacity=".3"/>
  <linearGradient id="e" x1="1318" x2="1171.9" y1="2320" y2="2743.8" gradientUnits="userSpaceOnUse">
   <stop stop-color="#6165D7" offset=".0036"/>
   <stop stop-color="#AA80F9" offset="1"/>
  </linearGradient>
  <path d="m1467.4 2340.4c-8.5-3.671-17.001-7.342-25.501-11.012-14.367 14.693-32.691 28.981-48.105 24.342-22.976-6.914-17.231-49.184-45.207-123.45-31.698-84.148-67.662-105.78-85.778-113.6-10.119-4.369-17.105-7.269-25.502-5.217-38.637 9.445-51.412 110.13-40.571 185.47 6.108 42.446 18.085 125.67 86.358 165.18 9.699 5.612 63.083 36.503 115.92 12.171 45.135-20.788 73.024-74.121 68.39-133.88z" fill="url(#e)"/>
  <linearGradient id="u" x1="-30.968" x2="-283.72" y1="2601.1" y2="2781.7" gradientTransform="matrix(-1 0 0 1 975.4 0)" gradientUnits="userSpaceOnUse">
   <stop stop-color="#444B8C" offset="0"/>
   <stop stop-color="#26264F" offset=".9964"/>
  </linearGradient>
  <path d="m1402.7 3023.8c-14.129 1.568-28.258 3.141-42.387 4.709-19.083-21.152-47.571-58.034-62.796-109.89-29.166-99.341 16.498-164.54-14.129-189.96-35.31-29.302-105.06 49.866-259.03 72.218-49.557 7.193-159.57 23.167-204.09-36.109-18.046-24.031-28.411-64.533-14.129-98.903 25.604-61.617 109.94-54.217 387.76-108.32 107.02-20.844 123.93-27.669 149.36-15.532 125.75 60.031 73.309 399.46 59.437 481.79z" fill="url(#u)"/>
  <linearGradient id="c" x1="-576.1" x2="49.834" y1="2822.2" y2="2822.2" gradientTransform="matrix(-1 0 0 1 975.4 0)" gradientUnits="userSpaceOnUse">
   <stop stop-color="#444B8C" offset="0"/>
   <stop stop-color="#26264F" offset=".9964"/>
  </linearGradient>
  <path d="m1528.8 3063.8c-14.129 1.568-28.258 3.141-42.387 4.709-19.082-21.152-47.571-58.034-62.796-109.89-29.166-99.34 16.498-164.54-14.129-189.96-35.31-29.302-105.06 49.866-259.03 72.219-49.557 7.193-159.57 23.167-204.09-36.109-18.046-24.031-28.411-64.533-14.129-98.904 25.604-61.617 109.94-54.217 387.76-108.32 107.02-20.844 123.93-27.669 149.36-15.532 125.74 60.031 73.309 399.46 59.437 481.79z" fill="url(#c)"/>
  <ellipse cx="1045.2" cy="3234.2" rx="234.32" ry="95.633" fill="#b7c0ce"/>
  <path d="m810.85 3223c0 49.857 104.91 90.275 234.32 90.275 129.41 0 234.32-40.417 234.32-90.275 0-49.856-104.91-131.43-234.32-131.43-129.41 0-234.32 81.578-234.32 131.43z" fill="#f4f7fa"/>
  <linearGradient id="cd" x1="-693.06" x2="-299.28" y1="3179.4" y2="3179.4" gradientTransform="matrix(-1 0 0 1 511.58 0)" gradientUnits="userSpaceOnUse">
   <stop stop-color="#AA80F9" offset="0"/>
   <stop stop-color="#6165D7" offset=".9964"/>
  </linearGradient>
  <path d="m810.85 3223c0-49.857 104.91-131.43 234.32-131.43 59.753 0 114.25 17.409 155.64 41.04 2.897 6.07 4.247 12.104 3.698 17.834-2.688 28.051-48.437 45.297-74.699 50.984-66.132 14.324-98.426-25.222-152.95-23.714-33.711 0.931-80.427 17.867-135.84 89.589-19.179-13.088-30.174-28.195-30.174-44.299z" fill="url(#cd)" opacity=".3"/>
  <path d="m1032.3 3136.8c9.362 2.33 18.098 2.238 26.316 0.15 7.453-1.892 12.571-8.789 12.571-16.481l-1e-3 -264.22h-52.104v263.91c0 7.928 5.524 14.729 13.218 16.643z" fill="#fff"/>
  <linearGradient id="ao" x1="-559.65" x2="-507.54" y1="2997.4" y2="2997.4" gradientTransform="matrix(-1 0 0 1 511.58 0)" gradientUnits="userSpaceOnUse">
   <stop stop-color="#AA80F9" offset="0"/>
   <stop stop-color="#6165D7" offset=".9964"/>
  </linearGradient>
  <path d="m1032.3 3136.8c9.362 2.33 18.098 2.238 26.316 0.15 7.453-1.892 12.571-8.789 12.571-16.481l-1e-3 -264.22h-52.104v263.91c0 7.928 5.524 14.729 13.218 16.643z" fill="url(#ao)" opacity=".65"/>
  <linearGradient id="bt" x1="-274.94" x2="-370.47" y1="2942" y2="2817.6" gradientTransform="matrix(-1 0 0 1 511.58 0)" gradientUnits="userSpaceOnUse">
   <stop stop-color="#311944" offset="0"/>
   <stop stop-color="#893976" offset="1"/>
  </linearGradient>
  <path d="m1320.5 2745.1-79.599-50.319c-3.311-18.797-40.831-215.44-193.16-277.19-61.945-25.11-128.61-22.131-165.19-20.496-73.031 3.261-125.12 5.588-150.18 40.425-32.173 44.732 21.787 85.298 10.614 213.25-4.556 52.179-16.143 75.354-1.711 109.92 17.289 41.408 57.383 64.36 88.556 77.28 37.264 21.64 102.15 52.475 187.84 59.985 144.35 12.651 252.11-49.27 289.17-72.962 16.479-5.196 28.861-18.899 32.365-35.818 3.553-17.155-3.902-34.718-18.711-44.08z" fill="url(#bt)"/>
  <path d="m1283.9 2780.9c-2.942-17.694-52.256-3.026-98.903-37.677-69.73-51.797-33.539-139.54-94.194-223.71-55.665-77.245-167.73-116.56-202.52-87.129-46.307 39.177 67.026 185.69 0 280.23-32.559 45.924-82.163 43.712-82.42 70.646-0.405 42.562 123.05 91.632 240.19 89.484 125.94-2.309 242.51-63.756 237.84-91.84z" fill="#fff" opacity=".26"/>
  <linearGradient id="p" x1="1915.3" x2="2429.7" y1="2389.2" y2="2389.2" gradientUnits="userSpaceOnUse">
   <stop stop-color="#444B8C" offset="0"/>
   <stop stop-color="#26264F" offset=".9964"/>
  </linearGradient>
  <path d="m2429.7 2373-514.39-3.828v11.325c0 3.074 2.244 5.688 5.282 6.154l145.45 22.302c1.726 0.265 3.477 0.335 5.218 0.209l352.85-25.428c3.151-0.227 5.59-2.849 5.59-6.007z" fill="url(#p)"/>
  <linearGradient id="at" x1="1910.1" x2="2251.6" y1="2261.1" y2="2261.1" gradientUnits="userSpaceOnUse">
   <stop stop-color="#444B8C" offset="0"/>
   <stop stop-color="#26264F" offset=".9964"/>
  </linearGradient>
  <path d="m2243 2354.3-322.4 20.719c-5.769 0.37-10.459-3.569-10.459-8.8v-209.59c0-5.231 4.691-9.472 10.459-9.472h322.4c4.753 0 8.596 3.833 8.596 8.563v189.46c0 4.729-3.843 8.809-8.596 9.115z" fill="url(#at)"/>
  <path d="m2248.1 2354.3-322.4 20.719c-5.769 0.37-10.46-3.569-10.46-8.8v-209.59c0-5.231 4.69-9.472 10.46-9.472h322.4c4.753 0 8.596 3.833 8.596 8.563v189.46c0 4.729-3.843 8.809-8.596 9.115z" fill="#26264f"/>
  <linearGradient id="as" x1="2291.3" x2="2065.1" y1="1398.8" y2="2343.4" gradientUnits="userSpaceOnUse">
   <stop stop-color="#6165D7" offset=".0036"/>
   <stop stop-color="#AA80F9" offset="1"/>
  </linearGradient>
  <path d="m2238.1 2340.9-300.28 17.997c-4.695 0.281-8.51-2.953-8.51-7.223v-183.5c0-4.271 3.815-7.747 8.51-7.765l300.28-1.13c3.92-0.015 7.092 3.126 7.092 7.016v167.13c0 3.891-3.172 7.234-7.092 7.469z" fill="url(#as)"/>
  <path d="m2098.3 2152.8c0 1.947-1.66 3.531-3.709 3.536-2.052 0.01-3.717-1.572-3.717-3.524s1.665-3.535 3.717-3.537c2.049 0 3.709 1.578 3.709 3.525z" fill="#fff"/>
  <path d="m2171.8 2296.9c-24.982-12.169-44.624 3.251-63.581-11.963-11.492-9.224-5.85-16.102-19.992-29.885-15.662-15.267-25.86-10.135-41.601-23.875-19.904-17.373-9.949-30.89-27.094-43.364-20.798-15.132-43.228-1.126-63.027-15.638-8.539-6.259-13.225-15.359-15.672-25.037h-19.372c-3.395 0-6.151 2.491-6.151 5.563v217.41c0 3.073 2.757 5.387 6.151 5.168l330.26-21.224c1.621-0.104 3.058-0.96 3.98-2.203-24.176-0.798-39.029-8.135-48.523-15.721-18.573-14.838-15.351-29.471-35.38-39.228z" fill="#fff" opacity=".48"/>
  <path d="m2261 2353.7-345.71 21.808 150.74 23.112c1.726 0.265 3.477 0.335 5.218 0.209l358.44-25.831-163.18-19.151c-1.825-0.212-3.666-0.263-5.5-0.147z" fill="#26264f"/>
  <polygon points="2342.6 2367.6 2057.3 2387.3 1965.7 2375.7 2253.5 2357.2" fill="#d8dee8" opacity=".47"/>
  <linearGradient id="ah" x1="2917" x2="2933.9" y1="2928" y2="3143.2" gradientTransform="translate(-626.26)" gradientUnits="userSpaceOnUse">
   <stop stop-color="#26264F" offset=".0036"/>
   <stop stop-color="#444B8C" offset="1"/>
  </linearGradient>
  <path d="m2326.5 3035.1s-75.616 5.255-76.727 10.192c-1.112 4.938 51.325 24.023 69.646 24.735 18.322 0.712 33.394-4.703 31.735-12.462-1.658-7.761-8.072-27.28-8.072-27.28z" fill="url(#ah)"/>
  <linearGradient id="bp" x1="2014.7" x2="2011.1" y1="2779.4" y2="2522" gradientTransform="matrix(.9853 .171 -.171 .9853 820.66 -36.205)" gradientUnits="userSpaceOnUse">
   <stop stop-color="#FFC444" offset="0"/>
   <stop stop-color="#F36F56" offset=".9964"/>
  </linearGradient>
  <path d="m2322.9 3001.5-1.342 35.686s11.502 6.493 20.634 2.763l10.153-37.632z" fill="url(#bp)"/>
  <linearGradient id="ai" x1="2705.5" x2="2722.4" y1="2913.6" y2="3128.8" gradientTransform="translate(-626.26)" gradientUnits="userSpaceOnUse">
   <stop stop-color="#26264F" offset=".0036"/>
   <stop stop-color="#444B8C" offset="1"/>
  </linearGradient>
  <path d="m2115 3020.7s-75.616 5.255-76.727 10.192c-1.112 4.938 51.325 24.023 69.646 24.735 18.322 0.712 33.394-4.703 31.736-12.462-1.659-7.762-8.072-27.28-8.072-27.28z" fill="url(#ai)"/>
  <linearGradient id="cc" x1="1803.9" x2="1800.3" y1="2801.4" y2="2544" gradientTransform="matrix(.9853 .171 -.171 .9853 820.66 -36.205)" gradientUnits="userSpaceOnUse">
   <stop stop-color="#FFC444" offset="0"/>
   <stop stop-color="#F36F56" offset=".9964"/>
  </linearGradient>
  <path d="m2111.4 2987.1-1.342 35.686s11.502 6.493 20.633 2.763l10.153-37.632z" fill="url(#cc)"/>
  <linearGradient id="ab" x1="2711.6" x2="2615" y1="2471" y2="2614.7" gradientUnits="userSpaceOnUse">
   <stop stop-color="#893976" offset="0"/>
   <stop stop-color="#311944" offset="1"/>
  </linearGradient>
  <path d="m2314.9 3006.5c14.129 1.569 28.258 3.142 42.387 4.709 19.083-21.152 47.571-58.034 62.796-109.89 29.353-99.98-13.157-172.03 14.129-189.96 38.621-25.379 122.33 120.74 256.68 116.98 55.126-1.541 127.08-28.538 154.74-87.336 4.176-8.877 24.681-55.344 4.71-98.904-20.619-44.977-122.91-64.547-326.65-101.86-87.454-16.015-131.61-24.004-149.36-15.532-125.74 60.032-73.309 399.46-59.437 481.79z" fill="url(#ab)"/>
  <linearGradient id="l" x1="2099.1" x2="2792" y1="2787.3" y2="2787.3" gradientUnits="userSpaceOnUse">
   <stop stop-color="#893976" offset="0"/>
   <stop stop-color="#311944" offset="1"/>
  </linearGradient>
  <path d="m2099.1 3007.1c14.615 2.543 29.229 5.087 43.844 7.63 17.751-26.146 44.617-67.113 74.66-119.09 62.626-108.36 61.482-130.37 90.424-144.32 61.256-29.518 107.54 50.229 259.03 72.218 49.557 7.194 159.57 23.167 204.09-36.109 18.046-24.031 28.411-64.533 14.129-98.903-25.604-61.617-109.94-54.217-387.76-108.32-108.34-21.102-123.12-24.864-149.36-15.532-146.57 52.119-149.42 371.25-149.05 442.43z" fill="url(#l)"/>
  <linearGradient id="ap" x1="2469.6" x2="2778" y1="2267.3" y2="2561.8" gradientUnits="userSpaceOnUse">
   <stop stop-color="#E38DDD" offset=".0036"/>
   <stop stop-color="#9571F6" offset="1"/>
  </linearGradient>
  <path d="m2402.7 2158.6c14.423-35.272 45.382-55.555 61.436-66.073 8.034-5.266 15.457-9.212 22.994-12.29 58.137-23.737 116.18-22.104 126.54-21.327 25.109 1.881 87.123 6.522 133.07 46.333 22.239 19.271 40.016 46.172 65.936 197.81 36.148 211.48 6.809 189.8 35.323 275.52 15.088 45.358 38.594 97.4 13.732 130.63-8.03 10.735-19.502 13.816-42.889 24.34-87.361 39.31-165.69 32.536-213.28 27.821-52.375-5.188-78.845-8.155-92.733-26.662-22.183-29.56 0.652-67.127 4.636-132.14 2.861-46.679-7.752-83.671-28.979-157.65-49.348-171.98-113.41-218.74-85.779-286.31z" fill="url(#ap)"/>
  <linearGradient id="be" x1="2100.8" x2="2093.8" y1="2359.9" y2="2392" gradientUnits="userSpaceOnUse">
   <stop stop-color="#FFC444" offset="0"/>
   <stop stop-color="#F36F56" offset=".9964"/>
  </linearGradient>
  <path d="m2156.5 2369.2-55.822-10.736c-4.01-0.771-8.126-0.812-12.152-0.12l-48.286 8.303s31.397 12.63 58.086 8.67c26.688-3.96 55.843 11.055 55.843 11.055z" fill="url(#be)"/>
  <linearGradient id="g" x1="5810.6" x2="6003" y1="1401.2" y2="1643.2" gradientTransform="matrix(.9663 .2576 -.2576 .9663 -2744.3 -923.84)" gradientUnits="userSpaceOnUse">
   <stop stop-color="#FFC444" offset="0"/>
   <stop stop-color="#F36F56" offset=".9964"/>
  </linearGradient>
  <path d="m2526.1 2019.8c-9.387-14.184 4.665-41.472 10.223-52.266 0.192-0.373 0.436-0.861 0.959-1.826 8.539-15.753 10.726-17.905 14.8-20.633l5.663-3.496s0.328-0.128 0.674-0.253c3.634-1.292 16.02-1.67 18.53-1.131 8.016 1.71 16.551 34.366 14.115 80.534 0.333 1.762 0.653 3.537 0.963 5.326 1.262 7.29 2.265 14.438 3.041 21.424 0.742 6.683 10.219 6.531 16.93 6.103 27.24-1.739 40.571 0.579 41.73 4.636 2.172 7.603-30.138 32.457-70.035 38.046-53.544 0.4-97.099-5.303-92.418-13.734 2.079-3.744 43.565-14.584 55.232-25.328 10.683-9.838 9.813-19.993 10.691-27.264-5.523 0.294-23.94 0.68-31.098-10.138z" fill="url(#g)"/>
  <path d="m2674.2 2015.6s0.82-13.932-16.309-45.976c0 0-32.454-58.979-75.644-56.193s-58.515 38.081-30.186 63.624c0 0 5.607 3.128 0.326 8.995s-6.75 19.953 12.329 22.12-46.325 52.011 0 62.693c46.325 10.683 118.77 4.181 109.48-55.263z" fill="#26264f"/>
  <linearGradient id="ay" x1="5819.8" x2="6034.6" y1="1389" y2="1659.2" gradientTransform="matrix(.9663 .2576 -.2576 .9663 -2744.3 -923.84)" gradientUnits="userSpaceOnUse">
   <stop stop-color="#FFC444" offset="0"/>
   <stop stop-color="#F36F56" offset=".9964"/>
  </linearGradient>
  <path d="m2554.1 1988.1c3.506-4.817 9.666-0.291 9.702 5.942 0.037 6.232-6.002 12.712-11.861 11.481s-2.559-10.94 2.159-17.423z" fill="url(#ay)"/>
  <linearGradient id="af" x1="2385.2" x2="2693.6" y1="2355.7" y2="2650.1" gradientUnits="userSpaceOnUse">
   <stop stop-color="#E38DDD" offset=".0036"/>
   <stop stop-color="#9571F6" offset="1"/>
  </linearGradient>
  <path d="m2650.7 2699.9c-15.408-30.68 22.348-71.462-2.319-118.23-20.949-39.724-59.006-30.824-76.504-67.231-21.135-43.973 24.829-76.838 23.183-143.74-1.968-79.974-70.781-160.03-111.28-153.01-26.202 4.542-29.569 43.633-48.004 86.427 16.313 35.771 35.372 80.586 52.64 140.77 21.227 73.978 31.84 110.97 28.979 157.65-3.984 65.018-26.82 102.58-4.636 132.14 13.887 18.505 40.358 21.475 92.733 26.661 47.597 4.712 125.92 11.489 213.28-27.82 11.058-4.976 19.337-8.703 26.089-12.379-136.49 20.496-181.95 3.098-194.17-21.238z" fill="url(#af)" opacity=".3"/>
  <linearGradient id="m" x1="2399.1" x2="2748.9" y1="2321.1" y2="2655.1" gradientUnits="userSpaceOnUse">
   <stop stop-color="#E38DDD" offset=".0036"/>
   <stop stop-color="#9571F6" offset="1"/>
  </linearGradient>
  <path d="m2142.3 2385.4c1.583-7.125 3.166-14.244 4.749-21.368 107.25 19.225 154.15-2.355 176.8-27.573 20.794-23.144 11.928-35.102 45.207-123.45 31.698-84.149 67.662-105.78 85.778-113.6 10.119-4.37 17.105-7.267 25.501-5.216 38.637 9.443 51.412 110.13 40.571 185.47-6.108 42.442-18.084 125.67-86.358 165.18-1.255 0.727-3.242 1.876-5.866 3.279-8.597 4.599-42.761 21.028-110.05 8.89-79.338-14.313-156.74-59.781-176.33-71.611z" fill="url(#m)"/>
  <ellipse cx="2638.9" cy="3183.2" rx="234.32" ry="95.633" fill="#b7c0ce"/>
  <path d="m2873.2 3171.9c0 49.857-104.91 90.275-234.32 90.275-129.41 0-234.32-40.418-234.32-90.275 0-49.856 104.91-131.44 234.32-131.44 129.41 0 234.32 81.579 234.32 131.44z" fill="#f4f7fa"/>
  <linearGradient id="bd" x1="2553.7" x2="2947.5" y1="3128.4" y2="3128.4" gradientTransform="translate(-74.329)" gradientUnits="userSpaceOnUse">
   <stop stop-color="#AA80F9" offset="0"/>
   <stop stop-color="#6165D7" offset=".9964"/>
  </linearGradient>
  <path d="m2873.2 3171.9c0-49.857-104.91-131.44-234.32-131.44-59.753 0-114.25 17.409-155.64 41.04-2.897 6.07-4.247 12.104-3.698 17.834 2.687 28.051 48.437 45.297 74.699 50.984 66.131 14.324 98.426-25.222 152.95-23.714 33.712 0.932 80.427 17.867 135.84 89.59 19.18-13.088 30.175-28.195 30.175-44.299z" fill="url(#bd)" opacity=".3"/>
  <path d="m2651.7 3085.8c-9.362 2.33-18.098 2.238-26.315 0.149-7.454-1.892-12.571-8.789-12.571-16.481v-264.22h52.104v263.91c0 7.928-5.526 14.729-13.219 16.644z" fill="#fff"/>
  <linearGradient id="ae" x1="2687.1" x2="2739.3" y1="2946.4" y2="2946.4" gradientTransform="translate(-74.329)" gradientUnits="userSpaceOnUse">
   <stop stop-color="#AA80F9" offset="0"/>
   <stop stop-color="#6165D7" offset=".9964"/>
  </linearGradient>
  <path d="m2651.7 3085.8c-9.362 2.33-18.098 2.238-26.315 0.149-7.454-1.892-12.571-8.789-12.571-16.481v-264.22h52.104v263.91c0 7.928-5.526 14.729-13.219 16.644z" fill="url(#ae)" opacity=".65"/>
  <linearGradient id="bg" x1="2971.9" x2="2876.3" y1="2891" y2="2766.5" gradientTransform="translate(-74.329)" gradientUnits="userSpaceOnUse">
   <stop stop-color="#311944" offset="0"/>
   <stop stop-color="#893976" offset="1"/>
  </linearGradient>
  <path d="m2363.6 2694 79.598-50.319c3.312-18.797 40.832-215.44 193.16-277.19 61.945-25.11 128.61-22.132 165.19-20.496 73.031 3.262 125.12 5.588 150.18 40.425 32.173 44.732-21.787 85.298-10.614 213.25 4.556 52.179 16.143 75.354 1.711 109.92-17.289 41.408-57.383 64.36-88.556 77.28-37.264 21.639-102.15 52.475-187.84 59.985-144.35 12.651-252.11-49.27-289.17-72.962-16.479-5.196-28.861-18.899-32.365-35.818-3.551-17.155 3.904-34.719 18.712-44.08z" fill="url(#bg)"/>
  <path d="m2400.2 2729.9c2.942-17.693 52.256-3.026 98.904-37.677 69.73-51.797 33.539-139.54 94.194-223.71 55.666-77.245 167.73-116.56 202.52-87.129 46.307 39.177-67.026 185.69 0 280.23 32.558 45.924 82.163 43.712 82.42 70.646 0.405 42.562-123.05 91.632-240.19 89.484-125.94-2.309-242.51-63.756-237.84-91.84z" fill="#fff" opacity=".26"/>
  <linearGradient id="ba" x1="1867.5" x2="1877.6" y1="3028.4" y2="2878.7" gradientUnits="userSpaceOnUse">
   <stop stop-color="#FFC444" offset="0"/>
   <stop stop-color="#F36F56" offset=".9964"/>
  </linearGradient>
  <path d="m1860.3 2891s28.07 7.845 31.054 48.396c-4.59-0.317-15.292 0-15.292 0s1.982-29.49-17.985-35.219c1.606-3.437 2.223-13.177 2.223-13.177z" fill="url(#ba)"/>
  <linearGradient id="aa" x1="1806" x2="1813.2" y1="2977.9" y2="2870.8" gradientUnits="userSpaceOnUse">
   <stop stop-color="#311944" offset=".1"/>
   <stop stop-color="#371B47" offset=".267"/>
   <stop stop-color="#462150" offset=".4803"/>
   <stop stop-color="#612A5F" offset=".7186"/>
   <stop stop-color="#853774" offset=".9736"/>
   <stop stop-color="#893976" offset="1"/>
  </linearGradient>
  <path d="m1757.3 2888.5c0.7 7.383 1.399 14.766 2.099 22.149 13.872-3.315 29.042-7.162 45.35-7.869 21.204-0.919 40.639 1.127 57.947 4.685 0.77-0.932 2.401-3.174 3.153-6.824 1.212-5.882-0.818-10.764-1.194-11.634-8.817-2.711-18.378-4.983-28.623-6.531-29.378-4.437-55.924-0.035-78.732 6.024z" fill="url(#aa)"/>
  <linearGradient id="ar" x1="1760.9" x2="1841.7" y1="2900.9" y2="2944.2" gradientUnits="userSpaceOnUse">
   <stop stop-color="#311944" offset=".1"/>
   <stop stop-color="#371B47" offset=".267"/>
   <stop stop-color="#462150" offset=".4803"/>
   <stop stop-color="#612A5F" offset=".7186"/>
   <stop stop-color="#853774" offset=".9736"/>
   <stop stop-color="#893976" offset="1"/>
  </linearGradient>
  <path d="m1756 2894.9c0.041-2.671 0.273-6.005 1.307-6.397 0.974-0.369 2.283 2.045 2.846 3.387 0.234 0.559 0.751 1.912 1.074 6.221 0.417 5.555-0.069 8.278-0.514 9.96-0.267 1.011-0.685 2.543-1.307 2.582-0.499 0.031-0.934-0.936-1.58-2.809-0.871-2.523-1.921-6.731-1.826-12.944z" fill="url(#ar)"/>
  <linearGradient id="t" x1="1736.4" x2="1747.9" y1="3046.5" y2="2875.9" gradientUnits="userSpaceOnUse">
   <stop stop-color="#FFC444" offset="0"/>
   <stop stop-color="#F36F56" offset=".9964"/>
  </linearGradient>
  <path d="m1730.4 2941.6c5.816 0.955 19.957 3.812 19.957 3.812s-9.22-25.937 8.164-37.908c0.45-1.959 0.907-5.07 0.358-8.809-0.425-2.892-1.312-5.203-2.077-6.803-7.381 3.654-23.446 15.951-26.402 49.708z" fill="url(#t)"/>
  <linearGradient id="ax" x1="1634" x2="1589.3" y1="3033.4" y2="2624.9" gradientUnits="userSpaceOnUse">
   <stop stop-color="#311944" offset=".1"/>
   <stop stop-color="#6D2F66" offset=".6853"/>
   <stop stop-color="#893976" offset="1"/>
  </linearGradient>
  <path d="m1610.1 2948.4s0.712-13.62 24.965-13.62c3.819 2.483 4.01 13.62 4.01 13.62z" fill="url(#ax)"/>
  <linearGradient id="bu" x1="1833.6" x2="1531.1" y1="3205.1" y2="3036.6" gradientUnits="userSpaceOnUse">
   <stop stop-color="#311944" offset="0"/>
   <stop stop-color="#893976" offset="1"/>
  </linearGradient>
  <path d="m1588.6 3216.2 66.375 35.898 40.216-131.84-66.265-176.74-18.79 4.922-28.51 253.84c-0.646 5.745 2.141 11.309 6.974 13.923z" fill="url(#bu)"/>
  <linearGradient id="x" x1="1561.3" x2="1651.2" y1="2972.8" y2="3123.5" gradientUnits="userSpaceOnUse">
   <stop stop-color="#311944" offset="0"/>
   <stop stop-color="#893976" offset="1"/>
  </linearGradient>
  <path d="m1695.2 3120.2-66.265-176.74-18.79 4.922c4.626 15.598 6.845 41.001 7.889 55.142 4.442 60.176 19.195 76.921 12.048 118.9-5.943 34.906-18.92 39.643-17.786 63.127 1.236 25.577 17.935 46.995 37.789 63.838l4.898 2.648z" fill="url(#x)" opacity=".3"/>
  <linearGradient id="aj" x1="1818.1" x2="1850.8" y1="2792.4" y2="3230.7" gradientUnits="userSpaceOnUse">
   <stop stop-color="#311944" offset=".1"/>
   <stop stop-color="#6D2F66" offset=".6853"/>
   <stop stop-color="#893976" offset="1"/>
  </linearGradient>
  <polygon points="2050.7 3223.7 1654.9 3252.1 1628.9 2943.5 1993.3 2943.5" fill="url(#aj)"/>
  <g opacity=".2">
   <linearGradient id="bx" x1="1747.5" x2="2020" y1="3032.3" y2="3242.3" gradientUnits="userSpaceOnUse">
    <stop stop-color="#311944" offset="0"/>
    <stop stop-color="#893976" offset="1"/>
   </linearGradient>
   <path d="m1993.3 2943.5h-122.78c-2.261 5.74-5.717 13.683-10.763 22.669-54.907 97.791-180.6 110.11-178.33 126.18 3.394 24.022 283.3-10.075 290.44 22.933 3.45 15.934-55.656 52.155-117.42 65.869-73.951 16.421-128.3-4.274-164.44 32.62-12.238 12.493-17.641 27.127-20.272 37.024l380.94-27.144z" fill="url(#bx)"/>
  </g>
  <linearGradient id="bj" x1="1676.1" x2="1793.1" y1="3017" y2="3012.4" gradientUnits="userSpaceOnUse">
   <stop stop-color="#311944" offset=".1"/>
   <stop stop-color="#6D2F66" offset=".6853"/>
   <stop stop-color="#893976" offset="1"/>
  </linearGradient>
  <path d="m1635.1 2934.8c-4.106 0-9.846-0.457-16.089 2.817-1.333 0.699-2.51 1.468-3.543 2.249l2.874-0.912c4.624-1.211 10.999 0.401 13.38 4.545 2.926 5.093 3.979 16.878 4.619 22.716 1.82 16.606 13.005 119.93 13.005 119.93 0.838 8.712 8.242 15.31 16.993 15.142l339.01-15.753c2.574-0.049 5.119-0.767 7.243-2.222 4.432-3.036 6.434-8.301 5.407-13.304l-17.175-123.06c-1.453-7.073-7.678-12.15-14.899-12.15z" fill="url(#bj)"/>
  <linearGradient id="bw" x1="1854.4" x2="1818.3" y1="3366.5" y2="2960.8" gradientUnits="userSpaceOnUse">
   <stop stop-color="#311944" offset=".1"/>
   <stop stop-color="#371B47" offset=".267"/>
   <stop stop-color="#462150" offset=".4803"/>
   <stop stop-color="#612A5F" offset=".7186"/>
   <stop stop-color="#853774" offset=".9736"/>
   <stop stop-color="#893976" offset="1"/>
  </linearGradient>
  <path d="m1638.7 2934.8c-4.106 0-8.976-0.501-14.403 0.8-1.464 0.351-3.805 0.995-4.838 1.776 0 0 11.507-2.457 15.864 6.123 2.66 5.237 3.979 16.878 4.619 22.716 1.82 16.606 13.005 119.93 13.005 119.93 0.838 8.712 8.242 15.31 16.993 15.142l342.83-6.586c2.575-0.049 5.119-0.767 7.243-2.222 4.432-3.036 6.434-8.302 5.407-13.304l-20.994-132.23c-1.453-7.073-7.678-12.15-14.899-12.15z" fill="url(#bw)"/>
  <linearGradient id="ac" x1="1872.2" x2="1810.7" y1="3462.5" y2="2900.5" gradientUnits="userSpaceOnUse">
   <stop stop-color="#311944" offset="0"/>
   <stop stop-color="#893976" offset="1"/>
  </linearGradient>
  <path d="m2025.4 3079.2-20.994-132.23c-1.453-7.073-7.678-12.15-14.899-12.15h-350.83c-4.106 0-8.976-0.501-14.404 0.8-1.463 0.351-3.805 0.995-4.838 1.776 0 0 11.507-2.457 15.864 6.123 0.419 0.825 0.802 1.823 1.156 2.918 33.318 1.178 66.635 0.33 99.952 2.252 65.862 3.7 132.46 3.7 194.62 27.381 19.884 7.575 33.515 34.789 28.121 47.361-3.89 9.065-17.163 8.347-21.795 20.243-4.871 12.511 6.809 21.012 1.91 29.792-5.135 9.202-20.73 4.818-45.977 11.387-13.91 3.619-24.579 8.958-31.243 12.764l150.7-2.895c2.575-0.05 5.119-0.767 7.243-2.222 4.433-3.036 6.435-8.301 5.408-13.304z" fill="url(#ac)" opacity=".1"/>
  <linearGradient id="w" x1="1967.5" x2="1766.9" y1="3168.6" y2="3063.7" gradientUnits="userSpaceOnUse">
   <stop stop-color="#FFC444" offset="0"/>
   <stop stop-color="#F36F56" offset=".9964"/>
  </linearGradient>
  <path d="m1861.4 3119.3-42.93 9.194-4.534 0.33c-4.568 0.333-8.5-3.18-8.699-7.809l-1.884-43.76c-0.199-4.629 3.416-8.466 7.996-8.528l4.557-0.061 43.155 4.885c4.123-0.055 7.595-2.008 7.782 2.333l1.767 41.039c0.187 4.343-3.098 2.078-7.21 2.377z" fill="url(#w)"/>
  <linearGradient id="bq" x1="1787.1" x2="1993.8" y1="3079.8" y2="3153.8" gradientUnits="userSpaceOnUse">
   <stop stop-color="#FFC444" offset="0"/>
   <stop stop-color="#F36F56" offset=".9964"/>
  </linearGradient>
  <path d="m1864.6 3125.4-47.563 3.464c-4.568 0.333-8.5-3.18-8.699-7.809l-1.884-43.76c-0.199-4.629 3.416-8.466 7.996-8.528l47.684-0.636c4.123-0.055 7.623 3.452 7.809 7.793l1.767 41.039c0.188 4.343-2.998 8.138-7.11 8.437z" fill="url(#bq)"/>
  <path d="m1038.7 1275.9c16.526 8.391 37.29 0.687 46.376-17.209 9.085-17.895 3.053-39.204-13.473-47.595-0.857-0.435-1.73-0.8-2.607-1.15 3.071-9.902 5.386-19.882 6.938-29.865 0.948 0 1.898-0.018 2.864-0.105 18.855-1.681 33.82-19.007 33.425-38.7-0.395-19.694-16-34.296-34.856-32.615-0.985 0.089-1.953 0.244-2.916 0.415-1.97-9.759-4.668-19.293-8.073-28.519 0.867-0.508 1.73-1.032 2.573-1.623 16.132-11.302 21.29-33.608 11.52-49.823-9.769-16.214-30.767-20.196-46.899-8.895-0.826 0.58-1.604 1.205-2.372 1.84-6.372-7.043-13.36-13.571-20.921-19.528 0.531-0.872 1.052-1.755 1.523-2.682 9.086-17.895 20.958-37.443 4.303-45.574-38.531-18.809-55.065-2.707-64.151 15.188-0.47 0.927-0.876 1.868-1.266 2.812-9.271-2.589-18.665-4.379-28.111-5.366 0.058-0.995 0.104-1.992 0.084-3.001-0.395-19.693 5.448-30.35-13.478-30.718-41.273-0.802-55.198 17.112-54.803 36.804 0.02 1.03 0.106 2.036 0.209 3.036-9.458 2.696-18.747 6.143-27.789 10.312-0.43-0.878-0.876-1.751-1.386-2.599-9.769-16.214-30.767-20.197-46.899-8.894s-21.29 33.609-11.52 49.823c0.5 0.831 1.048 1.608 1.605 2.374-7.144 7.144-13.834 14.902-20.017 23.225-0.799-0.502-1.61-0.992-2.466-1.426-16.527-8.392-37.29-0.687-46.376 17.209-9.085 17.895-3.053 39.204 13.473 47.595 0.857 0.435 1.731 0.8 2.607 1.15-3.071 9.902-5.386 19.881-6.938 29.865-0.947 0-1.898 0.018-2.863 0.104-18.856 1.681-33.821 19.008-33.426 38.702 0.395 19.693 16.001 34.294 34.856 32.613 0.985-0.087 1.953-0.242 2.916-0.414 1.97 9.76 4.668 19.293 8.072 28.52-0.867 0.507-1.73 1.032-2.573 1.623-16.132 11.301-21.289 33.608-11.519 49.823 9.769 16.214 42.113 23.747 58.245 12.445 0.827-0.579-9.742-4.755-8.974-5.39 6.372 7.043 13.36 13.571 20.921 19.528-0.531 0.872-1.052 1.755-1.523 2.682-9.086 17.895-3.054 39.204 13.473 47.595s37.29 0.687 46.375-17.209c0.47-0.927 0.876-1.869 1.266-2.811 9.271 2.589 18.665 4.378 28.111 5.366-0.059 0.995-0.105 1.991-0.084 3.001 0.395 19.693 16 34.295 34.856 32.614 18.855-1.681 33.821-19.008 33.425-38.701-0.02-1.029-0.106-2.035-0.209-3.035 9.459-2.696 18.747-6.143 27.789-10.312 0.429 0.879 0.876 1.751 1.387 2.598 9.769 16.215 30.766 20.198 46.899 8.895 16.132-11.302 21.289-33.608 11.52-49.823-0.501-0.83-1.049-1.607-1.606-2.373 7.144-7.145 13.835-14.902 20.017-23.225 0.799 0.498 1.61 0.988 2.466 1.423zm-206.02 2.614c-60.005-30.466-81.907-107.83-48.918-172.81 32.988-64.974 108.37-92.947 168.38-62.481s81.907 107.83 48.918 172.81c-32.988 64.972-108.37 92.946-168.38 62.48z" fill="#c9ced6"/>
  <path d="m1078.8 1179.9c18.855-1.681 33.82-19.008 33.425-38.701s-16-34.296-34.856-32.615c-0.985 0.088-1.953 0.244-2.916 0.414-1.969-9.76-4.668-19.292-8.073-28.519 0.867-0.507 1.73-1.032 2.573-1.623 16.132-11.301 36.09-38.61 24.708-53.736-21.601-28.709-43.956-16.282-60.088-4.981-0.826 0.58-1.604 1.204-2.372 1.839-6.372-7.044-13.36-13.57-20.921-19.528 0.531-0.872 1.052-1.754 1.523-2.681 4.945-9.739 5.382-20.477 2.116-29.606-15.582 27.424-30.953 54.963-46.05 82.653 47.87 35.078 63.111 104.21 33.189 163.14-25.357 49.941-75.759 77.984-124.98 74.47-2.196 5.694-4.351 11.418-6.702 17.056-6.38 15.302-13.627 30.288-20.884 45.255 4.563 0.861 9.148 1.538 13.744 2.019-0.059 0.995-0.105 1.992-0.085 3.001 0.395 19.693 12.351 36.425 46.524 34.613 18.904-1.003 22.152-21.006 21.757-40.699-0.02-1.029-0.106-2.035-0.208-3.034 9.458-2.696 18.747-6.144 27.788-10.312 0.429 0.879 0.876 1.751 1.387 2.598 9.769 16.215 43.661 23.104 59.793 11.802s8.394-36.515-1.374-52.73c-0.501-0.83-1.049-1.607-1.606-2.374 7.144-7.144 13.835-14.902 20.017-23.224 0.799 0.502 1.61 0.992 2.467 1.426 16.526 8.392 37.29 0.687 46.376-17.209 9.085-17.894 3.053-39.204-13.473-47.595-0.857-0.435-1.73-0.8-2.607-1.149 3.071-9.902 5.386-19.882 6.938-29.864 0.948-0.01 1.9-0.021 2.865-0.107z" fill="#d8dee8"/>
  <path d="m1056.4 1277.9c16.527 8.391 37.29 0.686 46.375-17.209s3.053-39.204-13.473-47.595c-0.856-0.435-1.73-0.8-2.607-1.15 3.071-9.902 5.386-19.882 6.938-29.865 0.948 0 1.898-0.018 2.864-0.105 18.855-1.681 33.82-19.007 33.426-38.7-0.395-19.694-16-34.296-34.856-32.615-0.986 0.088-1.954 0.244-2.916 0.415-1.97-9.759-4.668-19.293-8.073-28.52 0.868-0.507 1.731-1.032 2.573-1.623 16.131-11.302 21.29-33.608 11.52-49.823-9.77-16.214-30.767-20.196-46.899-8.895-0.827 0.58-1.605 1.205-2.373 1.84-6.372-7.044-13.36-13.571-20.921-19.528 0.532-0.871 1.052-1.755 1.523-2.682 9.085-17.895 3.054-39.204-13.473-47.596-16.527-8.391-37.29-0.686-46.376 17.209-0.47 0.927-0.876 1.868-1.266 2.812-9.271-2.589-18.665-4.378-28.111-5.366 0.059-0.995 0.105-1.992 0.085-3.001-0.395-19.693-16.001-34.295-34.856-32.614s-33.821 19.008-33.426 38.7c0.021 1.03 0.107 2.036 0.209 3.036-9.458 2.696-18.747 6.143-27.788 10.312-0.43-0.878-0.876-1.751-1.386-2.599-9.77-16.215-30.767-20.197-46.899-8.894-16.133 11.303-21.289 33.608-11.52 49.823 0.5 0.831 1.048 1.608 1.605 2.374-7.144 7.145-13.835 14.902-20.017 23.224-0.8-0.501-1.61-0.991-2.467-1.426-16.527-8.391-37.29-0.687-46.375 17.209-9.086 17.895-3.054 39.204 13.473 47.595 0.856 0.434 1.73 0.8 2.607 1.15-3.071 9.902-5.386 19.881-6.938 29.865-0.947 0-1.898 0.018-2.864 0.103-18.855 1.682-33.82 19.008-33.426 38.701 0.395 19.694 16.001 34.295 34.856 32.614 0.985-0.087 1.954-0.242 2.915-0.414 1.97 9.759 4.668 19.293 8.073 28.52-0.867 0.507-1.731 1.031-2.574 1.623-16.131 11.301-21.289 33.608-11.52 49.822 9.77 16.215 30.768 20.197 46.899 8.895 0.827-0.579 1.605-1.204 2.373-1.839 6.372 7.043 13.36 13.571 20.921 19.528-0.532 0.871-1.052 1.755-1.523 2.682-9.086 17.895-3.053 39.204 13.473 47.595 16.527 8.391 37.29 0.686 46.376-17.209 0.471-0.927 0.876-1.869 1.266-2.811 9.271 2.589 18.665 4.378 28.111 5.366-0.059 0.995-0.105 1.991-0.085 3.001 0.395 19.693 16.001 34.294 34.856 32.614 18.855-1.681 33.821-19.008 33.426-38.7-0.021-1.029-0.107-2.035-0.208-3.035 9.458-2.696 18.747-6.143 27.788-10.312 0.43 0.878 0.876 1.751 1.386 2.598 9.77 16.215 30.767 20.197 46.899 8.895s21.289-33.608 11.52-49.823c-0.5-0.83-1.049-1.607-1.606-2.373 7.144-7.145 13.835-14.903 20.017-23.225 0.803 0.502 1.613 0.991 2.469 1.426zm-206.02 2.614c-60.005-30.466-81.907-107.83-48.919-172.81 32.988-64.973 108.38-92.947 168.38-62.481 60.005 30.466 81.907 107.83 48.919 172.81s-108.37 92.947-168.38 62.481z" fill="#d8dee8"/>
  <linearGradient id="bb" x1="233.2" x2="638.23" y1="1351.2" y2="1351.2" gradientTransform="matrix(-1 0 0 1 1770.3 0)" gradientUnits="userSpaceOnUse">
   <stop stop-color="#FF9085" offset="0"/>
   <stop stop-color="#FB6FBB" offset="1"/>
  </linearGradient>
  <path d="m1161.4 1431.2c-18.62-23.319-29.343-50.696-29.343-79.98 0-85.155 90.669-154.19 202.51-154.19s202.51 69.031 202.51 154.19-90.668 154.19-202.51 154.19c-41.918 0-80.861-9.697-113.17-26.305-21.357 3.643-54.508 9.765-72.002 13.021-5.151 0.958-9.371-4.078-7.527-8.983z" fill="url(#bb)"/>
  <g opacity=".3">
   <linearGradient id="i" x1="286.66" x2="638.14" y1="1244.6" y2="1707.5" gradientTransform="matrix(-1 0 0 1 1770.3 0)" gradientUnits="userSpaceOnUse">
    <stop stop-color="#FF9085" offset="0"/>
    <stop stop-color="#FB6FBB" offset="1"/>
   </linearGradient>
   <path d="m1223.8 1383.8c45.41-19.086 95.345 21.202 126.56-6.903 31.47-28.332-2.527-84.346 27.614-124.26 14.371-19.033 38.516-28.038 66.137-31.185 55.958 27.436 93.018 75.283 93.018 129.72 0 85.155-90.668 154.19-202.51 154.19-41.918 0-80.861-9.697-113.17-26.305-16.851 2.875-41.039 7.291-59.091 10.627 13.316-69.04 37.81-95.947 61.441-105.88z" fill="url(#i)"/>
  </g>
 </g>
</svg>
