<svg width="2845.7" height="2891.9" version="1.1" viewBox="0 0 2845.7 2891.9" xmlns="http://www.w3.org/2000/svg" xmlns:xlink="http://www.w3.org/1999/xlink">
 <g transform="translate(-461.55 -437.96)">
  <path d="m1874.4 481.61c-295.64 117.55-323.96 418.05-590.15 443.83-231.94 22.471-320.1-195.05-482.85-156.07-247.91 59.37-403.78 650.42-304.21 1136.4 102.81 501.82 534.78 1168.9 1250.4 1214.4 803.45 51.113 1411.4-716.45 1448.5-1390 4.014-72.845 27.72-683.19-438.9-1043.7-23.316-18.016-483.13-363.76-882.79-204.85z" fill="#f4f7fa"/>
  <defs>
   <path id="a" d="m1809.3 1788.7 132.63-214.14s-84.88-108.35-194.91-103.89c-224.48 9.101-216.79-188.14-225.92-271.24-13.777-125.32-80.571-229.74-198.8-131.26s-233.32-145.36-226.4-350.95c6.77-201.19-346.96-329.31-401.59 104.79-32.628 259.24 201.1 360.24 307.01 439.3 105.91 79.064 12.055 251.28 184.09 279 146.95 23.677 289.39-16.04 325.98 104.26s122.11 183.37 297.92 144.12z"/>
  </defs>
  <linearGradient id="ba" x1="-4601.3" x2="-3159.7" y1="-3469" y2="-3469" gradientTransform="matrix(-.2416 -.9704 .9704 -.2416 3727.9 -3430.9)" gradientUnits="userSpaceOnUse">
   <stop stop-color="#FFC444" offset="0"/>
   <stop stop-color="#F36F56" offset=".9964"/>
  </linearGradient>
  <use fill="url(#ba)" xlink:href="#a"/>
  <clipPath id="b">
   <use xlink:href="#a"/>
  </clipPath>
  <linearGradient id="ao" x1="-407.11" x2="-908.56" y1="570.55" y2="1995.7" gradientTransform="matrix(.5266 -.8501 .8501 .5266 527.1 -8.7941)" gradientUnits="userSpaceOnUse">
   <stop stop-color="#FFC444" offset="0"/>
   <stop stop-color="#F36F56" offset=".9964"/>
  </linearGradient>
  <path d="m1809.3 1788.7 132.63-214.14s-84.88-108.35-194.91-103.89c-224.48 9.101-216.79-188.14-225.92-271.24-13.777-125.32-76.087-215.37-194.32-148.16-133.77 76.043-237.81-128.46-230.89-334.05 6.77-201.19-346.96-329.31-401.59 104.79-32.628 259.24 201.1 360.24 307.01 439.3 105.91 79.064 12.055 251.28 184.09 279 146.95 23.677 289.39-16.04 325.98 104.26s122.11 183.37 297.92 144.12z" clip-path="url(#b)" fill="url(#ao)"/>
  <g clip-path="url(#b)" fill="#beb8f2" opacity=".5">
   <path d="m1886.6 1708.3 1.939-4.952c-3.067-1.201-309.67-122.55-577.35-334.5-246.6-195.26-509.66-509.6-362.46-898.3l-4.972-1.884c-65.528 173.03-56.613 345.96 26.493 513.98 66.388 134.22 180.02 265.58 337.72 390.44 268.3 212.41 575.56 334.01 578.63 335.21z"/>
   <path d="m1008 1051.4 2.219-4.834c-160.82-73.89-337.68-262.14-339.45-264.03l-3.888 3.628c1.777 1.901 179.35 190.91 341.12 265.24z"/>
   <path d="m955.67 937.9c-0.557-210.9 133-324.91 134.35-326.03l-3.407-4.081c-1.371 1.141-136.82 116.64-136.26 330.13z"/>
   <path d="m1493.7 1497.9c-181.83-182.56-54.554-504.81-53.052-507.85l-4.597-2.663c-1.757 2.84-129.56 330.09 53.881 514.26z"/>
   <path d="m1402.5 1443.4 1.821-4.999c-154.48-56.298-340.58 33.823-342.45 34.741l2.349 4.77c1.843-0.907 185.96-90.028 338.28-34.512z"/>
   <path d="m1840.7 1683.2c-78.919-57.901-71.247-217.02-71.162-218.62l-5.308-0.288c-0.363 6.65-7.924 163.59 73.325 223.2z"/>
   <path d="m1767.7 1655.4 1.999-4.928c-71.714-29.097-204.68 24.187-248.38 41.697-6.175 2.474-11.505 4.61-12.53 4.804l0.913 5.238c1.449-0.252 4.997-1.662 13.595-5.106 43.201-17.313 174.67-69.996 244.4-41.705z"/>
  </g>
  <linearGradient id="v" x1="3660.7" x2="4292.1" y1="-3583.6" y2="-1924.6" gradientTransform="matrix(.2633 .9647 .9647 -.2633 2931 -2665.3)" gradientUnits="userSpaceOnUse">
   <stop stop-color="#E38DDD" offset=".0036"/>
   <stop stop-color="#9571F6" offset="1"/>
  </linearGradient>
  <path d="m1717.6 1717.3c47.349-48.966 113.06-42.279 159.86-29.99 2.085 6.204 4.866 9.242 8.346 15.014 31.406 52.104 33.702 81.025 56.549 137.27 4.918 12.107 8.545 52.031 8.98 68.438l0.322 30.603s-121.96 98.503-185.33 35.696-191.07 16.051-263.87 49.49c-44.705 20.534-71.728 15.604-89.366 20.512-186.71 51.955-222.01 125.71-293.1 105.31-78.481-22.521-57.927-118.85-142.01-147.86-94.943-32.757-184.89 68.078-267.81 17.001-14.216-8.757-28.585-18.141-41.44-36.329-31.73-44.894-16.547-95.406-69.805-116.94-107.05-43.291-175.96-151.34-113.97-252.93 61.179-100.26 256.82-75.812 461.16 86.672 158.49 98.984 192.89 89.021 271.27 48.459 54.903-28.409 184.94-141.81 272.57-78.794 87.634 63.015 173.51 104.36 227.64 48.382z" fill="url(#v)"/>
  <defs>
   <path id="az" d="m1936.1 1707.4 19.103 224.85s-125.46 104.94-188.82 42.129-191.07 16.051-263.87 49.49c-197.53 90.729-257.6-154.19-520.55-59.65-69.935 25.145-194.97 98.46-271.73 54.613-87.455-49.955-42.754-125.57-111.24-153.27-107.05-43.292-175.96-151.35-113.97-252.93 61.179-100.26 256.82-75.813 461.16 86.67 158.49 98.985 192.89 89.021 271.27 48.46 54.903-28.411 184.94-141.81 272.57-78.794s173.5 104.36 227.63 48.381c82.363-85.178 218.45-9.952 218.45-9.952z"/>
  </defs>
  <clipPath id="ah">
   <use xlink:href="#az"/>
  </clipPath>
  <g clip-path="url(#ah)" fill="#fcfdfe" opacity=".5">
   <path d="m1934.6 1808.8 0.903 4.381c-24.143 5.211-48.559 10.144-72.568 14.663-177.77 33.439-352.37 47.735-518.98 42.486-141.16-4.449-278.57-22.958-408.4-55.014-104.41-25.779-204.5-60.42-297.5-102.96-65.379-29.907-126.6-63.378-181.98-99.487-9.65-6.291-19.204-13.298-28.444-20.075-12.31-9.029-25.04-18.365-38.096-26.077l1.936-3.905c13.236 7.818 26.052 17.216 38.446 26.306 9.194 6.744 18.701 13.715 28.253 19.943 55.196 35.996 116.24 69.368 181.43 99.189 92.771 42.436 192.63 76.993 296.79 102.71 129.56 31.99 266.69 50.462 407.58 54.902 166.32 5.241 340.65-9.033 518.14-42.422 23.973-4.511 48.354-9.437 72.467-14.642z"/>
   <path d="m1095.7 1843-0.393 4.438c-177.39-22.516-435.64 146.58-438.23 148.29l-2.232-3.822c2.6-1.719 262.05-171.61 440.86-148.91z"/>
   <path d="m1596.1 1859.3 0.089 4.468c-121.9-0.157-278.86-190.96-280.44-192.89l3.095-2.906c1.56 1.913 157.26 191.18 277.25 191.33z"/>
   <path d="m1665.1 1852.9 0.819 4.399c-78.02 15.049-176.01 80.628-275.92 184.66-5.024 5.231-5.024 5.231-5.795 5.391l-0.871-4.39 0.435 2.195-1.159-1.87c0.372-0.306 2.269-2.281 4.467-4.572 100.48-104.62 199.22-170.61 278.02-185.81z"/>
   <path d="m1890.4 1817.7-0.378 4.438c-87.299-10.698-159.34-128.91-160.05-130.1l3.469-2.37c0.708 1.175 71.661 117.58 156.96 128.03z"/>
   <path d="m1937 1815.1c-59.643 39.39-110.34 98.758-154.99 181.5l-3.604-2.31c44.996-83.372 96.145-143.24 156.37-183.01z"/>
   <path d="m694.78 1732.4-0.625 4.4c-98.099-18.42-204.62-13.387-239.62-11.733-8.473 0.4-11.456 0.531-12.507 0.382l0.453-4.429c0.803 0.103 5.647-0.127 11.779-0.417 35.115-1.659 141.97-6.708 240.52 11.797z"/>
   <path d="m850.69 1787.6-1.806 3.979c-83.793-45.558-144.48-236.31-147.03-244.41l3.931-1.344c0.618 1.963 62.676 197.07 144.9 241.78z"/>
  </g>
  <linearGradient id="bk" x1="9516.8" x2="10298" y1="-3361.8" y2="-2075.4" gradientTransform="matrix(.1606 .987 .987 -.1606 2355.4 -8564.1)" gradientUnits="userSpaceOnUse">
   <stop stop-color="#AA80F9" offset="0"/>
   <stop stop-color="#6165D7" offset=".9964"/>
  </linearGradient>
  <path d="m1927.8 1687.5c0.563 15.46 146.36 54.445 53.529 114.91-23.193 15.105-107.61 41.81-93.192 154.67 2.798 21.908 5.594 43.817 8.393 65.724-45.856 26.764-94.034 43.493-123.61-19.524-45.931-97.864-217.24-69.871-273.08-30.834-69.109 48.314-232.22 157.3-305.48 7.179-60.981-124.98-76.289-218.7-238.06-199.35-161.78 19.349-276.94-55.579-292.64-211.41-16.518-163.99-241.88-260.68-195.54-405.71 80.763-252.72 468.27-105.95 616.68 157.39s217.65 84.74 347.56 53.745c12.222-2.194 31.34-4.653 54.457-3.271 142.32 8.508 189.45 147.89 318.61 231.93 176.15 114.61 121.43 58.508 122.38 84.554z" fill="url(#bk)"/>
  <defs>
   <path id="bl" d="m1877.8 1650.1 55.229 353.89c-44.024 28.639-127.06 69.764-160.1-0.626-45.933-97.864-217.25-69.871-273.08-30.835-69.109 48.315-232.22 157.3-305.48 7.179-60.98-124.98-76.287-218.7-238.06-199.35-161.78 19.349-276.94-55.58-292.64-211.41-16.518-163.99-241.88-260.68-195.54-405.71 80.761-252.72 468.27-105.95 616.68 157.39s217.65 84.742 347.56 53.746c177.35-42.315 181.11 221.21 262.55 276.47 63.845 43.316 138.32 19.878 182.88-0.749z"/>
  </defs>
  <clipPath id="g">
   <use xlink:href="#bl"/>
  </clipPath>
  <g clip-path="url(#g)" fill="#fcfdfe" opacity=".5">
   <path d="m1851.3 1825.6-0.221 7.762c-535.64-20.187-1060.8-315.67-1370.4-771.13l5.94-4.517c308.37 453.55 831.29 747.78 1364.7 767.89z"/>
   <path d="m1560.1 1788.1 1.23 7.663c-207.62 36.259-339.24 253.01-340.55 255.2l-6.2-4.178c1.32-2.214 134.62-221.85 345.52-258.68z"/>
   <path d="m1752.9 1819-2.35 7.343c-202.24-73.637-293.49-474.64-294.38-478.68l7.135-1.742c0.888 3.998 91.202 400.85 289.6 473.08z"/>
   <path d="m1066.7 1594.5-1.746 7.535c-164.49-43.718-383.22 103.48-385.4 104.97l-3.989-6.536c2.216-1.511 223.61-150.5 391.14-105.97z"/>
   <path d="m783.69 1392.6-5.513 5.091c-127.19-154.5-114.84-430.36-114.69-433.13l7.32 0.454c-0.144 2.737-12.324 275.5 112.89 427.59z"/>
  </g>
  <defs>
   <path id="d" d="m1822.4 2080-42.723-249.2s119.79-68.826 220.47-23.224c205.43 93.041 272.58-93.372 312.38-167.24 60.03-111.4 161.52-183.39 234.42-47.225s271.84-47.336 342.86-241.22c69.497-189.73 446.87-175.67 334.15 248.79-67.311 253.49-322.82 259.4-451.14 293.06s-105.88 229.24-276.38 190.22c-145.64-33.332-263.2-123.95-342.56-25.804-79.37 98.142-182.69 124.6-331.48 21.85z"/>
  </defs>
  <linearGradient id="bg" x1="-1631.3" x2="-184.26" y1="-5049.5" y2="-5049.5" gradientTransform="matrix(.5882 -.8087 -.8087 -.5882 -1020.5 -2005)" gradientUnits="userSpaceOnUse">
   <stop stop-color="#FFC444" offset="0"/>
   <stop stop-color="#F36F56" offset=".9964"/>
  </linearGradient>
  <use fill="url(#bg)" xlink:href="#d"/>
  <clipPath id="c">
   <use xlink:href="#d"/>
  </clipPath>
  <linearGradient id="at" x1="534.96" x2="31.616" y1="-2664.6" y2="-1234" gradientTransform="matrix(-.169 -.9856 -.9856 .169 661.36 2367.8)" gradientUnits="userSpaceOnUse">
   <stop stop-color="#FFC444" offset="0"/>
   <stop stop-color="#F36F56" offset=".9964"/>
  </linearGradient>
  <path d="m1822.4 2080-42.723-249.2s119.79-68.826 220.47-23.224c205.43 93.041 272.58-93.372 312.38-167.24 60.03-111.4 151.93-171.71 236.61-64.641 95.809 121.15 269.65-29.92 340.66-223.81 69.497-189.73 446.87-175.67 334.15 248.79-67.311 253.49-322.82 259.4-451.14 293.06s-105.88 229.24-276.38 190.22c-145.64-33.332-263.2-123.95-342.56-25.804-79.37 98.143-182.69 124.6-331.48 21.851z" clip-path="url(#c)" fill="url(#at)"/>
  <g clip-path="url(#c)" fill="#beb8f2" opacity=".5">
   <path d="m1780.8 1976.1 0.061-5.338c3.306 0.038 334.28 2.65 663.17-93.695 303-88.757 666.17-282.11 675.66-699.2l5.336 0.121c-4.222 185.67-77.665 343.2-218.29 468.21-112.33 99.864-267.54 179.28-461.31 236.03-329.64 96.544-661.32 93.916-664.63 93.879z"/>
   <path d="m2845.7 1695.9-0.243-5.333c177.46-8.157 412.93-116.67 415.29-117.76l2.25 4.84c-2.369 1.099-238.79 110.05-417.29 118.26z"/>
   <path d="m2937.1 1610c79.974-196.01-1.335-352.39-2.166-353.95l4.707-2.514c0.846 1.579 83.354 160.06 2.401 358.48z"/>
   <path d="m2225.6 1928.3c237.94-101.34 240.94-449.11 240.69-452.5l5.28-0.746c0.564 3.304-3.816 355.92-243.88 458.16z"/>
   <path d="m2331 1911.9 0.189-5.337c164.93 5.819 304.13 159.78 305.52 161.34l-3.982 3.553c-1.373-1.539-139.09-153.82-301.72-159.55z"/>
   <path d="m1833 1970c95.238-24.137 148.05-175.07 148.57-176.59l5.047 1.732c-2.168 6.324-54.26 155.19-152.31 180.04z"/>
   <path d="m1911.3 1971.7v-5.338c77.683-0.053 181.32 99.615 215.38 132.37 4.813 4.628 8.968 8.623 9.848 9.19l-2.823 4.53c-1.253-0.781-4.023-3.429-10.725-9.873-33.671-32.381-136.14-130.93-211.67-130.88z"/>
  </g>
  <linearGradient id="au" x1="-1877.9" x2="-1244.2" y1="1469.7" y2="3134.9" gradientTransform="matrix(-.9997 .0225 .0225 .9997 -549.51 -957.69)" gradientUnits="userSpaceOnUse">
   <stop stop-color="#E38DDD" offset=".0036"/>
   <stop stop-color="#9571F6" offset="1"/>
  </linearGradient>
  <path d="m1140.6 1738.3c36.211 57.994 13.759 120.38-9.56 162.98-6.548 0.526-10.182 2.498-16.648 4.487-58.368 17.953-87.094 13.176-147.42 21.789-12.985 1.854-52.751-4.295-68.838-7.851l-29.886-7.108s-66.366-142.68 10.178-189.17 30.704-190 15.79-269.02c-9.158-48.524 2.197-73.649 1.694-92.019-5.325-194.46-68.602-246.73-31.489-311.02 40.97-70.98 129.81-27.598 178.46-102.46 54.932-84.532-21.469-196.6 48.391-264.98 11.977-11.723 24.602-23.443 45.435-31.553 51.423-20.018 96.94 7.021 130.84-39.63 68.129-93.77 190.09-134.68 274-49.668 82.813 83.904 11.557 268.54-196.26 428.16-134.85 130.37-133.49 166.29-112.99 252.47 14.356 60.367 93.272 214.53 10.642 284.6-82.628 70.074-143.73 143.69-102.33 209.99z" fill="url(#au)"/>
  <defs>
   <path id="n" d="m1097.3 1953.5-223.64-35.925s-71.785-147.64 4.759-194.13 30.705-190 15.79-269.02c-40.467-214.4 212.66-213.52 184.35-492.56-7.53-74.217-48.618-213.78 12.708-277.92 69.867-73.067 132.68-11.188 176.27-71.183 68.129-93.77 190.09-134.68 274-49.668 82.814 83.904 11.557 268.54-196.26 428.16-134.85 130.37-133.49 166.29-112.99 252.47 14.357 60.367 93.271 214.53 10.642 284.6s-143.73 143.69-102.33 209.99c62.989 100.88-43.286 215.18-43.286 215.18z"/>
  </defs>
  <clipPath id="bu">
   <use xlink:href="#n"/>
  </clipPath>
  <g clip-path="url(#bu)" fill="#fcfdfe" opacity=".5">
   <path d="m998.78 1927.5-4.486-0.183c0.779-24.78 1.896-49.758 3.318-74.239 10.542-181.26 38.964-354.8 84.481-515.8 38.569-136.42 89.921-265.76 152.63-384.44 50.43-95.441 108.45-184.53 172.44-264.8 44.986-56.427 92.436-107.95 141.04-153.12 8.468-7.874 17.61-15.48 26.452-22.837 11.78-9.801 23.961-19.935 34.639-30.782l3.334 2.832c-10.824 10.996-23.087 21.199-34.946 31.067-8.798 7.319-17.894 14.888-26.277 22.682-48.447 45.032-95.756 96.396-140.61 152.66-63.833 80.07-121.71 168.95-172.02 264.17-62.58 118.44-113.83 247.52-152.32 383.68-45.441 160.73-73.816 333.99-84.341 514.97-1.422 24.447-2.537 49.39-3.315 74.138z"/>
   <path d="m1169 1102.1-4.228-1.46c64.952-167.32-37.121-459.88-38.16-462.81l4.264-1.247c1.044 2.95 103.6 296.86 38.124 465.52z"/>
   <path d="m1031.8 1585.5-4.374-0.997c29.716-118.7 253.63-225.31 255.89-226.37l2.08 3.719c-2.24 1.055-224.35 106.81-253.6 223.65z"/>
   <path d="m1021.2 1654.3-4.483-0.269c4.264-79.643-35.846-190.99-112.94-313.54-3.877-6.162-3.877-6.162-3.846-6.952l4.487 0.217-2.243-0.108 2.103-0.676c0.208 0.437 1.671 2.764 3.369 5.46 77.534 123.24 117.86 235.42 113.56 315.86z"/>
   <path d="m1000.9 1882.3-4.231-1.445c31.592-82.437 164.2-123.93 165.54-124.34l1.467 3.954c-1.316 0.404-131.9 41.284-162.77 121.83z"/>
   <path d="m992.06 1928.3c-23.902-67.647-69.432-131.43-139.19-194.98l3.124-2.95c70.294 64.047 116.2 128.38 140.33 196.69z"/>
   <path d="m1373.9 738.38-4.134-1.676c41.733-91.083 62.664-196.06 69.542-230.55 1.665-8.35 2.261-11.287 2.661-12.274l4.204 1.515c-0.295 0.758-1.246 5.531-2.45 11.575-6.901 34.604-27.899 139.91-69.823 231.41z"/>
   <path d="m1282.3 876.84-3.437-2.724c64.697-70.568 265.21-83.421 273.72-83.934l0.355 4.155c-2.063 0.125-207.15 13.254-270.64 82.503z"/>
  </g>
  <linearGradient id="ca" x1="2236.6" x2="3020.9" y1="1098.8" y2="2390" gradientTransform="matrix(-.9966 -.0826 -.0826 .9966 5312.7 -90.819)" gradientUnits="userSpaceOnUse">
   <stop stop-color="#AA80F9" offset="0"/>
   <stop stop-color="#6165D7" offset=".9964"/>
  </linearGradient>
  <path d="m2352.3 2068.9c-15.195-3.201-88.526 129.36-124.9 24.271-9.088-26.254-14.626-114.95-128.05-128.28-22.017-2.588-44.036-5.177-66.053-7.765-14.948-51.156-19.558-102.14 48.995-115.66 106.46-21.004 120.74-194.66 96.262-258.51-30.299-79.031-96.895-264.34 67.092-299.28 136.52-29.087 231.52-21.268 251.9-183.53 20.388-162.27 121.3-256.27 276.89-233.77 163.74 23.682 312.57-172.38 442.59-92.062 226.56 139.95-10.368 481.8-302.86 562.48-292.49 80.684-135.32 191.44-136.64 325.5-0.827 12.437-3.069 31.655-10.021 53.835-42.801 136.56-189.99 148.66-303.17 254.08-154.36 143.78-86.439 104.09-112.04 98.693z" fill="url(#ca)"/>
  <defs>
   <path id="ae" d="m2400.9 2029.3-358.09-32.033c-17.218-49.826-37.136-140.68 39.439-155.79 106.46-21.005 120.74-194.66 96.263-258.51-30.299-79.031-96.895-264.34 67.092-299.28 136.52-29.087 231.52-21.267 251.9-183.53 20.388-162.26 121.3-256.27 276.89-233.77 163.74 23.682 312.57-172.38 442.59-92.062 226.56 139.95-10.367 481.8-302.86 562.48s-135.32 191.44-136.64 325.5c-1.796 183.01-259.39 122.76-332.96 188.68-57.675 51.681-52.909 129.91-43.625 178.32z"/>
  </defs>
  <clipPath id="ar">
   <use xlink:href="#ae"/>
  </clipPath>
  <g clip-path="url(#ar)" fill="#fcfdfe" opacity=".5">
   <path d="m2236.4 1960.9-7.507-2.098c149.57-516.83 564.72-956.64 1083.5-1147.8l2.959 6.881c-516.55 190.36-929.97 628.34-1078.9 1143z"/>
   <path d="m2343.6 1686.3-7.762-0.66c15.036-211.02-164.17-391.79-165.98-393.59l5.573-5.026c1.836 1.823 183.44 184.93 168.17 399.28z"/>
   <path d="m2266.6 1866.6-6.583-4.07c120.77-179.13 533.49-170.75 537.64-170.65l-0.033 7.372c-4.11-0.104-412.55-8.381-531.03 167.34z"/>
   <path d="m2651.8 1252.7-6.916-3.528c82.474-149.61-7.854-398.36-8.776-400.85l7.334-2.301c0.935 2.526 92.357 254.3 8.358 406.68z"/>
   <path d="m2917 1026-3.621-6.605c181.33-86.415 447.03-7.48 449.7-6.668l-2.218 7.02c-2.631-0.804-265.35-78.818-443.86 6.253z"/>
  </g>
  <path d="m2906.5 960.88c0-51.885-34.475-96.16-80.026-107.49-1.628-0.405-3.434-0.767-5.089-1.087-4.964-0.958-10.134-1.527-15.313-1.677l-1927.4-55.671c-2.037-0.058-4.074-0.066-6.086-0.022-25.883 0.556-49.599 9.471-68.502 24.183-0.345 0.27-0.695 0.537-1.038 0.809-2.714 2.163-5.33 4.443-7.832 6.84-0.059 0.056-0.122 0.108-0.179 0.164-1.478 1.423-2.912 2.894-4.312 4.394-18.882 20.255-30.406 47.439-30.406 77.625v1406c0 10.132 1.301 19.916 3.739 29.207 1.461 5.574 3.336 10.969 5.585 16.155 14.963 34.491 46.595 59.676 84.946 66.161 7.775 1.314 15.822 1.866 24.065 1.565l1469.6-53.696 458.08-16.725c55.252-2.019 100.18-51.717 100.18-111.02v-1208.7z" fill="#d8dee8"/>
  <path d="m2836 850.63-1927.4-55.67c-65.212-1.884-118.33 49.149-118.33 113.99v1406c0 64.844 53.115 115.47 118.33 113.09l1927.4-70.421c55.252-2.019 99.849-51.718 99.849-111.02v-1285.7c1e-3 -59.297-44.596-108.66-99.849-110.25z" fill="#fff"/>
  <linearGradient id="t" x1="828.22" x2="2904.1" y1="1611.5" y2="1611.5" gradientUnits="userSpaceOnUse">
   <stop stop-color="#fff" offset="0"/>
   <stop stop-color="#EBEFF2" offset=".9964"/>
  </linearGradient>
  <path d="m908.64 2390.7c-44.281 1.552-80.424-32.98-80.424-76.982v-1403.9c0-44.002 36.143-78.81 80.424-77.597l1927.4 52.79c37.579 1.029 68.063 34.695 68.063 75.049v1287.5c0 40.354-30.483 74.253-68.063 75.57z" fill="url(#t)"/>
  <path d="m2836 850.63-1927.4-55.67c-65.211-1.884-118.33 49.149-118.33 113.99v84.224l2145.5 44.724v-77.019c0-59.298-44.597-108.66-99.851-110.25z" fill="#d8dee8"/>
  <path d="m1000.6 902.76c0 21.045-17.142 37.708-38.32 37.219-21.214-0.491-38.438-18.002-38.438-39.111 0-21.11 17.224-37.771 38.438-37.216 21.179 0.554 38.32 18.063 38.32 39.108z" fill="#fff"/>
  <path d="m1134.3 906.06c0 20.932-16.958 37.508-37.909 37.023-20.986-0.485-38.025-17.9-38.025-38.896s17.039-37.57 38.025-37.02c20.951 0.549 37.909 17.961 37.909 38.893z" fill="#fff"/>
  <path d="m1266.5 909.32c0 20.82-16.777 37.309-37.504 36.83-20.762-0.48-37.619-17.799-37.619-38.682s16.857-37.371 37.619-36.827c20.727 0.542 37.504 17.859 37.504 38.679z" fill="#fff"/>
  <linearGradient id="ac" x1="1887.2" x2="1864.7" y1="32.022" y2="2877.1" gradientUnits="userSpaceOnUse">
   <stop stop-color="#FF9085" offset="0"/>
   <stop stop-color="#FB6FBB" offset="1"/>
  </linearGradient>
  <polygon points="928.23 1206.8 2819.3 1230.2 2819.3 2250.8 928.23 2311.1" fill="url(#ac)"/>
  <g fill="#fff" opacity=".5">
   <polygon points="928.23 1152.1 1950.2 1167 1950.2 1109.8 928.23 1092.4"/>
   <polygon points="2819.3 1179.7 2819.3 1124.5 2712.5 1122.7 2712.5 1178.1"/>
   <path d="m2090.8 1569.5c-224.9-323.49-615.26-217.68-862.91-576.38-44.721-64.774-75.076-130.77-95.901-191.68l-223.34-6.451c-65.211-1.884-118.33 49.149-118.33 113.99v1406c0 64.844 53.117 115.47 118.33 113.09l1469.6-53.696c-43.633-61.897-83.931-131.21-118.05-208.82-130.94-297.86-33.947-401.21-169.42-596.06z"/>
  </g>
  <defs>
   <polygon id="aq" points="3048.7 1030.8 2808.3 417.58 923.86 674.98 895.71 2201.2 1395.8 2290.1 2493.2 2250.7"/>
  </defs>
  <clipPath id="i">
   <use xlink:href="#aq"/>
  </clipPath>
  <g clip-path="url(#i)">
   <linearGradient id="bi" x1="3295" x2="3393.4" y1="-112.05" y2="188.07" gradientTransform="matrix(.9679 .2513 -.2513 .9679 -458.36 -289.37)" gradientUnits="userSpaceOnUse">
    <stop stop-color="#FFC444" offset="0"/>
    <stop stop-color="#F36F56" offset=".9964"/>
   </linearGradient>
   <path d="m2768.4 640.62-10.902-46.079s-18.549-9.338-23.798-25.816l-5.247-16.477s-0.625-15.993 19.646-27.737c4.583-2.654 7.778-7.22 8.359-12.526 1.744-15.937 5.35-48.539 6.536-56.807 0.782-5.471 4.572-11.232 8.202-15.662 2.475-3.017 7.329-1.347 7.372 2.577l0.764 67.862s14.601 0.19 16.316 13.041c0 0 10.016 10.284 8.59 23.151-1.422 12.868-10.955 42.328-10.955 42.328l7.781 47.635z" fill="url(#bi)"/>
   <linearGradient id="o" x1="2547.9" x2="3316.6" y1="2142.1" y2="365.86" gradientTransform="matrix(.9679 .2513 -.2513 .9679 -458.36 -289.37)" gradientUnits="userSpaceOnUse">
    <stop stop-color="#AA80F9" offset="0"/>
    <stop stop-color="#6165D7" offset=".9964"/>
   </linearGradient>
   <path d="m2742.1 626.36c4.645 30.429 28.826 206.94-84.32 333.55-125.67 140.62-350 160.05-556.85 68.917-9.152 28.533-137.63 349.34 17.278 487.58 167.24 149.26 597.63-3.691 741.85-311.85 123.96-264.87-16.262-545.09-39.202-589.25-26.275 3.684-52.528 7.369-78.757 11.049z" fill="url(#o)"/>
   <linearGradient id="bm" x1="798.03" x2="947.95" y1="3636.6" y2="3636.6" gradientTransform="matrix(-.996 .0897 .0897 .996 2456.5 -160.45)" gradientUnits="userSpaceOnUse">
    <stop stop-color="#444B8C" offset="0"/>
    <stop stop-color="#26264F" offset=".9964"/>
   </linearGradient>
   <path d="m1847.4 3506.2c-7.801 6.896-8.294 24.012-8.615 35.2-0.147 4.997-0.218 7.497 0.431 9.26 4.73 12.854 29.126 14.096 67.538 17.928 60.804 6.065 79.1 10.868 83.29 1.619 3.924-8.67-7.661-22.781-8.963-24.337-7.002-8.359-15.162-11.371-30.89-16.495-29.08-9.473-48.638-14.635-54.558-16.2-36.936-9.758-43.109-11.503-48.233-6.975z" fill="url(#bm)"/>
   <linearGradient id="cb" x1="386.61" x2="455.6" y1="3580.1" y2="3437.3" gradientTransform="matrix(-.9976 .0694 .0694 .9976 2040.6 -60.669)" gradientUnits="userSpaceOnUse">
    <stop stop-color="#FFC444" offset="0"/>
    <stop stop-color="#F36F56" offset=".9964"/>
   </linearGradient>
   <path d="m1889.9 3446.8 2.367 70.803c-1.892 3.197-22.86 11.068-38.626 0.547l-11.893-70.611z" fill="url(#cb)"/>
   <linearGradient id="r" x1="267.08" x2="428" y1="3777.2" y2="3777.2" gradientTransform="matrix(-.977 .2133 .2133 .977 1968.1 -210.66)" gradientUnits="userSpaceOnUse">
    <stop stop-color="#444B8C" offset="0"/>
    <stop stop-color="#26264F" offset=".9964"/>
   </linearGradient>
   <path d="m2362.5 3525.7c-10.603 10.077-13.973 30.418-5.801 41.536 8.031 10.934 21.304 4.888 57.793 10.07 39.134 5.561 48.884 16.062 75.954 11.615 10.943-1.803 30.385-6.976 30.436-14.792 0.035-5.496-9.518-9.398-41.325-23.949-45.088-20.625-44.842-21.452-54.496-24.161-24.236-6.801-48.55-13.626-62.561-0.319z" fill="url(#r)"/>
   <linearGradient id="bc" x1="97.841" x2="169.33" y1="3708.2" y2="3560.2" gradientTransform="matrix(-.9894 .1453 .1453 .9894 1974.6 -128.67)" gradientUnits="userSpaceOnUse">
    <stop stop-color="#FFC444" offset="0"/>
    <stop stop-color="#F36F56" offset=".9964"/>
   </linearGradient>
   <path d="m2391 3463.9 16.15 68.204c-1.672 3.377-22.257 12.975-38.983 3.591l-25.74-67.267z" fill="url(#bc)"/>
   <linearGradient id="h" x1="2888.3" x2="2445" y1="3130.1" y2="2130.8" gradientTransform="matrix(.9986 .0533 -.0533 .9986 -237.58 -19.3)" gradientUnits="userSpaceOnUse">
    <stop stop-color="#311944" offset="0"/>
    <stop stop-color="#893976" offset="1"/>
   </linearGradient>
   <path d="m2293.1 2001c-8.877 222.04-7.084 472.71 14.467 746.99 21.312 271.28 58.246 518.44 101.29 737.2-25.414 4.055-50.802 8.105-76.172 12.152-60.204-66.789-135-169.53-166.42-306.46-19.483-84.916-9.319-126.44-19.095-229.37-15.558-163.81-59.769-253.12-103.15-387.98-38.932-121.02-83.14-297.18-99.642-528.55 115.79-14.6 232.02-29.257 348.72-43.972z" fill="url(#h)"/>
   <linearGradient id="x" x1="2821.1" x2="2378.6" y1="3157.4" y2="2159.8" gradientTransform="matrix(.9986 .0533 -.0533 .9986 -237.58 -19.3)" gradientUnits="userSpaceOnUse">
    <stop stop-color="#311944" offset="0"/>
    <stop stop-color="#893976" offset="1"/>
   </linearGradient>
   <path d="m2258.1 3038.5c-27.839-113.41-81.398-145.51-83.304-251.27-1.348-74.802 25.054-79.777 23.302-151.42-2.658-108.67-65.096-168.02-96.416-237.42-33.041-73.214-45.69-189.24 43.402-378.66-67.067 8.457-133.98 16.896-200.75 25.313 16.502 231.37 60.711 407.53 99.642 528.55 43.386 134.86 87.595 224.17 103.15 387.98 9.776 102.93-0.388 144.46 19.095 229.37 31.421 136.94 106.21 239.67 166.42 306.46 6.451-1.03 12.903-2.057 19.355-3.087-65.118-82.531-88.063-154.2-93.896-211.64-9.489-93.429 28.093-129.73 0-244.18z" fill="url(#x)" opacity=".3"/>
   <linearGradient id="bs" x1="2168.6" x2="1731.3" y1="3357.6" y2="2371.7" gradientTransform="matrix(.9976 -.0694 .0694 .9976 -160.89 92.986)" gradientUnits="userSpaceOnUse">
    <stop stop-color="#311944" offset="0"/>
    <stop stop-color="#893976" offset="1"/>
   </linearGradient>
   <path d="m2041 1979.4c-29.868 279.5-57.294 564.2-81.948 854-18.49 217.3-34.947 431.91-49.508 643.75-25.327 0.375-50.636 0.753-75.921 1.125-21.842-48.78-50.344-122.76-67.657-215.41-21.016-112.46-11.426-176.9-17.217-291.72-6.5-128.76-24.15-158.43-49.572-322.43-51.532-332.41-77.265-498.4 4.429-593.07 26.566-30.79 108.93-106.82 337.39-76.237z" fill="url(#bs)"/>
   <linearGradient id="f" x1="2652.6" x2="3418.1" y1="2182.3" y2="413.47" gradientTransform="matrix(.9679 .2513 -.2513 .9679 -458.36 -289.37)" gradientUnits="userSpaceOnUse">
    <stop stop-color="#AA80F9" offset="0"/>
    <stop stop-color="#6165D7" offset=".9964"/>
   </linearGradient>
   <path d="m2906.1 893.53c-9.924 33.281-23.95 59.146-38.992 79.376-54.398 73.147-148.46 111.32-155.96 207.81-3.746 48.211 17.178 71.353-1.739 101.9-26.791 43.267-85.757 24.28-162.82 59.914-68.196 31.533-82.642 74.483-121.68 106.17-52.778 42.848-153.04 67.04-360.23-9.088 12.532 29.43 29.889 55.718 53.522 76.811 167.25 149.26 597.63-3.69 741.86-311.85 49.847-106.51 56.887-215.72 46.036-311.04z" fill="url(#f)" opacity=".3"/>
   <linearGradient id="bv" x1="1658.2" x2="2316.2" y1="2151.4" y2="631.07" gradientUnits="userSpaceOnUse">
    <stop stop-color="#AA80F9" offset="0"/>
    <stop stop-color="#6165D7" offset=".9964"/>
   </linearGradient>
   <path d="m1389.1 1096.4c134.78-44.967 341.64-94.222 596.63-79.779 148.73 8.424 277.19 36.422 379.38 67.056 13.844 78.76 27.692 157.56 41.548 236.39 3.186 78.856 4.214 185.62-4.518 311.51-8.729 125.85-17.272 127.52-37.254 304.85-32.548 288.87-18.94 365.09-76.298 397.81-37.247 21.249-50.708-6.545-239.97-32.546-126.23-17.344-190.44-25.585-254.03-5.856-86.36 26.794-115.2 75.961-150.72 58.289-34.018-16.931-38.348-77.404-42.453-182.7-6.332-162.4-5.942-272.62-6.525-312.09-2.679-181.11-47.243-320.38-104.22-498.45-35.578-111.2-73.007-201.24-101.57-264.49z" fill="url(#bv)"/>
   <linearGradient id="an" x1="2139.5" x2="2156.5" y1="460.76" y2="7.5681" gradientTransform="matrix(.8944 .4471 -.4471 .8944 171.03 -183)" gradientUnits="userSpaceOnUse">
    <stop stop-color="#FFC444" offset="0"/>
    <stop stop-color="#FFC244" offset=".463"/>
    <stop stop-color="#FEBB46" offset=".6297"/>
    <stop stop-color="#FCB048" offset=".7486"/>
    <stop stop-color="#FA9F4C" offset=".8447"/>
    <stop stop-color="#F78951" offset=".9261"/>
    <stop stop-color="#F36F56" offset=".9964"/>
   </linearGradient>
   <path d="m1968.8 835.91c-2.018 45.783-8.916 81.732-14.947 106.26-6.906 28.095-11.192 35.181-16.483 40.804-7.962 8.466-19.711 15.216-84.619 27.03-35.26 6.416-39.723 5.867-40.676 9.343-4.643 16.966 87.244 82.373 186.4 75.131 60.854-4.443 117.76-35.756 115.35-54.463-2.429-18.829-63.388-13.034-79.619-47.871-11.284-24.221 4.476-56.444 22.501-82.807-14.46-31.753-73.487-41.724-87.907-73.426z" fill="url(#an)"/>
   <linearGradient id="k" x1="-149.66" x2="-265.68" y1="806.38" y2="511.71" gradientTransform="matrix(-.9988 -.0496 -.0496 .9988 1789.6 252.48)" gradientUnits="userSpaceOnUse">
    <stop stop-color="#311944" offset="0"/>
    <stop stop-color="#6B3976" offset="1"/>
   </linearGradient>
   <path d="m2079.9 861.44c15.296-18.38 17.946-52.067 2.606-74.471-13.195-19.27-35.321-23.327-48.559-25.76-38.329-7.035-87.778 6.226-106.55 41.281-11.115 20.764 8.188 66.709 11.157 74.939 3.365 9.306 10.16 12.878 16.242 20.153 8.429 10.093 21.617 26.131 43.125 52.933 2.165-7.333 5.347-16.377 10.158-26.091 1.852-3.741 9.27-18.333 19.96-30.132 21.424-23.666 37.37-15.442 51.862-32.852z" fill="url(#k)"/>
   <linearGradient id="ai" x1="1722.6" x2="1717.3" y1="650.07" y2="1082.8" gradientTransform="matrix(.9999 -.0116 .0116 .9999 281.35 228.06)" gradientUnits="userSpaceOnUse">
    <stop stop-color="#FFC444" offset="0"/>
    <stop stop-color="#F36F56" offset=".9964"/>
   </linearGradient>
   <path d="m1966.5 927.07s23.104 44.115 73.761 44.213c45.427 0.086 57.491-102.97 29.707-126.85-9.266-7.963-28.418-12.278-44.346-8.829-9.404 2.037-12.747 5.756-28.171 8.772-14.221 2.786-18.097 0.938-22.52 4.29-5.529 4.198-9.99 15.083-2.732 45.869-8.145-9.471-18.297-13.578-25.799-10.542-1.196 0.488-4.404 2.431-6.317 5.573-6.919 11.369 2.842 27.139 26.417 37.501z" fill="url(#ai)"/>
   <linearGradient id="aw" x1="-184.54" x2="-302.14" y1="822.36" y2="523.68" gradientTransform="matrix(-.9988 -.0496 -.0496 .9988 1789.6 252.48)" gradientUnits="userSpaceOnUse">
    <stop stop-color="#311944" offset="0"/>
    <stop stop-color="#6B3976" offset="1"/>
   </linearGradient>
   <path d="m1973.2 842.36c2.09 1.801-4.996 9.646-6.105 21.344-2.157 22.701 18.997 51.551 41.932 55.424 13.568 2.288 17.757-5.842 40.448-6.755 14.06-0.565 25.606 2.032 32.847 4.156 5.791 25.497-2.199 49.985-19.216 60.436-18.309 11.244-40.452 2.149-49.705-1.653-6.187-2.542-26.011-10.641-35.562-30.227-9.948-20.404 1.445-31.528-10.454-45.673-6-7.131-14.186-10.594-21.624-24.117-2.019-3.673-3.327-6.891-4.116-9.048 12.293-11.815 28.528-26.496 31.555-23.887z" fill="url(#aw)"/>
   <linearGradient id="bh" x1="-298.22" x2="-292.27" y1="643.86" y2="696.91" gradientTransform="matrix(-.9988 -.0496 -.0496 .9988 1789.6 252.48)" gradientUnits="userSpaceOnUse">
    <stop stop-color="#FFC444" offset="0"/>
    <stop stop-color="#F36F56" offset="1"/>
   </linearGradient>
   <path d="m2065.4 924.69s-10.048 4.547-26.885 2.437c-0.817-0.103-1.737 0.081-1.863 0.508-0.473 1.606 9.974 9.659 20.107 7.476 7.198-1.556 13.074-8.023 12.211-9.828-0.366-0.761-1.976-0.772-3.57-0.593z" fill="url(#bh)"/>
   <linearGradient id="p" x1="1581.2" x2="1611.7" y1="1828.7" y2="1921.8" gradientUnits="userSpaceOnUse">
    <stop stop-color="#FFC444" offset="0"/>
    <stop stop-color="#F36F56" offset=".9964"/>
   </linearGradient>
   <path d="m1513.4 1857.2 44.74-1.272s49.098-40.833 71.473-37.562c22.391 3.272 55.918 20.192 60.009 23.661 4.091 3.468-12.273 21.758-28.627 19.459-16.345-2.299-52.787 5.694-59.299 20.276-6.511 14.579-34.75 22.658-39.546 13.856l-60.135 10.49z" fill="url(#p)"/>
   <linearGradient id="aj" x1="1162" x2="1817.5" y1="1916" y2="401.5" gradientUnits="userSpaceOnUse">
    <stop stop-color="#AA80F9" offset="0"/>
    <stop stop-color="#6165D7" offset=".9964"/>
   </linearGradient>
   <path d="m1527 1841.4c3.132 37.851-4.861 63.258-18.193 80.439-59.019 76.065-258.71 38.057-376.76-69.296-87.069-79.184-133.06-199.38-131.37-305.9 3.314-207.86 189.51-408.47 468.69-474.72 41.554 128.6 83.168 257.38 124.84 386.35-173.17-1.129-277.88 130.48-262.38 226.5 11.555 71.567 92.183 137.97 195.16 156.63z" fill="url(#aj)"/>
   <linearGradient id="j" x1="1779.6" x2="2444.8" y1="2201.7" y2="664.79" gradientUnits="userSpaceOnUse">
    <stop stop-color="#AA80F9" offset="0"/>
    <stop stop-color="#6165D7" offset=".9964"/>
   </linearGradient>
   <path d="m2214.8 2236.6c-93.165-43.703-92.626-127.36-179.38-165.09-123.35-53.652-259.04 57.155-280.17 24.545-21.972-33.907 139.92-130.7 118.33-231.95-17.146-80.417-130.1-69.4-190.42-180.16-57.106-104.86-1.744-199.18-52.313-236.24-18.114-13.28-50.039-19.056-110.48 6.976 42.128 136.34 72.373 256.55 74.565 404.7 0.583 39.475 0.194 149.7 6.525 312.09 4.106 105.29 8.435 165.76 42.453 182.7 35.516 17.672 64.359-31.495 150.72-58.289 63.581-19.729 127.79-11.487 254.03 5.856 189.26 26.001 202.72 53.795 239.97 32.546 24.283-13.852 35.833-35.603 43.567-77.921-38.158 2.828-78.586-1.554-117.4-19.761z" fill="url(#j)" opacity=".3"/>
  </g>
  <g fill="#fff">
   <path d="m1683.9 2124.5c0 40.866-33.765 74.91-75.551 76.043-41.937 1.136-76.045-31.285-76.045-72.419s34.108-75.186 76.045-76.054c41.786-0.866 75.551 31.563 75.551 72.43z"/>
   <path d="m1986.7 2117.3c0 40.333-32.888 73.921-73.589 75.024-40.845 1.107-74.063-30.901-74.063-71.494 0-40.594 33.218-74.189 74.063-75.035 40.7-0.843 73.589 31.172 73.589 71.505z"/>
   <path d="m2281.6 2110.2c0 39.813-32.046 72.957-71.702 74.032-39.795 1.078-72.158-30.526-72.158-70.593s32.363-73.218 72.158-74.043c39.656-0.821 71.702 30.79 71.702 70.604z"/>
  </g>
  <path d="m2217.9 3047.3c-1.55 0-2.859-1.182-3.003-2.742l-54.737-591.54c-0.153-1.66 1.068-3.131 2.728-3.285 1.655-0.138 3.132 1.068 3.285 2.729l48.71 526.41v-539.22c0-1.668 1.352-3.02 3.02-3.02 1.667 0 3.02 1.352 3.02 3.02v604.63c0 1.614-1.268 2.943-2.881 3.017h-0.142z" fill="#b7c0ce"/>
  <polygon points="1074.1 2491 1678.3 2563.3 2828.2 2504.3 2227.7 2438.5" fill="#d8dee8"/>
  <polygon points="2828.2 2532.8 1678.3 2591.8 1074.1 2519.5 1074.1 2491 1678.3 2563.3 2828.2 2504.3" fill="#b7c0ce"/>
  <path d="m1682.4 3253.6h-0.12c-1.62-0.063-2.902-1.396-2.902-3.018v-665.68c0-1.667 1.352-3.02 3.02-3.02s3.02 1.352 3.02 3.02v588.32l46.022-588.56c0.131-1.663 1.57-2.903 3.247-2.776 1.662 0.13 2.905 1.584 2.775 3.246l-52.053 665.68c-0.123 1.578-1.44 2.785-3.009 2.785z" fill="#b7c0ce"/>
  <path d="m1080.7 3135.3c-0.04 0-0.08-1e-3 -0.12 0-1.62-0.063-2.902-1.396-2.902-3.018v-614.42c0-1.667 1.352-3.02 3.02-3.02s3.02 1.352 3.02 3.02v537.38l42.212-537.61c0.131-1.663 1.612-2.908 3.247-2.774 1.663 0.13 2.905 1.583 2.775 3.247l-48.243 614.42c-0.123 1.577-1.44 2.784-3.009 2.784z" fill="#b7c0ce"/>
  <path d="m2822.5 3135.3c-1.563 0-2.877-1.198-3.008-2.769l-51.226-614.42c-0.138-1.662 1.097-3.121 2.759-3.26 1.668-0.135 3.122 1.097 3.26 2.759l45.196 542.1v-526.92c0-1.667 1.352-3.02 3.02-3.02s3.02 1.352 3.02 3.02v599.49c0 1.619-1.277 2.95-2.895 3.017h-0.126z" fill="#b7c0ce"/>
  <linearGradient id="cc" x1="1744.5" x2="1779.5" y1="3176.6" y2="3207.7" gradientTransform="matrix(-.9902 -.14 -.14 .9902 3687.3 206.94)" gradientUnits="userSpaceOnUse">
   <stop stop-color="#444B8C" offset="0"/>
   <stop stop-color="#26264F" offset=".9964"/>
  </linearGradient>
  <path d="m1505.3 3124c-0.995-5.484-18.707-10.449-27.477-3.103-4.355 3.647-7.354 11.041-4.834 14.381 0.917 1.215-2.838 3.351 0.759 3.393 11.932 0.14 32.543-9.221 31.552-14.671z" fill="url(#cc)"/>
  <linearGradient id="bq" x1="1513.2" x2="1513.2" y1="3591.7" y2="3530.7" gradientTransform="matrix(-.9988 .0498 .0498 .9988 2810.9 -528.79)" gradientUnits="userSpaceOnUse">
   <stop stop-color="#FFC444" offset="0"/>
   <stop stop-color="#F36F56" offset=".9964"/>
  </linearGradient>
  <path d="m1486 3124-18.374 0.916c6.365-11.573-1.288-43.05-1.288-43.05l19.84 0.583s-0.488 9.138-1.698 22.713c-0.414 4.647 0.35 11.647 1.52 18.838z" fill="url(#bq)"/>
  <linearGradient id="br" x1="1748.1" x2="1783" y1="3172.6" y2="3203.7" gradientTransform="matrix(-.9902 -.14 -.14 .9902 3687.3 206.94)" gradientUnits="userSpaceOnUse">
   <stop stop-color="#444B8C" offset="0"/>
   <stop stop-color="#26264F" offset=".9964"/>
  </linearGradient>
  <path d="m1488.4 3123.7s-21.93-5.053-24.302-0.703c-2.373 4.351-4.214 15.998 9.699 15.622 13.914-0.376 15.838-11.231 14.603-14.919z" fill="url(#br)"/>
  <linearGradient id="be" x1="1959.8" x2="1994.7" y1="3129.2" y2="3160.4" gradientTransform="matrix(-1 0 0 1 3584.5 0)" gradientUnits="userSpaceOnUse">
   <stop stop-color="#444B8C" offset="0"/>
   <stop stop-color="#26264F" offset=".9964"/>
  </linearGradient>
  <path d="m1617.2 3146.3c-1.754-5.29-19.986-7.728-27.642 0.774-3.801 4.221-5.736 11.962-2.773 14.915 1.078 1.076-2.34 3.717 1.227 3.255 11.833-1.533 30.93-13.687 29.188-18.944z" fill="url(#be)"/>
  <linearGradient id="l" x1="1795.3" x2="1795.3" y1="3463.3" y2="3402.4" gradientTransform="matrix(-.9813 .1926 .1926 .9813 2684.3 -582.01)" gradientUnits="userSpaceOnUse">
   <stop stop-color="#FFC444" offset="0"/>
   <stop stop-color="#F36F56" offset=".9964"/>
  </linearGradient>
  <path d="m1595.7 3151.4-18.052 3.542c4.639-12.366-7.451-42.42-7.451-42.42l19.719-2.27s0.828 9.114 1.578 22.722c0.258 4.659 2.017 11.478 4.206 18.426z" fill="url(#l)"/>
  <linearGradient id="av" x1="1963.3" x2="1998.3" y1="3125.3" y2="3156.4" gradientTransform="matrix(-1 0 0 1 3584.5 0)" gradientUnits="userSpaceOnUse">
   <stop stop-color="#444B8C" offset="0"/>
   <stop stop-color="#26264F" offset=".9964"/>
  </linearGradient>
  <path d="m1600.4 3148.4s-22.422-1.933-24.161 2.707c-1.74 4.639-1.934 16.429 11.791 14.11 13.724-2.32 14.11-13.338 12.37-16.817z" fill="url(#av)"/>
  <path d="m1504.5 2599 77.472-181.48c3.87-9.067-1.327-19.439-10.907-21.766l-141.91-34.464c-7.67-1.862-15.548 2.163-18.534 9.469l-71.257 174.42c-3.548 8.685 1.129 18.543 10.1 21.288l135.7 41.519c7.798 2.386 16.139-1.492 19.341-8.991z" fill="#26264f"/>
  <path d="m1501 2590.3 72.365-169.51c3.615-8.469-1.24-18.158-10.188-20.331l-132.56-32.192c-7.164-1.74-14.523 2.02-17.311 8.845l-66.56 162.92c-3.315 8.113 1.054 17.321 9.435 19.885l126.75 38.782c7.283 2.229 15.074-1.394 18.064-8.399z" fill="#eff2f6"/>
  <linearGradient id="bp" x1="-568.06" x2="-589.44" y1="2475.1" y2="2572.7" gradientTransform="matrix(-1 0 0 1 975.4 0)" gradientUnits="userSpaceOnUse">
   <stop stop-color="#FFC444" offset="0"/>
   <stop stop-color="#F36F56" offset=".9964"/>
  </linearGradient>
  <path d="m1545.6 2540.4 2.324-21.384 12.321-23.488c1.678-3.199 2.554-6.757 2.554-10.369v-23.323l-14.876 34.401s-9.763-8.833-13.482-10.693c-3.719-1.859-3.254 5.579-0.465 8.368s-1.395 25.568 1.395 27.892l-0.93 13.947z" fill="url(#bp)"/>
  <linearGradient id="y" x1="-374.83" x2="-127.51" y1="2466.7" y2="2702.9" gradientTransform="matrix(-1 0 0 1 975.4 0)" gradientUnits="userSpaceOnUse">
   <stop stop-color="#E38DDD" offset=".0036"/>
   <stop stop-color="#9571F6" offset="1"/>
  </linearGradient>
  <path d="m1427.6 2404.2c-11.568-28.289-36.401-44.559-49.277-52.996-30.467-19.962-49.972-16.318-119.94-26.963-93.245-14.187-104.41-27.63-135.74-16.735-41.166 14.311-62.668 51.678-72.521 68.802-49.675 86.328 8.403 130.21-6.508 302.17-6.09 70.231-21.703 131.26 15.806 167.36 7.898 7.6 16.732 11.575 34.401 19.525 70.073 31.529 132.9 26.094 171.08 22.314 42.01-4.159 63.242-6.542 74.381-21.385 17.793-23.709-0.523-53.842-3.719-105.99-2.294-37.441 6.218-67.11 23.244-126.45 39.58-137.95 90.966-175.45 68.801-229.65z" fill="url(#y)"/>
  <linearGradient id="e" x1="3155.9" x2="3310.1" y1="2402" y2="2596.1" gradientTransform="matrix(-.9663 .2576 .2576 .9663 3719.7 -923.84)" gradientUnits="userSpaceOnUse">
   <stop stop-color="#FFC444" offset="0"/>
   <stop stop-color="#F36F56" offset=".9964"/>
  </linearGradient>
  <path d="m1271.5 2273.4c4.245-15.124-3.177-29.13-4.813-32.148-6.849-12.635-8.603-14.361-11.871-16.549l-4.542-2.802s-0.263-0.105-0.54-0.205c-2.915-1.037-12.85-1.339-14.863-0.909-6.43 1.373-13.275 27.566-11.322 64.599-0.267 1.411-0.524 2.834-0.772 4.27-1.013 5.848-1.817 11.58-2.439 17.185-0.595 5.361-8.197 5.238-13.58 4.894-21.849-1.394-32.541 0.465-33.471 3.719-1.742 6.098 24.174 26.034 56.175 30.518 42.947 0.319 77.883-4.254 74.129-11.017-1.667-3.002-34.943-11.697-44.302-20.315-8.569-7.892-7.871-16.039-8.575-21.871 2.598-1.348 17.662-8.227 20.786-19.369z" fill="url(#e)"/>
  <path d="m1263.6 2211.4c-0.038 11.472-5.444 23.725-8.198 25.694-0.355 0.254-2.357 1.835-4.155 4.539-0.245 0.367-0.461 0.799-0.654 1.356-2.513 7.229 8.982 15.737 6.763 18.975-1.61 2.348-9.422-0.792-10.351 1.236-0.875 1.908 5.618 5.86 4.623 8.146-0.75 1.726-4.746 0.147-7.266 2.791-1.256 1.317-0.887 2.36-2.218 6.385-0.753 2.276-1.805 4.767-2.621 6.152-3.965 6.736-15.195 9.197-17.356 6.501-0.601-0.751-0.084-1.383-0.699-3.904 0 0-0.569-2.336-2.195-5.038-2.323-3.86-7.93-6.62-13.589-10.694-10.478-7.545-13.326-13.977-14.18-16.15-0.304-0.774-0.493-1.358-0.629-1.779-2.725-8.456-2.737-20.877 1.065-28.516 6.368-12.796 20.735-6.721 32.494-19.4 13.568-14.628 5.487-34.623 12.849-36.831 8.116-2.435 26.387 19.323 26.317 40.537z" fill="#26264f"/>
  <linearGradient id="bz" x1="3163.3" x2="3335.5" y1="2392.2" y2="2608.9" gradientTransform="matrix(-.9663 .2576 .2576 .9663 3719.7 -923.84)" gradientUnits="userSpaceOnUse">
   <stop stop-color="#FFC444" offset="0"/>
   <stop stop-color="#F36F56" offset=".9964"/>
  </linearGradient>
  <path d="m1253.2 2259.2c-2.813-3.864-7.753-0.233-7.782 4.765-0.03 4.999 4.815 10.196 9.514 9.209 4.7-0.987 2.052-8.774-1.732-13.974z" fill="url(#bz)"/>
  <path d="m1250.9 2250.9 6.523 8.486s7.032 10.397 11.138 4.701c3.354-4.654 4.223-4.55 4.429-4.355 0.039 0.037 0.05 0.093 0.059 0.09 0.059-0.016-0.492-2.316-0.987-4.339 1.736 2.493 4.13 6.537 5.579 11.978 1.408 5.285 2.917 10.943-0.065 16.379-0.172 0.313-3.457 6.099-9.59 7.499 0 0-2.412 0.55-12.603-1.241 0 0 11.139-8.083 11.309-10.003 0.462-5.221-6.78-8.043-12.156-18.747-2.073-4.128-3.094-7.871-3.636-10.448z" fill="#26264f"/>
  <linearGradient id="w" x1="-466.13" x2="-218.81" y1="2562.3" y2="2798.5" gradientTransform="matrix(-1 0 0 1 975.4 0)" gradientUnits="userSpaceOnUse">
   <stop stop-color="#E38DDD" offset=".0036"/>
   <stop stop-color="#9571F6" offset="1"/>
  </linearGradient>
  <path d="m1228.6 2838.4c12.359-24.609-17.926-57.32 1.86-94.835 16.803-31.863 47.329-24.724 61.364-53.926 16.952-35.271-19.915-61.632-18.595-115.29 1.578-64.147 56.773-128.36 89.256-122.73 21.017 3.643 23.716 34.997 38.504 69.323-13.085 28.692-28.372 64.638-42.222 112.91-17.026 59.337-25.539 89.006-23.244 126.45 3.196 52.15 21.512 82.283 3.719 105.99-11.139 14.843-32.371 17.225-74.381 21.385-38.177 3.78-101 9.215-171.08-22.314-8.869-3.991-15.51-6.98-20.925-9.929 109.47 16.439 145.94 2.484 155.74-17.035z" fill="url(#w)" opacity=".3"/>
  <linearGradient id="m" x1="-429.16" x2="-181.84" y1="2523.6" y2="2759.8" gradientTransform="matrix(-1 0 0 1 975.4 0)" gradientUnits="userSpaceOnUse">
   <stop stop-color="#E38DDD" offset=".0036"/>
   <stop stop-color="#9571F6" offset="1"/>
  </linearGradient>
  <path d="m1549.8 2536.3c-6.818-2.944-13.636-5.889-20.455-8.833-11.523 11.785-26.221 23.246-38.585 19.525-18.429-5.546-13.821-39.45-36.26-99.019-25.425-67.494-54.271-84.843-68.802-91.116-8.116-3.504-13.72-5.831-20.455-4.184-30.991 7.576-41.237 88.334-32.542 148.76 4.899 34.046 14.505 100.8 69.267 132.49 7.779 4.501 50.599 29.279 92.976 9.762 36.203-16.673 58.573-59.451 54.856-107.39z" fill="url(#m)"/>
  <linearGradient id="bd" x1="-204.66" x2="-407.4" y1="2745.4" y2="2890.2" gradientTransform="matrix(-1 0 0 1 975.4 0)" gradientUnits="userSpaceOnUse">
   <stop stop-color="#444B8C" offset="0"/>
   <stop stop-color="#26264F" offset=".9964"/>
  </linearGradient>
  <path d="m1498 3084.4c-11.333 1.258-22.666 2.52-33.998 3.778-15.306-16.966-38.157-46.549-50.369-88.143-23.394-79.681 13.233-131.98-11.333-152.37-28.322-23.503-84.266 39.997-207.77 57.926-39.75 5.77-127.99 18.582-163.7-28.963-14.474-19.275-22.788-51.762-11.333-79.33 20.537-49.423 88.181-43.487 311.02-86.885 85.843-16.719 99.406-22.194 119.8-12.458 100.86 48.148 58.801 320.41 47.675 386.44z" fill="url(#bd)"/>
  <linearGradient id="af" x1="-641.91" x2="-139.85" y1="2922.7" y2="2922.7" gradientTransform="matrix(-1 0 0 1 975.4 0)" gradientUnits="userSpaceOnUse">
   <stop stop-color="#444B8C" offset="0"/>
   <stop stop-color="#26264F" offset=".9964"/>
  </linearGradient>
  <path d="m1599.1 3116.4c-11.333 1.258-22.666 2.519-33.998 3.777-15.306-16.966-38.157-46.549-50.368-88.143-23.394-79.68 13.233-131.98-11.333-152.37-28.322-23.503-84.267 39.997-207.77 57.926-39.749 5.77-127.99 18.582-163.7-28.963-14.474-19.275-22.788-51.762-11.333-79.33 20.537-49.422 88.181-43.487 311.02-86.885 85.843-16.719 99.406-22.193 119.8-12.458 100.86 48.149 58.801 320.41 47.674 386.44z" fill="url(#af)"/>
  <linearGradient id="ag" x1="1023.2" x2="1399.1" y1="3253.1" y2="3253.1" gradientUnits="userSpaceOnUse">
   <stop stop-color="#444B8C" offset="0"/>
   <stop stop-color="#26264F" offset=".9964"/>
  </linearGradient>
  <ellipse cx="1211.2" cy="3253.1" rx="187.95" ry="76.706" fill="url(#ag)"/>
  <linearGradient id="bb" x1="1023.2" x2="1399.1" y1="3227.6" y2="3227.6" gradientUnits="userSpaceOnUse">
   <stop stop-color="#AA80F9" offset="0"/>
   <stop stop-color="#6165D7" offset=".9964"/>
  </linearGradient>
  <path d="m1023.2 3244.1c0 39.99 84.147 72.409 187.95 72.409 103.8 0 187.95-32.419 187.95-72.409 0-39.989-84.147-105.42-187.95-105.42s-187.95 65.433-187.95 105.42z" fill="url(#bb)"/>
  <linearGradient id="al" x1="-827.52" x2="-511.67" y1="3209.2" y2="3209.2" gradientTransform="matrix(-1 0 0 1 511.58 0)" gradientUnits="userSpaceOnUse">
   <stop stop-color="#AA80F9" offset="0"/>
   <stop stop-color="#6165D7" offset=".9964"/>
  </linearGradient>
  <path d="m1023.2 3244.1c0-39.99 84.147-105.42 187.95-105.42 47.928 0 91.641 13.964 124.84 32.918 2.323 4.868 3.407 9.709 2.966 14.305-2.155 22.5-38.851 36.332-59.916 40.894-53.044 11.489-78.947-20.23-122.68-19.021-27.04 0.747-64.51 14.331-108.95 71.859-15.384-10.498-24.203-22.615-24.203-35.532z" fill="url(#al)" opacity=".3"/>
  <path d="m1200.9 3175c7.51 1.869 14.516 1.795 21.108 0.12 5.978-1.518 10.083-7.05 10.083-13.219l-1e-3 -211.93h-41.792v211.68c0 6.358 4.431 11.813 10.602 13.349z" fill="#fff"/>
  <linearGradient id="z" x1="-720.51" x2="-678.72" y1="3063.2" y2="3063.2" gradientTransform="matrix(-1 0 0 1 511.58 0)" gradientUnits="userSpaceOnUse">
   <stop stop-color="#AA80F9" offset="0"/>
   <stop stop-color="#6165D7" offset=".9964"/>
  </linearGradient>
  <path d="m1200.9 3175c7.51 1.869 14.516 1.795 21.108 0.12 5.978-1.518 10.083-7.05 10.083-13.219l-1e-3 -211.93h-41.792v211.68c0 6.358 4.431 11.813 10.602 13.349z" fill="url(#z)" opacity=".65"/>
  <linearGradient id="by" x1="-492.14" x2="-568.77" y1="3018.8" y2="2918.9" gradientTransform="matrix(-1 0 0 1 511.58 0)" gradientUnits="userSpaceOnUse">
   <stop stop-color="#311944" offset="0"/>
   <stop stop-color="#893976" offset="1"/>
  </linearGradient>
  <path d="m1432 2860.8-63.845-40.36c-2.656-15.077-32.751-172.8-154.93-222.33-49.686-20.141-103.16-17.752-132.5-16.44-58.578 2.616-100.36 4.482-120.46 32.425-25.806 35.879 17.476 68.417 8.514 171.05-3.655 41.853-12.949 60.441-1.373 88.167 13.868 33.213 46.026 51.623 71.031 61.986 29.89 17.357 81.932 42.09 150.67 48.114 115.78 10.147 202.22-39.519 231.94-58.522 13.218-4.167 23.149-15.159 25.96-28.729 2.847-13.763-3.132-27.85-15.01-35.359z" fill="url(#by)"/>
  <path d="m1402.7 2889.6c-2.36-14.192-41.914-2.427-79.33-30.221-55.93-41.546-26.901-111.92-75.553-179.44-44.649-61.958-134.53-93.492-162.44-69.886-37.143 31.424 53.761 148.94 0 224.77-26.115 36.835-65.903 35.061-66.108 56.664-0.325 34.138 98.701 73.498 192.66 71.775 101.01-1.851 194.52-51.137 190.77-73.663z" fill="#fff" opacity=".26"/>
  <linearGradient id="s" x1="2172.4" x2="2585" y1="2528.7" y2="2528.7" gradientUnits="userSpaceOnUse">
   <stop stop-color="#444B8C" offset="0"/>
   <stop stop-color="#26264F" offset=".9964"/>
  </linearGradient>
  <path d="m2585 2515.7-412.59-3.07v9.084c0 2.466 1.8 4.562 4.237 4.936l116.67 17.889c1.385 0.212 2.789 0.269 4.186 0.167l283.02-20.396c2.527-0.182 4.484-2.285 4.484-4.818v-3.792z" fill="url(#s)"/>
  <linearGradient id="ax" x1="2168.3" x2="2442.2" y1="2425.9" y2="2425.9" gradientUnits="userSpaceOnUse">
   <stop stop-color="#444B8C" offset="0"/>
   <stop stop-color="#26264F" offset=".9964"/>
  </linearGradient>
  <path d="m2435.3 2500.7-258.6 16.619c-4.627 0.297-8.389-2.863-8.389-7.059v-168.11c0-4.196 3.762-7.597 8.389-7.597h258.6c3.812 0 6.895 3.075 6.895 6.868v151.97c0 3.793-3.082 7.066-6.895 7.312z" fill="url(#ax)"/>
  <path d="m2439.4 2500.7-258.6 16.619c-4.628 0.297-8.39-2.863-8.39-7.059v-168.11c0-4.196 3.762-7.597 8.39-7.597h258.6c3.812 0 6.895 3.075 6.895 6.868v151.97c-1e-3 3.793-3.083 7.066-6.895 7.312z" fill="#26264f"/>
  <path d="m2431.3 2490-240.86 14.436c-3.766 0.226-6.826-2.368-6.826-5.794v-147.18c0-3.426 3.06-6.214 6.826-6.228l240.86-0.906c3.145-0.012 5.689 2.508 5.689 5.628v134.06c0 3.118-2.545 5.8-5.689 5.989z" fill="#eff2f6"/>
  <path d="m2319.2 2339.2c0 1.562-1.332 2.832-2.975 2.837-1.646 0.01-2.981-1.261-2.981-2.826 0-1.566 1.335-2.836 2.981-2.837 1.643 0 2.975 1.264 2.975 2.826z" fill="#fff"/>
  <path d="m2378.1 2454.7c-20.038-9.76-35.793 2.607-50.998-9.595-9.218-7.398-4.693-12.915-16.036-23.971-12.563-12.245-20.743-8.129-33.368-19.15-15.965-13.935-7.98-24.776-21.731-34.781-16.683-12.137-34.674-0.903-50.554-12.543-6.849-5.021-10.608-12.32-12.57-20.082h-15.538c-2.723 0-4.934 1.998-4.934 4.462v174.38c0 2.465 2.211 4.321 4.934 4.146l264.9-17.024c1.3-0.083 2.453-0.77 3.193-1.767-19.391-0.64-31.305-6.526-38.92-12.61-14.898-11.903-12.314-23.641-28.379-31.466z" fill="#fff" opacity=".48"/>
  <path d="m2449.7 2500.2-277.29 17.492 120.9 18.538c1.385 0.212 2.789 0.269 4.186 0.167l287.5-20.719-130.89-15.361c-1.464-0.17-2.941-0.21-4.412-0.117z" fill="#26264f"/>
  <polygon points="2515.2 2511.4 2286.3 2527.2 2212.9 2517.9 2443.7 2503.1" fill="#d8dee8" opacity=".47"/>
  <linearGradient id="q" x1="3099.8" x2="3113.4" y1="2960.9" y2="3133.5" gradientTransform="translate(-626.26)" gradientUnits="userSpaceOnUse">
   <stop stop-color="#26264F" offset=".0036"/>
   <stop stop-color="#444B8C" offset="1"/>
  </linearGradient>
  <path d="m2502.2 3046.8s-60.651 4.215-61.542 8.175c-0.892 3.961 41.167 19.269 55.863 19.84s26.785-3.772 25.454-9.996c-1.33-6.225-6.474-21.881-6.474-21.881z" fill="url(#q)"/>
  <linearGradient id="bw" x1="2188.7" x2="2185.8" y1="2758.7" y2="2552.3" gradientTransform="matrix(.9853 .171 -.171 .9853 820.66 -36.205)" gradientUnits="userSpaceOnUse">
   <stop stop-color="#FFC444" offset="0"/>
   <stop stop-color="#F36F56" offset=".9964"/>
  </linearGradient>
  <path d="m2499.4 3019.8-1.076 28.624s9.226 5.208 16.55 2.216l8.144-30.185z" fill="url(#bw)"/>
  <linearGradient id="bn" x1="2930.2" x2="2943.8" y1="2949.3" y2="3121.9" gradientTransform="translate(-626.26)" gradientUnits="userSpaceOnUse">
   <stop stop-color="#26264F" offset=".0036"/>
   <stop stop-color="#444B8C" offset="1"/>
  </linearGradient>
  <path d="m2332.6 3035.2s-60.651 4.215-61.543 8.175c-0.892 3.961 41.168 19.269 55.863 19.84 14.696 0.571 26.785-3.772 25.455-9.996-1.331-6.226-6.475-21.881-6.475-21.881z" fill="url(#bn)"/>
  <linearGradient id="bt" x1="2019.6" x2="2016.7" y1="2776.3" y2="2569.9" gradientTransform="matrix(.9853 .171 -.171 .9853 820.66 -36.205)" gradientUnits="userSpaceOnUse">
   <stop stop-color="#FFC444" offset="0"/>
   <stop stop-color="#F36F56" offset=".9964"/>
  </linearGradient>
  <path d="m2329.7 3008.3-1.077 28.624s9.226 5.208 16.55 2.216l8.144-30.185z" fill="url(#bt)"/>
  <linearGradient id="am" x1="2811.1" x2="2733.6" y1="2594.4" y2="2709.6" gradientUnits="userSpaceOnUse">
   <stop stop-color="#893976" offset="0"/>
   <stop stop-color="#311944" offset="1"/>
  </linearGradient>
  <path d="m2492.9 3023.9c11.333 1.258 22.666 2.52 33.999 3.778 15.306-16.966 38.156-46.549 50.368-88.143 23.544-80.194-10.553-137.98 11.333-152.37 30.978-20.356 98.117 96.842 205.88 93.832 44.217-1.236 101.93-22.891 124.11-70.052 3.35-7.12 19.797-44.391 3.778-79.33-16.538-36.075-98.584-51.773-262-81.702-70.146-12.845-105.57-19.253-119.8-12.458-100.86 48.149-58.802 320.41-47.676 386.44z" fill="url(#am)"/>
  <linearGradient id="u" x1="2319.9" x2="2875.6" y1="2848.1" y2="2848.1" gradientUnits="userSpaceOnUse">
   <stop stop-color="#893976" offset="0"/>
   <stop stop-color="#311944" offset="1"/>
  </linearGradient>
  <path d="m2319.9 3024.4c11.723 2.04 23.445 4.08 35.167 6.12 14.238-20.972 35.787-53.831 59.885-95.525 50.232-86.915 49.315-104.57 72.529-115.76 49.133-23.677 86.256 40.288 207.77 57.926 39.75 5.77 127.99 18.582 163.7-28.963 14.475-19.275 22.789-51.761 11.333-79.33-20.537-49.423-88.181-43.487-311.02-86.885-86.904-16.926-98.751-19.943-119.8-12.458-117.56 41.805-119.85 297.78-119.56 354.87z" fill="url(#u)"/>
  <linearGradient id="ap" x1="2617" x2="2864.4" y1="2431" y2="2667.2" gradientUnits="userSpaceOnUse">
   <stop stop-color="#FF9085" offset="0"/>
   <stop stop-color="#FB6FBB" offset="1"/>
  </linearGradient>
  <path d="m2563.3 2343.7c11.568-28.292 36.4-44.56 49.277-52.997 6.444-4.224 12.398-7.389 18.443-9.857 46.632-19.039 93.19-17.729 101.5-17.106 20.139 1.509 69.881 5.231 106.74 37.164 17.838 15.457 32.097 37.035 52.887 158.66 28.995 169.62 5.462 152.24 28.332 220.99 12.102 36.382 30.956 78.124 11.014 104.78-6.441 8.61-15.643 11.082-34.401 19.523-70.072 31.531-132.9 26.097-171.08 22.315-42.01-4.161-63.242-6.541-74.381-21.385-17.793-23.71 0.523-53.843 3.719-105.99 2.294-37.441-6.218-67.112-23.244-126.45-39.581-137.95-90.966-175.46-68.802-229.65z" fill="url(#ap)"/>
  <linearGradient id="ad" x1="2321.2" x2="2315.6" y1="2505.2" y2="2531" gradientUnits="userSpaceOnUse">
   <stop stop-color="#FFC444" offset="0"/>
   <stop stop-color="#F36F56" offset=".9964"/>
  </linearGradient>
  <path d="m2365.9 2512.6-44.775-8.611c-3.217-0.619-6.518-0.651-9.747-0.096l-38.73 6.66s25.183 10.13 46.591 6.954c21.406-3.176 44.792 8.867 44.792 8.867z" fill="url(#ad)"/>
  <linearGradient id="as" x1="6004.9" x2="6159.2" y1="1588.5" y2="1782.6" gradientTransform="matrix(.9663 .2576 -.2576 .9663 -2744.3 -923.84)" gradientUnits="userSpaceOnUse">
   <stop stop-color="#FFC444" offset="0"/>
   <stop stop-color="#F36F56" offset=".9964"/>
  </linearGradient>
  <path d="m2662.4 2232.4c-7.53-11.377 3.741-33.264 8.2-41.922 0.154-0.299 0.35-0.69 0.769-1.465 6.849-12.635 8.603-14.362 11.871-16.55l4.542-2.804s0.263-0.103 0.54-0.203c2.915-1.037 12.85-1.339 14.862-0.907 6.43 1.372 13.275 27.564 11.322 64.596 0.267 1.413 0.523 2.837 0.772 4.272 1.012 5.847 1.817 11.58 2.439 17.184 0.595 5.36 8.197 5.239 13.58 4.896 21.849-1.395 32.542 0.465 33.471 3.719 1.742 6.098-24.174 26.034-56.175 30.516-42.947 0.321-77.883-4.254-74.128-11.016 1.667-3.003 34.943-11.698 44.302-20.316 8.569-7.891 7.871-16.036 8.575-21.869-4.428 0.236-19.2 0.546-24.942-8.131z" fill="url(#as)"/>
  <path d="m2674.4 2159.2c-3.531 7.788 5.035 23.426 8.198 25.695 0.355 0.255 2.357 1.833 4.155 4.538 0.245 0.369 0.461 0.801 0.654 1.357 2.513 7.231-8.982 15.738-6.763 18.973 1.61 2.35 9.422-0.789 10.351 1.236 0.875 1.911-5.618 5.862-4.623 8.146 0.75 1.726 4.746 0.148 7.266 2.793 1.948 2.043 2.174 4.94 2.218 6.385 0.312 10.278-22.995 47.397-27.851 64.146-5.15 17.763 4.062 34.67 37.523 81.389 47.596 66.455 71.394 99.683 84.625 109.18 64.664 46.42 140.7 40.731 171.88 35.887 37.46-5.818 114.85-17.84 139.77-77.441 28.649-68.51-27.756-162.26-85.626-178.18-26.464-7.279-40.554 3.778-74.923-8.182-37.958-13.211-33.359-36.566-68.501-50.359-46.871-18.398-77.114 14.49-109.05-9.456-17.377-13.033-14.512-27.34-35.887-37.776-21.089-10.298-48.795-8.541-53.423 1.666z" fill="#26264f"/>
  <linearGradient id="ay" x1="6012.3" x2="6184.6" y1="1578.7" y2="1795.4" gradientTransform="matrix(.9663 .2576 -.2576 .9663 -2744.3 -923.84)" gradientUnits="userSpaceOnUse">
   <stop stop-color="#FFC444" offset="0"/>
   <stop stop-color="#F36F56" offset=".9964"/>
  </linearGradient>
  <path d="m2684.8 2207c2.812-3.864 7.753-0.233 7.782 4.766 0.03 4.999-4.814 10.196-9.513 9.209-4.701-0.988-2.054-8.775 1.731-13.975z" fill="url(#ay)"/>
  <linearGradient id="ab" x1="2549.4" x2="2796.7" y1="2501.8" y2="2738" gradientUnits="userSpaceOnUse">
   <stop stop-color="#FF9085" offset="0"/>
   <stop stop-color="#FB6FBB" offset="1"/>
  </linearGradient>
  <path d="m2762.3 2777.9c-12.359-24.609 17.925-57.32-1.86-94.835-16.803-31.863-47.329-24.724-61.364-53.926-16.952-35.271 19.915-61.632 18.595-115.29-1.578-64.147-56.773-128.36-89.257-122.73-21.017 3.643-23.717 34.998-38.504 69.323 13.085 28.692 28.372 64.638 42.222 112.91 17.026 59.337 25.539 89.006 23.244 126.45-3.196 52.15-21.512 82.283-3.719 105.99 11.139 14.843 32.371 17.225 74.381 21.385 38.177 3.78 101 9.215 171.08-22.314 8.87-3.991 15.51-6.98 20.926-9.929-109.47 16.441-145.94 2.485-155.74-17.034z" fill="url(#ab)" opacity=".3"/>
  <linearGradient id="bx" x1="2560.5" x2="2841" y1="2474.1" y2="2742" gradientUnits="userSpaceOnUse">
   <stop stop-color="#FF9085" offset="0"/>
   <stop stop-color="#FB6FBB" offset="1"/>
  </linearGradient>
  <path d="m2354.5 2525.7c1.27-5.714 2.539-11.425 3.809-17.139 86.023 15.42 123.64-1.889 141.81-22.116 16.679-18.564 9.567-28.155 36.26-99.019 25.425-67.495 54.271-84.842 68.802-91.116 8.116-3.505 13.72-5.829 20.455-4.184 30.991 7.574 41.237 88.335 32.542 148.76-4.899 34.043-14.506 100.8-69.268 132.49-1.007 0.583-2.601 1.505-4.705 2.63-6.895 3.689-34.298 16.866-88.271 7.131-63.636-11.48-125.72-47.95-141.44-57.439z" fill="url(#bx)"/>
  <linearGradient id="bo" x1="2564.8" x2="2940.7" y1="3165.6" y2="3165.6" gradientUnits="userSpaceOnUse">
   <stop stop-color="#444B8C" offset="0"/>
   <stop stop-color="#26264F" offset=".9964"/>
  </linearGradient>
  <ellipse cx="2752.8" cy="3165.6" rx="187.95" ry="76.706" fill="url(#bo)"/>
  <linearGradient id="ak" x1="2564.8" x2="2940.7" y1="3140.1" y2="3140.1" gradientUnits="userSpaceOnUse">
   <stop stop-color="#AA80F9" offset="0"/>
   <stop stop-color="#6165D7" offset=".9964"/>
  </linearGradient>
  <path d="m2940.7 3156.6c0 39.99-84.147 72.409-187.95 72.409-103.8 0-187.95-32.419-187.95-72.409 0-39.989 84.147-105.42 187.95-105.42s187.95 65.433 187.95 105.42z" fill="url(#ak)"/>
  <linearGradient id="aa" x1="2699.2" x2="3015.1" y1="3121.6" y2="3121.6" gradientTransform="translate(-74.329)" gradientUnits="userSpaceOnUse">
   <stop stop-color="#AA80F9" offset="0"/>
   <stop stop-color="#6165D7" offset=".9964"/>
  </linearGradient>
  <path d="m2940.7 3156.6c0-39.99-84.147-105.42-187.95-105.42-47.928 0-91.641 13.964-124.84 32.918-2.324 4.868-3.407 9.709-2.966 14.305 2.155 22.5 38.851 36.332 59.916 40.894 53.044 11.489 78.947-20.23 122.68-19.021 27.04 0.747 64.51 14.331 108.95 71.859 15.384-10.498 24.203-22.615 24.203-35.532z" fill="url(#aa)" opacity=".3"/>
  <path d="m2763.1 3087.5c-7.51 1.869-14.516 1.795-21.108 0.12-5.979-1.518-10.083-7.05-10.083-13.219v-211.93h41.793v211.68c1e-3 6.358-4.431 11.813-10.602 13.349z" fill="#fff"/>
  <linearGradient id="bj" x1="2806.2" x2="2848" y1="2975.6" y2="2975.6" gradientTransform="translate(-74.329)" gradientUnits="userSpaceOnUse">
   <stop stop-color="#AA80F9" offset="0"/>
   <stop stop-color="#6165D7" offset=".9964"/>
  </linearGradient>
  <path d="m2763.1 3087.5c-7.51 1.869-14.516 1.795-21.108 0.12-5.979-1.518-10.083-7.05-10.083-13.219v-211.93h41.793v211.68c1e-3 6.358-4.431 11.813-10.602 13.349z" fill="url(#bj)" opacity=".65"/>
  <linearGradient id="bf" x1="3034.6" x2="2958" y1="2931.2" y2="2831.4" gradientTransform="translate(-74.329)" gradientUnits="userSpaceOnUse">
   <stop stop-color="#311944" offset="0"/>
   <stop stop-color="#893976" offset="1"/>
  </linearGradient>
  <path d="m2532 2773.2 63.845-40.36c2.656-15.077 32.751-172.8 154.93-222.33 49.686-20.141 103.16-17.752 132.5-16.44 58.578 2.616 100.36 4.482 120.46 32.425 25.806 35.879-17.476 68.417-8.514 171.05 3.654 41.853 12.949 60.441 1.373 88.167-13.868 33.213-46.026 51.623-71.031 61.986-29.89 17.357-81.932 42.09-150.67 48.114-115.78 10.147-202.22-39.519-231.94-58.522-13.218-4.167-23.149-15.159-25.96-28.729-2.848-13.763 3.131-27.85 15.009-35.359z" fill="url(#bf)"/>
  <path d="m2561.3 2802c2.36-14.192 41.914-2.427 79.33-30.221 55.93-41.546 26.901-111.92 75.552-179.44 44.649-61.958 134.53-93.492 162.44-69.886 37.142 31.424-53.761 148.94 0 224.77 26.115 36.836 65.903 35.061 66.108 56.664 0.325 34.139-98.701 73.498-192.66 71.775-101.01-1.851-194.51-51.137-190.77-73.663z" fill="#fff" opacity=".26"/>
 </g>
 <path d="m539.66 609.92c-38.652-1.1361-71.36 29.59-72.684 68.281l-0.48177 14.069a14.034 14.104 40.089 0 0 13.573 14.482 14.034 14.104 40.089 0 0 14.537-13.656l0.48177-14.069c0.80456-23.496 20.139-41.658 43.611-40.968 23.472 0.68992 41.525 19.952 40.72 43.447s-20.139 41.658-43.611 40.968l-56.22-1.6525a14.034 14.104 40.089 0 0-14.537 13.656 14.034 14.104 40.089 0 0 13.573 14.482l56.22 1.6525c38.652 1.1361 71.36-29.59 72.684-68.281 1.3249-38.69-29.215-71.276-67.867-72.412z" stroke-width=".14069"/>
</svg>
